<svg width="140" height="28" viewBox="0 0 140 28" fill="none" xmlns="http://www.w3.org/2000/svg">
<path d="M19.3359 4.46404L20.6681 0.83374H25.9559L24.6289 4.46404H19.3359Z" fill="black"/>
<path d="M27.0304 4.46404L28.3625 0.83374H33.6504L32.3182 4.46404H27.0304Z" fill="black"/>
<path fill-rule="evenodd" clip-rule="evenodd" d="M41.8959 11.1551H38.3164L36.847 15.8989L40.3146 15.8175L41.8959 11.1551ZM30.5677 17.9225C31.6812 14.3837 32.6422 11.1602 32.6422 11.1602H30.883L26.0731 25.0356C26.0731 25.0356 25.1477 27.166 23.058 27.166H18.2583L19.8243 22.6612L20.8513 22.6154C21.0293 22.5595 21.131 22.4629 21.2123 22.3104C21.2581 22.229 21.3039 22.1375 21.3496 22.0206L21.553 21.3392L16.6668 21.3545C15.1161 21.5172 13.6263 20.9071 14.4093 18.858L16.8651 11.2771H14.811L11.3231 21.3901H4.19976L0 6.28418H5.83695L8.06903 14.5667L10.7282 6.28418H24.2528L20.8513 15.8735H23.4546L26.7137 6.28418H41.4891L42.9992 8.18068L43.6297 6.28418H53.7834L55.868 13.6515L58.2628 6.28418H63.6625L56.6154 27.1609H51.1547L53.219 21.4003L49.8175 11.1144L47.7278 11.15L46.0702 15.9853H48.2972L45.3432 21.3545C45.3432 21.3545 42.8772 21.324 41.3824 21.3545C39.6435 21.385 39.4249 19.8037 39.4249 19.8037L37.7978 21.4003H32.7134C32.7134 21.4003 29.4492 21.4613 30.5627 17.9276" fill="black"/>
<path fill-rule="evenodd" clip-rule="evenodd" d="M96.6558 11.1047H93.0815L91.607 15.8536H95.0746L96.6558 11.1047ZM100.637 15.9247H102.391L106.632 3.44751H111.996L107.755 15.9298H109.926L108.121 21.299C108.121 21.299 97.6473 21.2736 96.1576 21.299C94.4238 21.3295 94.195 19.7432 94.195 19.7432L92.5679 21.3397H87.4835C87.4835 21.3397 84.2142 21.4007 85.3328 17.867C86.4463 14.3282 87.4123 11.1098 87.4123 11.1098L79.1755 11.1504L84.2955 15.8078L82.6787 21.4312H69.5303L71.4166 15.94L76.5722 15.9197L72.525 12.2131L74.5385 6.32022L96.5897 6.33548L97.8405 7.8964L98.4049 6.2287H103.698L100.652 15.9247H100.637Z" fill="black"/>
<path fill-rule="evenodd" clip-rule="evenodd" d="M117.481 10.8205H120.786L120.567 11.8069H117.181L117.486 10.8205H117.481ZM140 6.27502L127.838 6.25977L125.824 12.1526L129.872 15.8389H116.037L116.25 15.0813L123.618 15.066L125.667 8.70539C125.667 8.70539 126.104 6.28519 123.16 6.28519H114.323L110.129 18.4777C110.129 18.4777 109.173 21.4013 111.913 21.4013C114.654 21.4013 134.931 21.4063 134.931 21.4063L136.878 15.7524L132.475 11.0951H138.5L140 6.2801V6.27502Z" fill="black"/>
</svg>
