<svg xmlns="http://www.w3.org/2000/svg" xmlns:xlink="http://www.w3.org/1999/xlink" xml:space="preserve" width="250px" height="126px" style="shape-rendering:geometricPrecision; text-rendering:geometricPrecision; image-rendering:optimizeQuality; fill-rule:evenodd; clip-rule:evenodd" viewBox="0 0 248.87 125.33"> <defs>  <style type="text/css">       .fil1 {fill:#7C4010}    .fil2 {fill:#BB6428}    .fil0 {fill:url(#id0);fill-rule:nonzero}     </style>  <linearGradient id="id0" gradientUnits="userSpaceOnUse" x1="124.45" y1="61.97" x2="124.45" y2="61.98">   <stop offset="0" style="stop-opacity:1; stop-color:#BB6528"></stop>   <stop offset="0.160784" style="stop-opacity:1; stop-color:#BB6528"></stop>   <stop offset="0.341176" style="stop-opacity:1; stop-color:#7C4110"></stop>   <stop offset="1" style="stop-opacity:1; stop-color:#7C4110"></stop>  </linearGradient> </defs> <g id="Layer_x0020_1">  <metadata id="VihavCBD-Layer"></metadata>  <g id="_2146804211904">   <polygon class="fil0" points="171.64,21.59 248.87,103.64 248.87,78.08 194.83,21.59 171.64,21.59 "></polygon>   <polygon class="fil1" points="220.89,20.32 248.87,48.31 248.87,20.32 "></polygon>   <g>    <path class="fil2" d="M37.67 125.33c-10.7,0 -19.47,-3.47 -26.8,-10.61 -7.31,-7.12 -10.87,-15.44 -10.87,-25.45 0,-10 3.55,-18.31 10.86,-25.42 7.34,-7.12 16.11,-10.58 26.81,-10.58 3.63,0 7.13,0.48 10.39,1.42 3.26,0.94 5.94,2.08 7.97,3.38 2.16,1.39 4.1,2.79 5.75,4.16 1.56,1.3 2.46,2.21 2.99,2.82l-6.11 6.1c-0.39,-0.4 -0.89,-0.9 -1.55,-1.53 -1.41,-1.35 -2.96,-2.56 -4.61,-3.57 -1.69,-1.04 -3.88,-2 -6.51,-2.84 -2.7,-0.87 -5.5,-1.31 -8.32,-1.31 -7.73,0 -14.29,2.65 -19.51,7.86 -5.22,5.22 -7.86,11.78 -7.86,19.51 0,7.73 2.64,14.3 7.86,19.52 5.22,5.21 11.78,7.86 19.51,7.86 2.98,0 5.87,-0.42 8.61,-1.24 2.71,-0.82 5.01,-1.81 6.86,-2.97 1.74,-1.09 3.3,-2.21 4.63,-3.32 0.71,-0.6 1.33,-1.16 1.85,-1.68l5.68 5.98c-0.46,0.48 -1.37,1.35 -3.16,2.92 -1.81,1.58 -3.78,3 -5.85,4.2 -2.03,1.18 -4.78,2.29 -8.17,3.3 -3.34,0.99 -6.86,1.49 -10.45,1.49l0 0zm0 0l0 0 0 0z"></path>   </g>   <path class="fil2" d="M136.37 123.72l0 -68.89 24.87 0c10.17,0 18.45,3.27 25.31,10 6.85,6.72 10.18,14.71 10.18,24.44 0,9.73 -3.33,17.73 -10.18,24.44 -6.86,6.74 -15.14,10.01 -25.31,10.01l-24.87 0 0 0zm10.3 -8.63l14.57 0c6.94,0 12.95,-2.53 17.86,-7.52 4.9,-4.97 7.38,-11.12 7.38,-18.27 0,-7.14 -2.42,-13.28 -7.2,-18.25 -4.8,-5 -10.87,-7.54 -18.04,-7.54l-14.57 0 0 51.58z"></path>   <path class="fil2" d="M71.87 123.72l0 -53.55 10.29 0 0 14.01 17.75 0c3.39,0 6.16,-1 8.23,-2.98 2.1,-2.01 3.17,-4.67 3.17,-7.9 0,-3.23 -1.07,-5.89 -3.18,-7.9 -2.06,-1.98 -4.83,-2.98 -8.22,-2.98l-25.41 0 -1.99 -2.6c-1.07,-1.4 -2.64,-2.96 -4.78,-4.74 -0.1,-0.08 -0.2,-0.17 -0.3,-0.25l33.57 0c6.1,0 10.96,1.7 14.88,5.2 3.82,3.42 5.68,7.23 5.68,11.66 0,1.67 -0.24,3.29 -0.71,4.79 -0.46,1.47 -1.03,2.69 -1.71,3.61 -0.77,1.05 -1.54,1.96 -2.29,2.71 -0.87,0.87 -1.35,1.23 -1.57,1.37l-5.88 3.46 5.42 2.17c0.28,0.11 0.66,0.29 1.15,0.52 0.13,0.07 0.72,0.38 2.51,1.67 1.24,0.9 2.35,1.88 3.27,2.93 0.87,0.97 1.69,2.38 2.45,4.18 0.73,1.74 1.1,3.63 1.1,5.63 0,5.17 -2.02,9.51 -6.19,13.28 -4.24,3.84 -9.57,5.71 -16.28,5.71l-30.96 0 0 0zm10.29 -7.59l19.89 0c3.66,0 6.77,-1.2 9.23,-3.55 2.51,-2.39 3.78,-5.38 3.78,-8.89 0,-3.5 -1.27,-6.5 -3.77,-8.91 -2.46,-2.38 -5.58,-3.58 -9.24,-3.58l-19.89 0 0 24.93 0 0z"></path>   <polygon class="fil2" points="168.77,0 173.23,0 176.49,10.44 179.75,0 184.21,0 178.78,15.22 174.2,15.22 168.77,0 "></polygon>   <rect class="fil2" x="188.33" width="4.13" height="15.22"></rect>   <polygon class="fil2" points="211.9,15.22 207.77,15.22 207.77,9.35 202.23,9.35 202.23,15.22 198.1,15.22 198.1,0 202.23,0 202.23,5.66 207.77,5.66 207.77,0 211.9,0 "></polygon>   <path class="fil2" d="M221.34 11.96l-1.08 3.26 -4.46 0 5.76 -15.22 4.57 0 5.76 15.22 -4.45 0 -1.1 -3.26 -5 0zm2.51 -7.71l-1.41 4.45 2.82 0 -1.41 -4.45z"></path>   <polygon class="fil2" points="232.52,0 236.98,0 240.25,10.44 243.51,0 247.96,0 242.53,15.22 237.95,15.22 "></polygon>  </g> </g></svg>