<svg xmlns="http://www.w3.org/2000/svg" xmlns:xlink="http://www.w3.org/1999/xlink" xmlns:xodm="http://www.corel.com/coreldraw/odm/2003" xml:space="preserve" width="281px" height="136px" fill-rule="evenodd" clip-rule="evenodd" viewBox="0 0 149.82 72.41"> <g id="Layer_x0020_1">  <metadata id="CorelCorpID_0Corel-Layer"></metadata>  <path fill="#DBCD99" d="M131.31 30.38l0 -6.88 16.19 0 0 -8.46 -16.19 0 0 -6.52 18.14 0 0 -8.52 -28.44 0 0 38.9 28.81 0 0 -8.52 -18.51 0zm-15.08 -30.38l-32.91 0 0 8.52 11.3 0 0 30.38 10.31 0 0 -30.38 11.3 0 0 -8.52zm-37.69 0l-10.3 0 0 38.9 10.3 0 0 -38.9zm-31.12 30.38l0 -30.38 -10.3 0 0 38.9 26.44 0 0 -8.52 -16.14 0zm-17.71 8.52l0 -8.34 -28.07 0 0 8.34 28.07 0zm0 -15.28l0 -8.34 -28.07 0 0 8.34 28.07 0zm0 -15.28l0 -8.34 -28.07 0 0 8.34 28.07 0zm-18.78 53.59c0,2.46 -1.87,3.93 -5.08,3.93 -1.62,0 -3.42,-0.41 -5.22,-1.27l0 1.06c1.39,0.87 3.8,1.32 5.65,1.32 3.77,0 6.02,-1.95 6.02,-5.16 0,-3.6 -2.4,-4.71 -5.54,-5.49l-1.22 -0.31c-2.22,-0.55 -4.15,-1.09 -4.15,-3.44 0,-2.38 1.77,-3.72 4.91,-3.72 1.65,0 3.47,0.4 5.27,1.09l0 -1.06c-2.03,-0.84 -3.93,-1.14 -5.52,-1.14 -3.8,0 -6.05,1.77 -6.05,5.03 0,3.07 2.2,3.98 4.81,4.58l1.19 0.28c2.93,0.69 4.93,1.77 4.93,4.3zm22.83 -4.58c0,-5.77 -3.69,-9.61 -9.19,-9.61 -5.51,0 -9.21,3.84 -9.21,9.61 0,5.77 3.7,9.62 9.21,9.62 0.59,0 1.12,-0.05 1.65,-0.13 1.57,1.85 2.76,3.47 4.3,5.57l1.29 -0.38c-1.47,-2.02 -2.83,-3.79 -4.25,-5.49 3.8,-1.14 6.2,-4.53 6.2,-9.19zm-16.96 0c0,-5.08 3.12,-8.47 7.8,-8.47 4.63,0 7.74,3.39 7.74,8.47 0,5.09 -3.11,8.48 -7.74,8.48 -4.68,0 -7.8,-3.39 -7.8,-8.48zm34.85 -9.36l0 12.45c0,3.22 -2.45,5.39 -6.15,5.39 -3.72,0 -6.17,-2.17 -6.17,-5.39l0 -12.45 -1.37 0 0 12.63c0,3.82 3.01,6.35 7.52,6.35 4.53,0 7.54,-2.53 7.54,-6.35l0 -12.63 -1.37 0zm20.05 18.73l1.46 0c-2.42,-6.33 -5.74,-13.42 -8.65,-18.98l-0.2 0c-2.94,5.56 -6.23,12.65 -8.66,18.98l1.47 0c0.61,-1.72 1.32,-3.47 2.05,-5.24l10.45 0c0.76,1.77 1.44,3.52 2.08,5.24zm-7.29 -16.73c1.57,3.16 3.24,6.76 4.76,10.35l-9.52 0c1.49,-3.59 3.19,-7.19 4.76,-10.35zm18.09 9.62c0.23,0.02 0.46,0.02 0.69,0.02 3.39,0 5.89,-2.28 5.89,-5.82 0,-3.52 -2.43,-5.82 -6.05,-5.82l-6.73 0 0 18.73 1.37 0 0 -17.59 5.14 0c2.91,0 4.83,1.92 4.83,4.78 0,2.86 -1.9,4.76 -4.81,4.76 -1.19,0 -2.38,-0.05 -3.57,-0.25 3.27,2.6 6.48,5.44 9.34,8.3l1.72 0c-2.75,-2.79 -5.24,-5.06 -7.82,-7.11zm12.71 5.97l0 -7.87 9.18 0 0 -1.14 -9.18 0 0 -7.44 9.77 0 0 -1.14 -11.14 0 0 18.73 11.36 0 0 -1.14 -9.99 0z"></path> </g></svg>