<svg xmlns="http://www.w3.org/2000/svg" xmlns:xlink="http://www.w3.org/1999/xlink" xmlns:xodm="http://www.corel.com/coreldraw/odm/2003" xml:space="preserve" width="377px" height="125px" fill-rule="evenodd" clip-rule="evenodd" viewBox="0 0 181.05 59.96"> <g id="Layer_x0020_1">  <metadata id="CorelCorpID_0Corel-Layer"></metadata>  <g id="_2006799152144">   <path fill="#5B5B5B" fill-rule="nonzero" d="M15.35 59.6l0 -9.18 1.91 0c0.67,0 1.17,0.03 1.49,0.1 0.32,0.07 0.6,0.19 0.82,0.36 0.3,0.21 0.52,0.49 0.69,0.83 0.16,0.34 0.24,0.72 0.24,1.12 0,0.49 -0.12,0.89 -0.35,1.22 -0.23,0.33 -0.57,0.55 -1.01,0.68 0.54,0.09 0.97,0.33 1.28,0.73 0.32,0.41 0.47,0.92 0.47,1.53 0,0.37 -0.06,0.72 -0.2,1.06 -0.13,0.33 -0.32,0.62 -0.55,0.86 -0.26,0.25 -0.58,0.43 -0.96,0.53 -0.38,0.11 -1.02,0.16 -1.92,0.16l-1.91 0zm1.06 -4.3l0 3.35 0.85 0c0.58,0 1,-0.02 1.26,-0.07 0.25,-0.04 0.46,-0.12 0.62,-0.24 0.18,-0.13 0.33,-0.32 0.44,-0.56 0.11,-0.23 0.16,-0.5 0.16,-0.79 0,-0.33 -0.07,-0.62 -0.2,-0.87 -0.12,-0.24 -0.31,-0.44 -0.56,-0.58 -0.14,-0.08 -0.31,-0.15 -0.51,-0.18 -0.19,-0.04 -0.49,-0.06 -0.89,-0.06l-0.32 0 -0.85 0zm0 -3.93l0 3.07 0.85 0c0.78,0 1.33,-0.11 1.64,-0.34 0.32,-0.22 0.48,-0.61 0.48,-1.14 0,-0.59 -0.15,-1 -0.44,-1.24 -0.3,-0.23 -0.86,-0.35 -1.68,-0.35l-0.85 0zm10.79 -0.95l1.11 0 0 5.71c0,0.93 0.19,1.61 0.59,2.05 0.39,0.43 1.01,0.65 1.86,0.65 0.84,0 1.46,-0.22 1.86,-0.65 0.4,-0.44 0.59,-1.12 0.59,-2.05l0 -5.71 1.11 0 0 5.71c0,1.25 -0.3,2.17 -0.89,2.79 -0.59,0.62 -1.48,0.93 -2.67,0.93 -1.19,0 -2.08,-0.31 -2.67,-0.93 -0.59,-0.62 -0.89,-1.54 -0.89,-2.79l0 -5.71zm17.31 4.09c0.6,0.25 1.05,0.59 1.35,1.01 0.3,0.42 0.45,0.92 0.45,1.5 0,0.84 -0.27,1.52 -0.8,2.04 -0.54,0.51 -1.25,0.77 -2.14,0.77 -0.72,0 -1.33,-0.18 -1.82,-0.55 -0.49,-0.37 -0.82,-0.9 -0.99,-1.58l0.99 -0.49c0.14,0.56 0.36,0.98 0.67,1.27 0.3,0.28 0.69,0.43 1.15,0.43 0.55,0 0.99,-0.16 1.33,-0.48 0.34,-0.31 0.51,-0.72 0.51,-1.23 0,-0.41 -0.12,-0.76 -0.36,-1.07 -0.23,-0.3 -0.59,-0.56 -1.06,-0.77l-1.12 -0.47c-0.61,-0.26 -1.07,-0.59 -1.36,-0.99 -0.3,-0.4 -0.45,-0.88 -0.45,-1.44 0,-0.65 0.24,-1.19 0.72,-1.62 0.49,-0.42 1.11,-0.64 1.86,-0.64 0.55,0 1.03,0.12 1.43,0.35 0.41,0.24 0.72,0.58 0.95,1.04l-0.91 0.58c-0.2,-0.36 -0.43,-0.62 -0.68,-0.8 -0.26,-0.17 -0.55,-0.26 -0.87,-0.26 -0.41,0 -0.75,0.13 -1.01,0.38 -0.26,0.25 -0.39,0.57 -0.39,0.96 0,0.32 0.1,0.61 0.3,0.84 0.2,0.24 0.51,0.45 0.94,0.64l1.31 0.58zm7.95 5.09l0 -9.18 1.09 0 0 9.18 -1.09 0zm7.98 0l0 -9.54 6.72 7.33 0 -6.97 1.04 0 0 9.54 -6.72 -7.26 0 6.9 -1.04 0zm14.63 0l0 -9.18 4.84 0 0 1 -3.75 0 0 2.63 3.75 0 0 1.02 -3.75 0 0 3.52 3.75 0 0 1.01 -4.84 0zm14.71 -5.09c0.6,0.25 1.05,0.59 1.35,1.01 0.3,0.42 0.46,0.92 0.46,1.5 0,0.84 -0.27,1.52 -0.81,2.04 -0.54,0.51 -1.25,0.77 -2.14,0.77 -0.72,0 -1.33,-0.18 -1.82,-0.55 -0.48,-0.37 -0.81,-0.9 -0.99,-1.58l0.99 -0.49c0.14,0.56 0.36,0.98 0.67,1.27 0.3,0.28 0.69,0.43 1.15,0.43 0.55,0 0.99,-0.16 1.33,-0.48 0.34,-0.31 0.51,-0.72 0.51,-1.23 0,-0.41 -0.12,-0.76 -0.35,-1.07 -0.24,-0.3 -0.59,-0.56 -1.07,-0.77l-1.12 -0.47c-0.61,-0.26 -1.06,-0.59 -1.36,-0.99 -0.3,-0.4 -0.45,-0.88 -0.45,-1.44 0,-0.65 0.24,-1.19 0.73,-1.62 0.48,-0.42 1.1,-0.64 1.85,-0.64 0.55,0 1.03,0.12 1.44,0.35 0.4,0.24 0.72,0.58 0.94,1.04l-0.9 0.58c-0.21,-0.36 -0.44,-0.62 -0.69,-0.8 -0.26,-0.17 -0.55,-0.26 -0.87,-0.26 -0.41,0 -0.74,0.13 -1.01,0.38 -0.26,0.25 -0.39,0.57 -0.39,0.96 0,0.32 0.1,0.61 0.3,0.84 0.2,0.24 0.52,0.45 0.94,0.64l1.31 0.58zm11.28 0c0.6,0.25 1.05,0.59 1.35,1.01 0.3,0.42 0.45,0.92 0.45,1.5 0,0.84 -0.26,1.52 -0.8,2.04 -0.54,0.51 -1.25,0.77 -2.14,0.77 -0.72,0 -1.33,-0.18 -1.82,-0.55 -0.49,-0.37 -0.81,-0.9 -0.99,-1.58l0.99 -0.49c0.14,0.56 0.36,0.98 0.67,1.27 0.3,0.28 0.69,0.43 1.15,0.43 0.55,0 0.99,-0.16 1.33,-0.48 0.34,-0.31 0.51,-0.72 0.51,-1.23 0,-0.41 -0.12,-0.76 -0.35,-1.07 -0.24,-0.3 -0.6,-0.56 -1.07,-0.77l-1.12 -0.47c-0.61,-0.26 -1.07,-0.59 -1.36,-0.99 -0.3,-0.4 -0.45,-0.88 -0.45,-1.44 0,-0.65 0.24,-1.19 0.73,-1.62 0.48,-0.42 1.1,-0.64 1.85,-0.64 0.55,0 1.03,0.12 1.43,0.35 0.41,0.24 0.72,0.58 0.95,1.04l-0.9 0.58c-0.21,-0.36 -0.44,-0.62 -0.69,-0.8 -0.26,-0.17 -0.55,-0.26 -0.87,-0.26 -0.41,0 -0.75,0.13 -1.01,0.38 -0.26,0.25 -0.39,0.57 -0.39,0.96 0,0.32 0.1,0.61 0.3,0.84 0.2,0.24 0.51,0.45 0.94,0.64l1.31 0.58zm12.79 0.97l0 4.12 -1.07 0 0 -9.18 1.93 0c0.67,0 1.17,0.04 1.48,0.11 0.32,0.07 0.6,0.18 0.83,0.35 0.3,0.21 0.53,0.49 0.69,0.86 0.16,0.36 0.25,0.76 0.25,1.2 0,0.45 -0.09,0.85 -0.25,1.22 -0.16,0.36 -0.39,0.65 -0.69,0.85 -0.23,0.17 -0.51,0.29 -0.82,0.36 -0.32,0.07 -0.81,0.11 -1.49,0.11l-0.31 0 -0.55 0zm0 -0.99l0.55 0c0.94,0 1.57,-0.11 1.89,-0.33 0.32,-0.22 0.49,-0.6 0.49,-1.15 0,-0.58 -0.17,-0.99 -0.5,-1.23 -0.33,-0.24 -0.96,-0.36 -1.88,-0.36l-0.55 0 0 3.07zm10.13 5.11l0 -9.18 1.09 0 0 8.14 3.47 0 0 1.04 -4.56 0zm13.43 -7.13l-1.46 3.38 2.92 0 -1.46 -3.38zm0 -2.41l4.18 9.54 -1.19 0 -1.19 -2.81 -3.58 0 -1.2 2.81 -1.18 0 4.16 -9.54zm17.03 2.56c-0.44,-0.48 -0.91,-0.84 -1.41,-1.06 -0.49,-0.23 -1.05,-0.34 -1.65,-0.34 -0.48,0 -0.95,0.09 -1.42,0.29 -0.46,0.2 -0.86,0.47 -1.2,0.82 -0.35,0.37 -0.61,0.77 -0.79,1.22 -0.17,0.45 -0.26,0.95 -0.26,1.49 0,0.43 0.05,0.82 0.16,1.18 0.1,0.36 0.26,0.69 0.47,0.99 0.36,0.53 0.82,0.93 1.35,1.21 0.54,0.28 1.12,0.42 1.74,0.42 0.59,0 1.13,-0.12 1.63,-0.36 0.51,-0.24 0.97,-0.6 1.38,-1.09l0 1.45c-0.46,0.33 -0.95,0.58 -1.47,0.75 -0.53,0.17 -1.07,0.26 -1.63,0.26 -0.48,0 -0.96,-0.08 -1.42,-0.22 -0.46,-0.14 -0.89,-0.36 -1.29,-0.63 -0.67,-0.46 -1.18,-1.04 -1.53,-1.71 -0.36,-0.68 -0.53,-1.42 -0.53,-2.23 0,-0.71 0.11,-1.35 0.35,-1.93 0.24,-0.58 0.6,-1.11 1.08,-1.58 0.47,-0.45 0.99,-0.79 1.56,-1.01 0.57,-0.23 1.19,-0.34 1.86,-0.34 0.53,0 1.05,0.08 1.54,0.24 0.5,0.16 0.99,0.41 1.48,0.75l0 1.43zm6.54 6.98l0 -9.18 4.84 0 0 1 -3.75 0 0 2.63 3.75 0 0 1.02 -3.75 0 0 3.52 3.75 0 0 1.01 -4.84 0z"></path>   <polygon fill="#00A0E3" points="17.76,20.82 17.76,15.66 0,15.66 0,20.82 "></polygon>   <polygon fill="#FECC00" points="17.76,5.16 17.76,0 0,0 0,5.16 "></polygon>   <polygon fill="#E5097F" points="17.76,36.48 17.76,31.33 0,31.33 0,36.48 "></polygon>   <line fill="none" stroke="#C5C6C6" stroke-miterlimit="2.61313" x1="0" y1="42.68" x2="181.05" y2="42.68"></line>   <path fill="#5B5B5B" fill-rule="nonzero" d="M27.21 37l0 -37 22.63 21.75c0.61,0.62 1.23,1.27 1.87,1.97 0.63,0.7 1.3,1.49 1.99,2.36l0 -24.68 5.33 0 0 36.99 -23.06 -22.15c-0.62,-0.61 -1.21,-1.24 -1.79,-1.9 -0.58,-0.67 -1.12,-1.37 -1.64,-2.1l0 24.76 -5.33 0zm37.95 -7.13l4.62 -2.13c0.44,1.58 1.24,2.79 2.41,3.63 1.17,0.83 2.66,1.25 4.48,1.25 1.72,0 3.09,-0.48 4.11,-1.44 1.01,-0.95 1.51,-2.23 1.51,-3.83 0,-2.09 -1.73,-3.96 -5.21,-5.6 -0.49,-0.24 -0.86,-0.42 -1.12,-0.53 -3.92,-1.91 -6.54,-3.64 -7.84,-5.19 -1.3,-1.55 -1.96,-3.45 -1.96,-5.68 0,-2.9 0.99,-5.25 2.96,-7.05 1.96,-1.8 4.55,-2.7 7.75,-2.7 2.62,0 4.82,0.51 6.59,1.52 1.76,1.01 2.98,2.46 3.67,4.36l-4.52 2.34c-0.71,-1.12 -1.49,-1.95 -2.35,-2.46 -0.85,-0.52 -1.83,-0.78 -2.94,-0.78 -1.55,0 -2.79,0.41 -3.71,1.22 -0.92,0.8 -1.37,1.89 -1.37,3.25 0,2.14 2.01,4.14 6.04,5.99 0.3,0.15 0.55,0.26 0.73,0.34 3.52,1.62 5.93,3.21 7.24,4.75 1.31,1.55 1.97,3.49 1.97,5.8 0,3.37 -1.06,6.05 -3.19,8.04 -2.12,1.98 -4.99,2.98 -8.61,2.98 -3.03,0 -5.51,-0.7 -7.45,-2.1 -1.94,-1.39 -3.21,-3.38 -3.81,-5.98zm29.48 7.13l0 -35.6 5.77 0 0 35.6 -5.77 0zm33.82 -18.23l14.09 0c0,0.25 0.01,0.59 0.02,1.03 0.05,1.15 0.08,1.92 0.08,2.33 0,5 -1.44,8.89 -4.3,11.66 -2.87,2.77 -6.92,4.16 -12.13,4.16 -2.92,0 -5.52,-0.44 -7.8,-1.29 -2.28,-0.86 -4.29,-2.16 -6,-3.89 -1.68,-1.72 -2.98,-3.74 -3.87,-6.06 -0.91,-2.32 -1.36,-4.8 -1.36,-7.44 0,-2.69 0.46,-5.17 1.37,-7.44 0.92,-2.27 2.28,-4.27 4.08,-6 1.73,-1.7 3.76,-3 6.1,-3.89 2.33,-0.89 4.83,-1.34 7.48,-1.34 2.8,0 5.31,0.51 7.52,1.53 2.21,1.03 4.18,2.59 5.92,4.69l-4.22 3.19c-1.2,-1.39 -2.55,-2.43 -4.06,-3.11 -1.51,-0.68 -3.19,-1.02 -5.06,-1.02 -3.86,0 -7,1.23 -9.44,3.71 -2.44,2.47 -3.66,5.68 -3.66,9.63 0,4.03 1.22,7.29 3.66,9.79 2.44,2.5 5.6,3.76 9.49,3.76 3.31,0 5.91,-0.77 7.8,-2.31 1.9,-1.54 2.85,-3.64 2.85,-6.3l0 -0.51 -8.56 0 0 -4.88zm20.27 18.23l0 -37 22.62 21.75c0.62,0.62 1.24,1.27 1.88,1.97 0.63,0.7 1.29,1.49 1.99,2.36l0 -24.68 5.33 0 0 36.99 -23.06 -22.15c-0.62,-0.61 -1.22,-1.24 -1.79,-1.9 -0.58,-0.67 -1.12,-1.37 -1.64,-2.1l0 24.76 -5.33 0z"></path></g></g></svg>