<svg xmlns="http://www.w3.org/2000/svg" xmlns:xlink="http://www.w3.org/1999/xlink" xmlns:xodm="http://www.corel.com/coreldraw/odm/2003" xml:space="preserve" width="377px" height="123px" fill-rule="evenodd" clip-rule="evenodd" viewBox="0 0 861.37 280.26"> <g id="Layer_x0020_1">  <metadata id="CorelCorpID_0Corel-Layer"></metadata>  <g id="_2006795087520">   <line fill="none" stroke="#5B5B5B" stroke-width="4.77" stroke-miterlimit="2.61313" x1="0" y1="230.54" x2="861.37" y2="230.54"></line>   <path fill="#5B5B5B" fill-rule="nonzero" d="M770.05 189.04l0 -40.17c4.89,4.24 9.63,7.41 14.33,9.53 4.7,2.12 9.44,3.21 14.19,3.21 6.55,0 11.7,-1.72 15.45,-5.15 3.76,-3.44 5.65,-8.14 5.65,-14.06 0,-7.32 -5.1,-15.27 -15.27,-23.86 -2.85,-2.35 -4.97,-4.2 -6.38,-5.56 -11.83,-10.57 -19.92,-20.06 -24.35,-28.51 -4.39,-8.41 -6.6,-17.95 -6.6,-28.61 0,-16.68 4.7,-30.14 14.1,-40.45 9.4,-10.26 21.7,-15.41 36.88,-15.41 5.38,0 10.66,0.77 15.91,2.31 5.28,1.53 10.8,3.93 16.63,7.18l0 34.16c-6.78,-3.29 -12.07,-5.55 -15.82,-6.82 -3.75,-1.22 -7.1,-1.85 -9.99,-1.85 -5.56,0 -10.12,1.76 -13.65,5.24 -3.52,3.48 -5.29,8.05 -5.29,13.69 0,4.98 1.32,9.59 3.98,13.88 2.67,4.29 8.86,10.62 18.58,19.02 12.97,11.12 21.33,20.39 25.04,27.75 3.7,7.37 5.55,16.27 5.55,26.67 0,17.58 -4.97,31.5 -14.91,41.66 -9.94,10.22 -23.5,15.33 -40.63,15.33 -6.55,0 -12.56,-0.77 -18.08,-2.26 -5.51,-1.49 -10.62,-3.8 -15.32,-6.92zm-35.21 -186.6l0 121.48c0,14.82 -0.45,25.35 -1.31,31.59 -0.9,6.24 -2.35,11.34 -4.38,15.41 -4.66,9.27 -11.44,16.13 -20.29,20.61 -8.86,4.47 -20.3,6.69 -34.22,6.69 -13.91,0 -25.39,-2.22 -34.34,-6.69 -8.95,-4.48 -15.73,-11.34 -20.29,-20.61 -2.13,-4.11 -3.62,-9.36 -4.52,-15.59 -0.86,-6.28 -1.31,-16.77 -1.31,-31.41l0 -5.7 0 -115.78 38.5 0 0 124.51c0,15.81 1.63,25.98 4.83,30.55 3.22,4.56 8.95,6.82 17.13,6.82 8.36,0 14.15,-2.3 17.27,-6.96 3.12,-4.61 4.7,-14.78 4.7,-30.41l0 -124.51 38.23 0zm-228.81 193.33l0 -193.33 38.23 0 0 155.65 43.93 0 0 37.68 -82.16 0zm-119.32 0l0 -193.33 81.35 0 0 35.79 -43.93 0 0 39.05 39.86 0 0 35.52 -39.86 0 0 45.29 43.93 0 0 37.68 -81.35 0zm-35.79 -2.07c-3.71,1.49 -7.46,2.62 -11.21,3.39 -3.75,0.76 -7.5,1.13 -11.3,1.13 -24.67,0 -44.7,-8.95 -60.11,-26.9 -15.41,-17.89 -23.14,-41.39 -23.14,-70.41 0,-30.18 7.55,-54.59 22.6,-73.12 15.05,-18.53 34.75,-27.79 59.02,-27.79 4.52,0 8.77,0.36 12.75,1.13 3.98,0.72 7.77,1.9 11.39,3.48l0 36.06c-3.71,-1.49 -7.33,-2.57 -10.81,-3.3 -3.48,-0.67 -6.91,-1.03 -10.25,-1.03 -12.93,0 -23.37,5.69 -31.41,17.08 -8.05,11.39 -12.07,26.48 -12.07,45.28 0,18.08 4.11,32.72 12.39,43.93 8.26,11.21 18.88,16.81 31.85,16.81 3.3,0 6.65,-0.4 10.04,-1.17 3.39,-0.82 6.82,-1.95 10.26,-3.44l0 38.87zm-156.56 2.07l-15.23 -39.31c-1.49,-4.07 -2.89,-8.5 -4.2,-13.33 -1.27,-4.79 -2.4,-9.85 -3.34,-15.14 -1,5.37 -2.04,10.48 -3.22,15.27 -1.12,4.84 -2.3,9.22 -3.56,13.2l-13.25 39.31 -43.97 0 44.79 -97.84 -40.72 -95.49 40.45 0 14.55 40.67c0.81,2.17 1.67,5.16 2.67,8.86 0.94,3.71 2.08,8.5 3.29,14.42 1.09,-5.02 2.13,-9.54 3.17,-13.51 1.08,-3.94 2.12,-7.28 3.21,-9.9l14.28 -40.54 39.86 0 -40.63 95.49 43.61 97.84 -41.76 0zm-191.98 0l0 -193.33 81.35 0 0 35.79 -43.93 0 0 39.05 39.86 0 0 35.52 -39.86 0 0 45.29 43.93 0 0 37.68 -81.35 0z"></path>   <path fill="#5B5B5B" fill-rule="nonzero" stroke="#5B5B5B" stroke-width="2.06" stroke-linecap="round" stroke-linejoin="round" stroke-miterlimit="22.9256" d="M2.39 248.32l6.01 0c3.45,0 5.78,0.15 6.98,0.45 1.73,0.42 3.13,1.29 4.22,2.62 1.1,1.31 1.65,2.97 1.65,4.97 0,2.01 -0.53,3.66 -1.61,4.97 -1.06,1.3 -2.53,2.17 -4.4,2.63 -1.37,0.33 -3.92,0.49 -7.67,0.49l-2.16 0 0 14.03 -3.02 0 0 -30.16zm3.02 2.94l0 10.25 5.11 0.06c2.07,0 3.58,-0.19 4.54,-0.56 0.96,-0.38 1.72,-0.99 2.26,-1.83 0.55,-0.84 0.82,-1.78 0.82,-2.82 0,-1 -0.27,-1.94 -0.82,-2.78 -0.54,-0.84 -1.27,-1.43 -2.17,-1.79 -0.89,-0.35 -2.36,-0.53 -4.4,-0.53l-5.34 0zm45.21 -2.94l6.02 0c3.36,0 5.63,0.14 6.82,0.41 1.8,0.41 3.25,1.29 4.37,2.64 1.13,1.34 1.69,3 1.69,4.97 0,1.63 -0.38,3.08 -1.16,4.31 -0.77,1.25 -1.88,2.19 -3.32,2.83 -1.43,0.63 -3.42,0.96 -5.96,0.97l10.86 14.03 -3.7 0 -10.86 -14.03 -1.74 0 0 14.03 -3.02 0 0 -30.16zm3.02 2.94l0 10.25 5.21 0.04c2.03,0 3.52,-0.19 4.48,-0.57 0.97,-0.39 1.72,-1 2.27,-1.84 0.54,-0.84 0.81,-1.77 0.81,-2.82 0,-1.01 -0.27,-1.93 -0.82,-2.76 -0.55,-0.82 -1.27,-1.41 -2.17,-1.77 -0.89,-0.35 -2.37,-0.53 -4.44,-0.53l-5.34 0zm45.55 -2.94l17.27 0 0 2.94 -14.24 0 0 9.45 14.11 0 0 2.94 -14.11 0 0 11.89 14.11 0 0 2.94 -17.14 0 0 -30.16zm44.39 30.16l4.17 -30.16 0.63 0 12.27 24.74 12.19 -24.74 0.46 0 4.34 30.16 -2.92 0 -3.03 -21.59 -10.68 21.59 -0.79 0 -10.78 -21.76 -2.9 21.76 -2.96 0zm62.68 -30.16l3.03 0 0 30.16 -3.03 0 0 -30.16zm33.24 0l3.03 0 0 18.21c0,2.16 0.04,3.51 0.12,4.04 0.15,1.19 0.5,2.19 1.05,2.99 0.55,0.8 1.39,1.47 2.52,2.01 1.13,0.54 2.28,0.81 3.43,0.81 0.99,0 1.95,-0.21 2.87,-0.64 0.91,-0.42 1.68,-1.01 2.3,-1.76 0.61,-0.75 1.06,-1.66 1.35,-2.73 0.2,-0.77 0.3,-2.34 0.3,-4.72l0 -18.21 3.03 0 0 18.2c0,2.7 -0.27,4.87 -0.79,6.53 -0.53,1.66 -1.58,3.11 -3.16,4.34 -1.58,1.23 -3.49,1.84 -5.74,1.84 -2.44,0 -4.52,-0.58 -6.26,-1.74 -1.74,-1.16 -2.9,-2.69 -3.49,-4.61 -0.37,-1.18 -0.56,-3.29 -0.56,-6.36l0 -18.2zm49.29 30.16l4.18 -30.16 0.62 0 12.27 24.74 12.19 -24.74 0.46 0 4.34 30.16 -2.92 0 -3.03 -21.59 -10.68 21.59 -0.79 0 -10.78 -21.76 -2.9 21.76 -2.96 0zm74.81 -30.16l5.95 0c2.39,0 4.23,0.28 5.51,0.85 1.29,0.57 2.3,1.44 3.05,2.62 0.75,1.17 1.12,2.48 1.12,3.9 0,1.35 -0.33,2.57 -0.98,3.66 -0.65,1.1 -1.61,1.99 -2.87,2.68 1.57,0.53 2.77,1.15 3.61,1.87 0.85,0.72 1.5,1.58 1.97,2.61 0.46,1.01 0.7,2.12 0.7,3.31 0,2.42 -0.88,4.47 -2.65,6.15 -1.77,1.67 -4.14,2.51 -7.13,2.51l-8.28 0 0 -30.16zm2.94 2.94l0 9.66 1.73 0c2.1,0 3.65,-0.2 4.64,-0.58 0.98,-0.39 1.77,-1.01 2.34,-1.85 0.58,-0.84 0.87,-1.77 0.87,-2.8 0,-1.38 -0.48,-2.46 -1.45,-3.25 -0.97,-0.79 -2.51,-1.18 -4.63,-1.18l-3.5 0zm0 12.68l0 11.6 3.75 0c2.2,0 3.82,-0.22 4.85,-0.65 1.03,-0.43 1.85,-1.11 2.48,-2.03 0.62,-0.91 0.94,-1.91 0.94,-2.97 0,-1.35 -0.44,-2.52 -1.32,-3.52 -0.87,-1 -2.08,-1.68 -3.61,-2.05 -1.03,-0.25 -2.82,-0.38 -5.38,-0.38l-1.71 0zm44.42 -15.62l3.03 0 0 18.21c0,2.16 0.04,3.51 0.12,4.04 0.15,1.19 0.5,2.19 1.05,2.99 0.55,0.8 1.39,1.47 2.52,2.01 1.13,0.54 2.27,0.81 3.43,0.81 0.99,0 1.95,-0.21 2.87,-0.64 0.91,-0.42 1.68,-1.01 2.3,-1.76 0.61,-0.75 1.06,-1.66 1.35,-2.73 0.2,-0.77 0.3,-2.34 0.3,-4.72l0 -18.21 3.03 0 0 18.2c0,2.7 -0.27,4.87 -0.79,6.53 -0.53,1.66 -1.58,3.11 -3.16,4.34 -1.58,1.23 -3.49,1.84 -5.74,1.84 -2.44,0 -4.52,-0.58 -6.26,-1.74 -1.74,-1.16 -2.9,-2.69 -3.49,-4.61 -0.37,-1.18 -0.56,-3.29 -0.56,-6.36l0 -18.2zm47.48 24.51l2.56 -1.54c1.81,3.34 3.89,5.01 6.26,5.01 1.01,0 1.97,-0.25 2.85,-0.71 0.9,-0.47 1.57,-1.11 2.04,-1.9 0.47,-0.79 0.7,-1.63 0.7,-2.52 0,-1.01 -0.35,-2 -1.03,-2.97 -0.95,-1.34 -2.67,-2.95 -5.18,-4.84 -2.52,-1.9 -4.09,-3.27 -4.71,-4.12 -1.07,-1.42 -1.6,-2.96 -1.6,-4.61 0,-1.31 0.31,-2.51 0.95,-3.58 0.62,-1.09 1.51,-1.93 2.66,-2.55 1.15,-0.63 2.39,-0.93 3.73,-0.93 1.43,0 2.77,0.34 4.01,1.05 1.24,0.7 2.55,2 3.94,3.88l-2.47 1.87c-1.14,-1.51 -2.11,-2.5 -2.91,-2.98 -0.81,-0.48 -1.68,-0.72 -2.63,-0.72 -1.23,0 -2.23,0.38 -3,1.11 -0.78,0.74 -1.17,1.65 -1.17,2.73 0,0.65 0.14,1.29 0.41,1.9 0.27,0.62 0.78,1.28 1.5,2.01 0.4,0.38 1.71,1.39 3.92,3.01 2.62,1.93 4.42,3.65 5.39,5.15 0.97,1.5 1.46,3.02 1.46,4.53 0,2.19 -0.83,4.09 -2.49,5.7 -1.67,1.62 -3.69,2.42 -6.07,2.42 -1.83,0 -3.5,-0.49 -4.99,-1.47 -1.49,-0.98 -2.87,-2.62 -4.13,-4.93zm46.81 -24.51l3.02 0 0 30.16 -3.02 0 0 -30.16zm33.16 30.16l0 -30.16 0.65 0 20.05 23.07 0 -23.07 3.03 0 0 30.16 -0.69 0 -19.93 -22.86 0 22.86 -3.11 0zm54.27 -30.16l17.26 0 0 2.94 -14.24 0 0 9.45 14.12 0 0 2.94 -14.12 0 0 11.89 14.12 0 0 2.94 -17.14 0 0 -30.16zm42.57 24.51l2.57 -1.54c1.8,3.34 3.89,5.01 6.25,5.01 1.02,0 1.97,-0.25 2.86,-0.71 0.89,-0.47 1.57,-1.11 2.03,-1.9 0.47,-0.79 0.7,-1.63 0.7,-2.52 0,-1.01 -0.34,-2 -1.03,-2.97 -0.95,-1.34 -2.67,-2.95 -5.18,-4.84 -2.52,-1.9 -4.09,-3.27 -4.7,-4.12 -1.07,-1.42 -1.61,-2.96 -1.61,-4.61 0,-1.31 0.32,-2.51 0.95,-3.58 0.63,-1.09 1.52,-1.93 2.67,-2.55 1.14,-0.63 2.38,-0.93 3.73,-0.93 1.42,0 2.76,0.34 4,1.05 1.24,0.7 2.55,2 3.94,3.88l-2.46 1.87c-1.14,-1.51 -2.12,-2.5 -2.92,-2.98 -0.81,-0.48 -1.68,-0.72 -2.63,-0.72 -1.22,0 -2.22,0.38 -3,1.11 -0.78,0.74 -1.17,1.65 -1.17,2.73 0,0.65 0.14,1.29 0.41,1.9 0.28,0.62 0.78,1.28 1.51,2.01 0.39,0.38 1.7,1.39 3.91,3.01 2.62,1.93 4.42,3.65 5.39,5.15 0.97,1.5 1.47,3.02 1.47,4.53 0,2.19 -0.84,4.09 -2.5,5.7 -1.66,1.62 -3.69,2.42 -6.06,2.42 -1.84,0 -3.51,-0.49 -5,-1.47 -1.49,-0.98 -2.87,-2.62 -4.13,-4.93zm44.12 0l2.57 -1.54c1.8,3.34 3.89,5.01 6.25,5.01 1.02,0 1.97,-0.25 2.86,-0.71 0.89,-0.47 1.57,-1.11 2.03,-1.9 0.47,-0.79 0.7,-1.63 0.7,-2.52 0,-1.01 -0.34,-2 -1.03,-2.97 -0.94,-1.34 -2.66,-2.95 -5.18,-4.84 -2.52,-1.9 -4.09,-3.27 -4.7,-4.12 -1.07,-1.42 -1.6,-2.96 -1.6,-4.61 0,-1.31 0.31,-2.51 0.94,-3.58 0.63,-1.09 1.52,-1.93 2.67,-2.55 1.15,-0.63 2.38,-0.93 3.73,-0.93 1.43,0 2.76,0.34 4,1.05 1.24,0.7 2.56,2 3.94,3.88l-2.46 1.87c-1.14,-1.51 -2.11,-2.5 -2.92,-2.98 -0.8,-0.48 -1.68,-0.72 -2.62,-0.72 -1.23,0 -2.23,0.38 -3.01,1.11 -0.78,0.74 -1.17,1.65 -1.17,2.73 0,0.65 0.14,1.29 0.42,1.9 0.27,0.62 0.77,1.28 1.5,2.01 0.39,0.38 1.7,1.39 3.91,3.01 2.62,1.93 4.42,3.65 5.39,5.15 0.98,1.5 1.47,3.02 1.47,4.53 0,2.19 -0.84,4.09 -2.5,5.7 -1.66,1.62 -3.68,2.42 -6.06,2.42 -1.84,0 -3.5,-0.49 -5,-1.47 -1.49,-0.98 -2.86,-2.62 -4.13,-4.93zm58.82 -24.51l3.02 0 0 12.64 15.38 0 0 -12.64 3.02 0 0 30.16 -3.02 0 0 -14.58 -15.38 0 0 14.58 -3.02 0 0 -30.16zm52.07 0l3.02 0 0 18.21c0,2.16 0.04,3.51 0.13,4.04 0.14,1.19 0.49,2.19 1.04,2.99 0.55,0.8 1.39,1.47 2.52,2.01 1.13,0.54 2.28,0.81 3.43,0.81 0.99,0 1.95,-0.21 2.87,-0.64 0.91,-0.42 1.68,-1.01 2.3,-1.76 0.61,-0.75 1.06,-1.66 1.35,-2.73 0.2,-0.77 0.31,-2.34 0.31,-4.72l0 -18.21 3.02 0 0 18.2c0,2.7 -0.27,4.87 -0.79,6.53 -0.53,1.66 -1.58,3.11 -3.16,4.34 -1.58,1.23 -3.49,1.84 -5.74,1.84 -2.44,0 -4.52,-0.58 -6.26,-1.74 -1.74,-1.16 -2.9,-2.69 -3.49,-4.61 -0.37,-1.18 -0.55,-3.29 -0.55,-6.36l0 -18.2zm50.66 0l5.95 0c2.39,0 4.23,0.28 5.51,0.85 1.29,0.57 2.3,1.44 3.05,2.62 0.74,1.17 1.12,2.48 1.12,3.9 0,1.35 -0.33,2.57 -0.98,3.66 -0.65,1.1 -1.61,1.99 -2.87,2.68 1.56,0.53 2.77,1.15 3.61,1.87 0.85,0.72 1.5,1.58 1.97,2.61 0.46,1.01 0.7,2.12 0.7,3.31 0,2.42 -0.88,4.47 -2.65,6.15 -1.77,1.67 -4.15,2.51 -7.13,2.51l-8.28 0 0 -30.16zm2.94 2.94l0 9.66 1.73 0c2.1,0 3.65,-0.2 4.64,-0.58 0.98,-0.39 1.77,-1.01 2.34,-1.85 0.58,-0.84 0.87,-1.77 0.87,-2.8 0,-1.38 -0.49,-2.46 -1.45,-3.25 -0.98,-0.79 -2.51,-1.18 -4.63,-1.18l-3.5 0zm0 12.68l0 11.6 3.75 0c2.2,0 3.82,-0.22 4.85,-0.65 1.03,-0.43 1.85,-1.11 2.48,-2.03 0.62,-0.91 0.93,-1.91 0.93,-2.97 0,-1.35 -0.44,-2.52 -1.31,-3.52 -0.88,-1 -2.08,-1.68 -3.61,-2.05 -1.03,-0.25 -2.83,-0.38 -5.38,-0.38l-1.71 0z"></path>  </g> </g></svg>