<svg xmlns="http://www.w3.org/2000/svg" xmlns:xlink="http://www.w3.org/1999/xlink" xmlns:xodm="http://www.corel.com/coreldraw/odm/2003" xml:space="preserve" width="376px" height="106px" fill-rule="evenodd" clip-rule="evenodd" viewBox="0 0 90.54 25.62"> <g id="Layer_x0020_1"><metadata id="CorelCorpID_0Corel-Layer"></metadata>  <g id="_2006353042416">   <path fill="#EA9C30" fill-rule="nonzero" d="M1.8 25.53l0 -0.21c0.31,-0.05 0.49,-0.09 0.55,-0.12 0.04,-0.02 0.07,-0.06 0.08,-0.11 0.03,-0.07 0.04,-0.27 0.06,-0.59l-1.34 0c-0.06,0 -0.19,0 -0.39,0 -0.01,-0.18 -0.02,-0.35 -0.03,-0.53 0.27,-0.38 0.68,-0.96 1.22,-1.75 0.19,-0.3 0.37,-0.56 0.51,-0.79 0.23,-0.09 0.47,-0.22 0.7,-0.4l0.16 0.11c-0.05,0.49 -0.08,0.91 -0.08,1.25l0.01 1.2 0 0.3c0.2,-0.01 0.41,-0.03 0.6,-0.06l0.08 0.11c-0.1,0.17 -0.2,0.36 -0.28,0.56 -0.12,-0.01 -0.25,-0.01 -0.4,-0.01 0,0.34 0.01,0.54 0.02,0.59 0.01,0.04 0.03,0.08 0.07,0.11 0.05,0.03 0.17,0.07 0.36,0.1 0.04,0.01 0.09,0.02 0.15,0.03l0 0.21c-0.39,-0.03 -0.73,-0.04 -1.02,-0.04 -0.31,0 -0.65,0.01 -1.03,0.04zm0.69 -1.62l0 -1.82 -1.24 1.82 1.24 0zm3.85 -2.54l0 -0.22c0.5,0.02 0.92,0.03 1.26,0.03 0.14,0 0.36,0 0.66,-0.01 0.15,0 0.28,0 0.4,0 0.44,0 0.75,0.06 0.95,0.19 0.25,0.17 0.38,0.41 0.38,0.74 0,0.28 -0.1,0.52 -0.29,0.71 -0.14,0.15 -0.36,0.27 -0.66,0.36 0.26,0.02 0.47,0.07 0.64,0.14 0.16,0.07 0.28,0.18 0.37,0.33 0.09,0.15 0.14,0.32 0.14,0.52 0,0.25 -0.07,0.48 -0.21,0.69 -0.14,0.21 -0.35,0.37 -0.63,0.49 -0.28,0.11 -0.63,0.17 -1.07,0.17 -0.12,0 -0.27,0 -0.45,-0.01 -0.23,-0.01 -0.38,-0.01 -0.47,-0.01 -0.16,0 -0.5,0.01 -1.02,0.04l0 -0.23 0.51 -0.11c0.05,-0.02 0.08,-0.04 0.11,-0.06 0.02,-0.02 0.04,-0.05 0.05,-0.09 0.01,-0.07 0.02,-0.25 0.03,-0.54 0,-0.52 0.01,-1 0.01,-1.45 0,-0.25 -0.01,-0.64 -0.03,-1.17 0,-0.16 -0.02,-0.27 -0.05,-0.32 -0.02,-0.03 -0.06,-0.05 -0.1,-0.07 -0.02,-0.01 -0.2,-0.05 -0.53,-0.12zm1.62 1.69l0.15 0c0.34,0 0.58,-0.07 0.73,-0.21 0.16,-0.14 0.23,-0.35 0.23,-0.63 0,-0.24 -0.06,-0.42 -0.19,-0.54 -0.12,-0.13 -0.31,-0.19 -0.55,-0.19 -0.1,0 -0.23,0.01 -0.37,0.03l0 1.54zm0 0.32l0 1.74c0.13,0.03 0.26,0.04 0.38,0.04 0.28,0 0.49,-0.08 0.63,-0.23 0.15,-0.15 0.22,-0.38 0.22,-0.7 0,-0.32 -0.08,-0.54 -0.25,-0.66 -0.16,-0.13 -0.44,-0.19 -0.83,-0.19l-0.15 0zm3.88 -0.99l-0.3 0c0.11,-0.34 0.17,-0.65 0.17,-0.93 0.19,-0.13 0.38,-0.22 0.57,-0.29 0.18,-0.06 0.37,-0.09 0.56,-0.09 0.35,0 0.64,0.1 0.86,0.31 0.22,0.21 0.32,0.47 0.32,0.77 0,0.23 -0.04,0.46 -0.14,0.68 -0.09,0.22 -0.26,0.47 -0.49,0.75 -0.1,0.12 -0.49,0.51 -1.16,1.18l1.08 0c0.17,0 0.28,-0.01 0.34,-0.02 0.05,-0.02 0.1,-0.05 0.15,-0.11 0.05,-0.05 0.11,-0.15 0.19,-0.31l0.29 0c-0.19,0.47 -0.35,0.87 -0.45,1.2 -0.52,-0.03 -0.95,-0.04 -1.31,-0.04 -0.39,0 -0.8,0.01 -1.24,0.04l0 -0.27c0.3,-0.29 0.64,-0.67 1.03,-1.14 0.24,-0.29 0.42,-0.53 0.54,-0.72 0.11,-0.19 0.2,-0.37 0.25,-0.53 0.05,-0.15 0.08,-0.31 0.08,-0.46 0,-0.22 -0.06,-0.39 -0.18,-0.52 -0.11,-0.12 -0.25,-0.18 -0.42,-0.18 -0.16,0 -0.29,0.05 -0.41,0.15 -0.12,0.09 -0.23,0.27 -0.33,0.53zm3.41 -1.02l0 -0.22c0.38,0.02 0.76,0.03 1.14,0.03 0.4,0 0.8,-0.01 1.2,-0.03l0 0.22c-0.32,0.06 -0.5,0.1 -0.55,0.12 -0.06,0.02 -0.1,0.06 -0.12,0.11 -0.02,0.05 -0.03,0.2 -0.03,0.45l0 0.21 -0.01 0.79c0.3,0.01 0.61,0.02 0.94,0.02 0.3,0 0.56,-0.01 0.79,-0.02l-0.01 -1.09c0,-0.2 -0.01,-0.32 -0.03,-0.37 -0.02,-0.05 -0.07,-0.08 -0.13,-0.11 -0.05,-0.02 -0.22,-0.05 -0.53,-0.11l0 -0.22c0.4,0.02 0.77,0.03 1.1,0.03 0.31,0 0.72,-0.01 1.23,-0.03l0 0.22 -0.5 0.11c-0.05,0.01 -0.09,0.03 -0.11,0.05 -0.02,0.02 -0.04,0.05 -0.05,0.08 -0.02,0.07 -0.03,0.28 -0.04,0.64 0,0.57 0,0.94 0,1.11 0,0.7 0,1.22 0.02,1.56 0,0.11 0.03,0.18 0.07,0.23 0.05,0.04 0.21,0.09 0.49,0.13l0.12 0.02 0 0.23c-0.43,-0.03 -0.82,-0.04 -1.16,-0.04 -0.33,0 -0.72,0.01 -1.16,0.04l0 -0.23 0.51 -0.11c0.07,-0.02 0.11,-0.05 0.13,-0.09 0.03,-0.04 0.04,-0.14 0.04,-0.29l0.01 -1.36 -0.85 -0.01c-0.04,0 -0.33,0 -0.88,0.01 0.01,0.84 0.01,1.35 0.02,1.51 0.01,0.09 0.04,0.15 0.08,0.2 0.05,0.04 0.21,0.08 0.47,0.12 0.03,0 0.08,0.01 0.14,0.02l0 0.23c-0.46,-0.03 -0.87,-0.04 -1.24,-0.04 -0.37,0 -0.73,0.01 -1.1,0.04l0 -0.23c0.29,-0.06 0.46,-0.1 0.52,-0.12 0.06,-0.02 0.1,-0.05 0.13,-0.09 0.02,-0.05 0.04,-0.15 0.04,-0.3l0.01 -1.2c0,-0.63 0,-1.16 -0.01,-1.61 0,-0.22 -0.02,-0.35 -0.05,-0.41 -0.02,-0.03 -0.05,-0.06 -0.1,-0.08 -0.04,-0.02 -0.22,-0.06 -0.54,-0.12zm5.83 0l0 -0.22c0.39,0.02 0.79,0.03 1.17,0.03 0.4,0 0.79,-0.01 1.16,-0.03l0 0.22 -0.51 0.11c-0.06,0.02 -0.1,0.05 -0.13,0.09 -0.03,0.05 -0.04,0.14 -0.04,0.28l-0.01 1.4c0.62,-0.6 1.07,-1.07 1.34,-1.4 0.13,-0.16 0.19,-0.26 0.19,-0.31 0,-0.03 -0.02,-0.06 -0.07,-0.08 -0.01,-0.01 -0.15,-0.04 -0.39,-0.09l0 -0.22c0.4,0.02 0.71,0.03 0.95,0.03 0.25,0 0.54,-0.01 0.9,-0.03l0 0.22c-0.3,0.05 -0.5,0.09 -0.59,0.14 -0.1,0.05 -0.24,0.18 -0.45,0.38l-1.06 1.09c0.16,0.2 0.4,0.49 0.71,0.86 0.27,0.3 0.49,0.57 0.66,0.78 0.17,0.22 0.32,0.37 0.45,0.45 0.12,0.08 0.35,0.15 0.67,0.23l0 0.23c-0.4,-0.03 -0.8,-0.04 -1.2,-0.04 -0.41,0 -0.81,0.01 -1.19,0.04l0 -0.23c0.19,-0.02 0.31,-0.05 0.36,-0.09 0.04,-0.02 0.05,-0.05 0.05,-0.09 0,-0.03 -0.03,-0.09 -0.11,-0.19l-1.22 -1.59 0.01 0.21 0 0.97c0,0.3 0.01,0.49 0.02,0.56 0.01,0.04 0.04,0.07 0.09,0.1 0.04,0.02 0.19,0.05 0.45,0.1 0.03,0 0.07,0.01 0.12,0.02l0 0.23c-0.39,-0.03 -0.74,-0.04 -1.06,-0.04 -0.26,0 -0.69,0.01 -1.27,0.04l0 -0.23c0.35,-0.06 0.55,-0.11 0.61,-0.16 0.04,-0.03 0.06,-0.08 0.07,-0.15 0.01,-0.11 0.01,-0.7 0.01,-1.77 0,-0.91 0,-1.4 -0.01,-1.5 -0.01,-0.09 -0.03,-0.15 -0.07,-0.18 -0.05,-0.05 -0.26,-0.1 -0.61,-0.17zm7.3 0l0 -0.22c0.53,0.02 0.94,0.03 1.23,0.03 0.3,0 0.7,-0.01 1.2,-0.03l0 0.22c-0.42,0.07 -0.65,0.11 -0.69,0.13 -0.06,0.03 -0.09,0.12 -0.09,0.27l-0.02 0.79 0 2.57 1.13 0c0.19,0 0.31,-0.02 0.37,-0.04 0.09,-0.03 0.17,-0.1 0.25,-0.19 0.08,-0.09 0.22,-0.3 0.41,-0.63l0.28 0c-0.14,0.38 -0.27,0.8 -0.4,1.26 -0.88,-0.03 -1.6,-0.04 -2.18,-0.04 -0.48,0 -0.97,0.01 -1.49,0.04l0 -0.23c0.37,-0.07 0.57,-0.12 0.6,-0.15 0.04,-0.03 0.06,-0.08 0.07,-0.15 0.01,-0.07 0.02,-0.57 0.02,-1.48l0 -1.12 0 -0.2c0,-0.33 -0.02,-0.53 -0.04,-0.59 -0.01,-0.05 -0.04,-0.09 -0.08,-0.11 -0.04,-0.02 -0.23,-0.06 -0.57,-0.13zm4.79 0l0 -0.22c0.48,0.02 0.86,0.03 1.15,0.03 0.29,0 0.67,-0.01 1.15,-0.03l0 0.22c-0.31,0.05 -0.49,0.1 -0.57,0.13 -0.05,0.02 -0.08,0.05 -0.1,0.09 -0.02,0.05 -0.03,0.19 -0.03,0.41l0 1.58c0,0.41 0.02,0.68 0.07,0.83 0.06,0.19 0.17,0.35 0.33,0.47 0.17,0.11 0.4,0.17 0.7,0.17 0.33,0 0.58,-0.07 0.75,-0.2 0.17,-0.14 0.27,-0.31 0.32,-0.53 0.05,-0.22 0.07,-0.6 0.07,-1.14 0,-0.12 0,-0.47 -0.02,-1.04 -0.01,-0.32 -0.03,-0.5 -0.05,-0.56 -0.01,-0.03 -0.03,-0.06 -0.06,-0.08 -0.04,-0.02 -0.17,-0.06 -0.4,-0.1 -0.03,-0.01 -0.07,-0.02 -0.12,-0.03l0 -0.22c0.43,0.02 0.74,0.03 0.92,0.03 0.21,0 0.49,-0.01 0.84,-0.03l0 0.22c-0.31,0.06 -0.49,0.11 -0.54,0.14 -0.05,0.04 -0.08,0.09 -0.09,0.16 -0.02,0.11 -0.03,0.64 -0.04,1.57 0,0.53 -0.02,0.89 -0.04,1.05 -0.04,0.23 -0.09,0.42 -0.17,0.56 -0.08,0.14 -0.19,0.28 -0.34,0.4 -0.15,0.12 -0.31,0.21 -0.49,0.26 -0.24,0.07 -0.5,0.11 -0.77,0.11 -0.46,0 -0.82,-0.07 -1.09,-0.2 -0.27,-0.13 -0.46,-0.31 -0.56,-0.52 -0.11,-0.22 -0.16,-0.53 -0.16,-0.94l0 -1.91c0,-0.25 -0.01,-0.4 -0.04,-0.47 -0.02,-0.04 -0.05,-0.07 -0.09,-0.09 -0.05,-0.02 -0.23,-0.06 -0.53,-0.12zm5.91 0l0 -0.22c0.5,0.02 0.88,0.03 1.17,0.03 0.3,0 0.67,-0.01 1.11,-0.03l0 0.22c-0.25,0.05 -0.4,0.09 -0.45,0.12 -0.03,0.03 -0.05,0.06 -0.05,0.1 0,0.05 0.01,0.09 0.03,0.13 0.06,0.11 0.28,0.46 0.67,1.04 0.58,-0.72 0.87,-1.13 0.87,-1.22 0,-0.02 -0.02,-0.04 -0.04,-0.06 -0.03,-0.02 -0.18,-0.05 -0.46,-0.11l0 -0.22c0.42,0.02 0.7,0.03 0.85,0.03 0.1,0 0.38,-0.01 0.83,-0.03l0 0.22c-0.2,0.04 -0.35,0.07 -0.43,0.12 -0.09,0.04 -0.17,0.09 -0.23,0.16 -0.03,0.03 -0.25,0.29 -0.66,0.79 -0.24,0.29 -0.42,0.51 -0.52,0.65 0.29,0.46 0.64,1.01 1.05,1.63 0.14,0.2 0.25,0.33 0.33,0.39 0.08,0.06 0.26,0.12 0.53,0.19l0 0.23c-0.41,-0.03 -0.79,-0.04 -1.15,-0.04 -0.35,0 -0.71,0.01 -1.06,0.04l0 -0.23c0.22,-0.05 0.36,-0.09 0.41,-0.12 0.03,-0.03 0.05,-0.06 0.05,-0.09 0,-0.03 -0.01,-0.06 -0.04,-0.1 -0.02,-0.05 -0.26,-0.43 -0.72,-1.16 -0.25,0.28 -0.54,0.65 -0.87,1.1 -0.06,0.08 -0.08,0.14 -0.08,0.18 0,0.03 0.01,0.06 0.04,0.08 0.05,0.02 0.21,0.06 0.48,0.11l0 0.23c-0.36,-0.03 -0.65,-0.04 -0.89,-0.04 -0.25,0 -0.53,0.01 -0.85,0.04l0 -0.23c0.22,-0.03 0.37,-0.07 0.43,-0.09 0.09,-0.05 0.19,-0.12 0.29,-0.23 0.19,-0.19 0.6,-0.68 1.24,-1.49 -0.6,-0.95 -0.96,-1.51 -1.09,-1.69 -0.09,-0.11 -0.17,-0.19 -0.26,-0.24 -0.08,-0.05 -0.26,-0.12 -0.53,-0.19zm5.49 0l0 -0.22c0.48,0.02 0.86,0.03 1.15,0.03 0.29,0 0.67,-0.01 1.15,-0.03l0 0.22c-0.3,0.05 -0.49,0.1 -0.57,0.13 -0.05,0.02 -0.08,0.05 -0.1,0.09 -0.02,0.05 -0.03,0.19 -0.03,0.41l0 1.58c0,0.41 0.02,0.68 0.07,0.83 0.06,0.19 0.17,0.35 0.33,0.47 0.17,0.11 0.4,0.17 0.7,0.17 0.33,0 0.58,-0.07 0.75,-0.2 0.17,-0.14 0.27,-0.31 0.32,-0.53 0.05,-0.22 0.08,-0.6 0.08,-1.14 0,-0.12 -0.01,-0.47 -0.03,-1.04 -0.01,-0.32 -0.03,-0.5 -0.05,-0.56 -0.01,-0.03 -0.03,-0.06 -0.06,-0.08 -0.04,-0.02 -0.17,-0.06 -0.4,-0.1 -0.03,-0.01 -0.07,-0.02 -0.12,-0.03l0 -0.22c0.43,0.02 0.74,0.03 0.92,0.03 0.22,0 0.5,-0.01 0.84,-0.03l0 0.22c-0.31,0.06 -0.49,0.11 -0.54,0.14 -0.05,0.04 -0.08,0.09 -0.09,0.16 -0.02,0.11 -0.03,0.64 -0.04,1.57 0,0.53 -0.02,0.89 -0.04,1.05 -0.03,0.23 -0.09,0.42 -0.17,0.56 -0.07,0.14 -0.19,0.28 -0.34,0.4 -0.14,0.12 -0.31,0.21 -0.49,0.26 -0.24,0.07 -0.49,0.11 -0.77,0.11 -0.45,0 -0.82,-0.07 -1.09,-0.2 -0.27,-0.13 -0.45,-0.31 -0.56,-0.52 -0.11,-0.22 -0.16,-0.53 -0.16,-0.94l0 -1.91c0,-0.25 -0.01,-0.4 -0.04,-0.47 -0.02,-0.04 -0.05,-0.07 -0.09,-0.09 -0.05,-0.02 -0.23,-0.06 -0.53,-0.12zm5.78 0.01l0 -0.23c0.69,0.02 1.1,0.03 1.23,0.03 0.13,0 0.32,0 0.58,-0.01 0.25,-0.01 0.44,-0.01 0.56,-0.01 0.3,0 0.54,0.04 0.71,0.12 0.17,0.08 0.31,0.2 0.41,0.37 0.11,0.17 0.16,0.36 0.16,0.57 0,0.18 -0.04,0.35 -0.11,0.52 -0.08,0.16 -0.18,0.3 -0.3,0.42 -0.08,0.07 -0.21,0.16 -0.38,0.25 0.14,0.24 0.34,0.58 0.61,1.02 0.2,0.32 0.33,0.51 0.39,0.58 0.06,0.06 0.12,0.11 0.19,0.15 0.11,0.05 0.31,0.09 0.59,0.14l0 0.23c-0.35,-0.03 -0.63,-0.04 -0.85,-0.04 -0.23,0 -0.52,0.01 -0.86,0.04 -0.25,-0.58 -0.57,-1.24 -0.96,-1.99 -0.12,0 -0.24,-0.01 -0.37,-0.02l0.01 1.28c0,0.16 0.01,0.26 0.04,0.3 0.02,0.03 0.05,0.06 0.09,0.08 0.03,0.01 0.21,0.05 0.55,0.12l0 0.23c-0.48,-0.03 -0.86,-0.04 -1.15,-0.04 -0.29,0 -0.67,0.01 -1.14,0.04l0 -0.23c0.35,-0.07 0.54,-0.11 0.59,-0.15 0.04,-0.04 0.07,-0.1 0.08,-0.21 0.01,-0.05 0.01,-0.58 0.02,-1.58l-0.01 -0.92c0,-0.43 0,-0.69 -0.02,-0.78 -0.01,-0.06 -0.04,-0.11 -0.08,-0.14 -0.05,-0.03 -0.2,-0.07 -0.44,-0.11l-0.14 -0.03zm1.6 1.79c0.1,0 0.18,0 0.23,0 0.28,0 0.5,-0.06 0.63,-0.2 0.14,-0.14 0.21,-0.35 0.21,-0.63 0,-0.26 -0.07,-0.46 -0.2,-0.6 -0.12,-0.14 -0.3,-0.21 -0.52,-0.21 -0.09,0 -0.21,0.01 -0.35,0.02l0 1.62zm3.32 -1.8l0 -0.22 0.6 0.02c0.28,0 0.44,0.01 0.49,0.01 0.2,0 0.57,-0.01 1.11,-0.03l0 0.22c-0.24,0.06 -0.37,0.1 -0.41,0.13 -0.03,0.02 -0.05,0.05 -0.05,0.08 0,0.04 0.01,0.08 0.05,0.13 0.07,0.12 0.19,0.34 0.36,0.64 0.17,0.3 0.34,0.59 0.51,0.87l0.87 -1.59c0.02,-0.04 0.03,-0.06 0.03,-0.08 0,-0.03 -0.01,-0.06 -0.04,-0.08 -0.03,-0.02 -0.17,-0.05 -0.42,-0.1l0 -0.22 0.15 0c0.34,0.02 0.57,0.03 0.69,0.03 0.13,0 0.39,-0.01 0.8,-0.03l0 0.22c-0.26,0.06 -0.44,0.11 -0.52,0.16 -0.08,0.05 -0.17,0.15 -0.26,0.29 -0.06,0.09 -0.43,0.69 -1.11,1.81l0 1.11c0,0.18 0.01,0.29 0.03,0.34 0.02,0.04 0.06,0.07 0.11,0.1 0.04,0.02 0.18,0.05 0.44,0.1l0.11 0.02 0 0.23c-0.56,-0.03 -0.95,-0.04 -1.15,-0.04 -0.15,0 -0.55,0.01 -1.19,0.04l0 -0.23c0.06,-0.01 0.11,-0.02 0.15,-0.02 0.22,-0.03 0.36,-0.07 0.42,-0.1 0.04,-0.03 0.07,-0.06 0.09,-0.12 0.02,-0.05 0.03,-0.2 0.03,-0.45l0 -0.91c-0.14,-0.21 -0.34,-0.54 -0.6,-0.97 -0.35,-0.56 -0.56,-0.89 -0.63,-0.99 -0.08,-0.1 -0.15,-0.18 -0.23,-0.23 -0.08,-0.05 -0.22,-0.09 -0.43,-0.14zm7.13 0l0 -0.22c0.58,0.02 0.96,0.03 1.13,0.03 0.23,0 0.58,-0.01 1.04,-0.03l0 0.22c-0.25,0.07 -0.4,0.11 -0.43,0.14 -0.04,0.03 -0.06,0.07 -0.06,0.11 0,0.04 0.02,0.11 0.05,0.19l0.84 2.36 0.58 -1.58 0.3 -0.89c0.01,-0.03 0.01,-0.06 0.01,-0.08 0,-0.05 -0.02,-0.09 -0.08,-0.12 -0.01,0 -0.15,-0.04 -0.41,-0.13l0 -0.22c0.33,0.02 0.59,0.03 0.78,0.03 0.17,0 0.42,-0.01 0.75,-0.03l0 0.22c-0.21,0.05 -0.35,0.1 -0.41,0.15 -0.04,0.03 -0.08,0.07 -0.11,0.13 -0.03,0.06 -0.23,0.55 -0.6,1.47 -0.25,0.65 -0.57,1.48 -0.95,2.5l-0.29 0 -0.95 -2.49c-0.36,-0.9 -0.56,-1.4 -0.61,-1.48 -0.03,-0.05 -0.06,-0.09 -0.1,-0.11 -0.06,-0.05 -0.22,-0.1 -0.48,-0.17zm7.67 -0.22l0 0.22 -0.12 0.02c-0.27,0.04 -0.43,0.08 -0.48,0.13 -0.06,0.05 -0.08,0.14 -0.08,0.28l0 0.11 -0.02 1.04 0.01 1.18 0.01 0.6c0,0.18 0,0.29 0.02,0.33 0.02,0.05 0.05,0.08 0.09,0.11 0.08,0.03 0.23,0.07 0.45,0.11 0.03,0 0.07,0.01 0.12,0.02l0 0.23c-0.42,-0.03 -0.79,-0.04 -1.11,-0.04 -0.31,0 -0.71,0.01 -1.21,0.04l0 -0.23c0.32,-0.06 0.49,-0.1 0.52,-0.11 0.05,-0.02 0.09,-0.05 0.11,-0.08 0.03,-0.05 0.05,-0.15 0.05,-0.29 0.01,-0.34 0.01,-0.92 0.01,-1.75l-0.01 -1.12 0 -0.09c0,-0.17 -0.03,-0.27 -0.08,-0.32 -0.04,-0.05 -0.2,-0.1 -0.47,-0.14 -0.03,-0.01 -0.08,-0.01 -0.14,-0.03l0 -0.22c0.53,0.02 0.93,0.03 1.19,0.03 0.28,0 0.66,-0.01 1.14,-0.03zm0.85 0.22l0 -0.22c0.53,0.02 0.94,0.03 1.23,0.03 0.3,0 0.7,-0.01 1.2,-0.03l0 0.22c-0.42,0.07 -0.65,0.11 -0.69,0.13 -0.06,0.03 -0.09,0.12 -0.09,0.27l-0.01 0.79 0 2.57 1.12 0c0.19,0 0.31,-0.02 0.37,-0.04 0.09,-0.03 0.17,-0.1 0.25,-0.19 0.08,-0.09 0.22,-0.3 0.41,-0.63l0.28 0c-0.13,0.38 -0.27,0.8 -0.4,1.26 -0.88,-0.03 -1.6,-0.04 -2.18,-0.04 -0.48,0 -0.97,0.01 -1.49,0.04l0 -0.23c0.37,-0.07 0.57,-0.12 0.61,-0.15 0.03,-0.03 0.05,-0.08 0.06,-0.15 0.01,-0.07 0.02,-0.57 0.02,-1.48l0 -1.12 0 -0.2c0,-0.33 -0.01,-0.53 -0.04,-0.59 -0.01,-0.05 -0.04,-0.09 -0.08,-0.11 -0.04,-0.02 -0.23,-0.06 -0.57,-0.13zm4.98 0l0 -0.22c0.53,0.02 0.94,0.03 1.23,0.03 0.3,0 0.7,-0.01 1.2,-0.03l0 0.22c-0.42,0.07 -0.66,0.11 -0.69,0.13 -0.06,0.03 -0.09,0.12 -0.09,0.27l-0.02 0.79 0 2.57 1.13 0c0.19,0 0.31,-0.02 0.37,-0.04 0.09,-0.03 0.17,-0.1 0.25,-0.19 0.08,-0.09 0.21,-0.3 0.41,-0.63l0.28 0c-0.14,0.38 -0.27,0.8 -0.4,1.26 -0.88,-0.03 -1.61,-0.04 -2.19,-0.04 -0.47,0 -0.96,0.01 -1.48,0.04l0 -0.23c0.37,-0.07 0.57,-0.12 0.6,-0.15 0.04,-0.03 0.06,-0.08 0.07,-0.15 0.01,-0.07 0.01,-0.57 0.01,-1.48l0 -1.12 0 -0.2c0,-0.33 -0.01,-0.53 -0.03,-0.59 -0.02,-0.05 -0.04,-0.09 -0.08,-0.11 -0.04,-0.02 -0.23,-0.06 -0.57,-0.13zm7.68 4.16l0 -0.23c0.25,-0.05 0.4,-0.08 0.44,-0.11 0.04,-0.03 0.06,-0.07 0.06,-0.12 0,-0.03 -0.01,-0.06 -0.02,-0.1 -0.03,-0.09 -0.14,-0.35 -0.32,-0.78 -0.29,0 -0.53,0 -0.72,0 -0.16,0 -0.42,0 -0.79,0 -0.23,0.54 -0.35,0.84 -0.35,0.89 0,0.05 0.02,0.08 0.05,0.11 0.04,0.02 0.18,0.06 0.44,0.11l0 0.23c-0.26,-0.03 -0.51,-0.04 -0.74,-0.04 -0.26,0 -0.52,0.01 -0.78,0.04l0 -0.23c0.18,-0.04 0.31,-0.09 0.38,-0.13 0.05,-0.04 0.09,-0.09 0.13,-0.15 0.08,-0.13 0.32,-0.64 0.72,-1.51 0.25,-0.55 0.61,-1.37 1.08,-2.46l0.25 0c0.19,0.49 0.58,1.39 1.19,2.71 0.33,0.74 0.53,1.15 0.6,1.25 0.04,0.07 0.08,0.12 0.13,0.15 0.04,0.03 0.18,0.08 0.42,0.14l0 0.23c-0.36,-0.03 -0.7,-0.04 -1.01,-0.04 -0.31,0 -0.69,0.01 -1.16,0.04zm-0.58 -3.14l-0.62 1.45 0.6 0c0.14,0 0.35,0 0.62,0l-0.6 -1.45zm6.62 0.01l-0.31 0c-0.07,-0.4 -0.17,-0.66 -0.31,-0.79 -0.14,-0.14 -0.33,-0.2 -0.56,-0.2 -0.22,0 -0.38,0.05 -0.5,0.16 -0.12,0.11 -0.18,0.25 -0.18,0.42 0,0.15 0.06,0.29 0.17,0.41 0.11,0.13 0.37,0.29 0.77,0.47 0.41,0.19 0.7,0.38 0.86,0.59 0.16,0.21 0.24,0.46 0.24,0.77 0,0.37 -0.13,0.69 -0.41,0.97 -0.28,0.28 -0.73,0.42 -1.35,0.42 -0.22,0 -0.43,-0.02 -0.63,-0.05 -0.15,-0.02 -0.34,-0.07 -0.56,-0.14 0.04,-0.36 0.05,-0.72 0.05,-1.07l0 -0.21 0.31 0c0.08,0.41 0.18,0.69 0.29,0.82 0.15,0.19 0.37,0.28 0.64,0.28 0.21,0 0.39,-0.06 0.51,-0.19 0.14,-0.13 0.2,-0.3 0.2,-0.5 0,-0.13 -0.03,-0.24 -0.08,-0.34 -0.06,-0.1 -0.14,-0.19 -0.24,-0.27 -0.11,-0.08 -0.31,-0.18 -0.59,-0.32 -0.43,-0.2 -0.72,-0.4 -0.87,-0.59 -0.15,-0.19 -0.22,-0.41 -0.22,-0.67 0,-0.38 0.14,-0.69 0.42,-0.94 0.28,-0.25 0.68,-0.38 1.21,-0.38 0.35,0 0.73,0.07 1.14,0.2 -0.01,0.33 -0.02,0.55 -0.02,0.67 0,0.15 0.01,0.31 0.02,0.48z"></path><g><g>     <polygon fill="#EA9C30" fill-rule="nonzero" points="24.88,1.26 25.93,1.26 25.93,4.14 28.75,1.26 30.1,1.26 27.54,3.82 30.24,7.62 28.95,7.62 26.78,4.55 25.93,5.39 25.93,7.62 24.88,7.62 "></polygon>     <path fill="#EA9C30" fill-rule="nonzero" d="M31.49 1.26l3.83 0 0 0.93 -3.83 0 0 -0.93zm0 2.59l3.83 0 0 0.9 -3.83 0 0 -0.9zm0 2.82l3.85 0 0 0.95 -3.85 0 0 -0.95z"></path>     <polygon fill="#EA9C30" fill-rule="nonzero" points="36.56,1.26 37.87,1.26 39.43,4.15 40.93,1.26 42.15,1.26 39.97,5.11 39.97,7.62 38.9,7.62 38.9,5.16 "></polygon>     <polygon fill="#EA9C30" fill-rule="nonzero" points="69.92,1.26 74.49,1.26 74.49,2.19 70.97,2.19 70.97,3.85 74.22,3.85 74.22,4.75 70.97,4.75 70.97,6.67 74.61,6.67 74.61,7.62 69.92,7.62 "></polygon>     <polygon fill="#EA9C30" fill-rule="nonzero" points="63.07,1.26 64.2,1.26 67.16,6.02 67.16,1.26 68.19,1.26 68.19,7.62 67.07,7.62 64.09,2.86 64.09,7.62 63.07,7.62 "></polygon>     <path fill="#EA9C30" fill-rule="nonzero" d="M58.19 1.09c0.94,0 1.68,0.3 2.23,0.9 0.54,0.59 0.82,1.41 0.82,2.45 0,1.04 -0.28,1.86 -0.82,2.46 -0.55,0.6 -1.29,0.9 -2.23,0.9 -0.95,0 -1.7,-0.3 -2.24,-0.9 -0.55,-0.59 -0.82,-1.41 -0.82,-2.46 0,-1.04 0.27,-1.86 0.82,-2.45 0.54,-0.6 1.29,-0.9 2.24,-0.9zm0 0.92c-0.63,0 -1.11,0.21 -1.46,0.64 -0.35,0.43 -0.52,1.03 -0.52,1.79 0,0.77 0.17,1.36 0.52,1.79 0.35,0.43 0.83,0.65 1.46,0.65 0.61,0 1.09,-0.22 1.44,-0.65 0.35,-0.43 0.53,-1.02 0.53,-1.79 0,-0.76 -0.18,-1.36 -0.52,-1.79 -0.35,-0.43 -0.84,-0.64 -1.45,-0.64z"></path>     <polygon fill="#EA9C30" fill-rule="nonzero" points="49.13,1.26 54.11,1.26 54.11,2.19 52.15,2.19 52.15,7.62 51.1,7.62 51.1,2.19 49.13,2.19 "></polygon>     <path fill="#EA9C30" fill-rule="nonzero" d="M47.81 3.12l-1.01 0c-0.02,-0.36 -0.16,-0.64 -0.41,-0.85 -0.25,-0.2 -0.58,-0.3 -1,-0.3 -0.34,0 -0.63,0.08 -0.85,0.24 -0.22,0.16 -0.32,0.36 -0.32,0.6 0,0.24 0.09,0.44 0.28,0.59 0.2,0.16 0.6,0.31 1.22,0.47 0.94,0.24 1.55,0.49 1.84,0.77 0.28,0.28 0.43,0.66 0.43,1.16 0,0.6 -0.23,1.08 -0.68,1.44 -0.44,0.37 -1.04,0.55 -1.79,0.55 -0.79,0 -1.41,-0.19 -1.85,-0.57 -0.44,-0.38 -0.67,-0.93 -0.7,-1.64l1.02 0c0.03,0.41 0.19,0.73 0.47,0.96 0.28,0.22 0.66,0.34 1.14,0.34 0.37,0 0.66,-0.09 0.9,-0.27 0.23,-0.17 0.34,-0.39 0.34,-0.64 0,-0.1 -0.03,-0.22 -0.09,-0.35 -0.07,-0.13 -0.15,-0.23 -0.25,-0.33 -0.17,-0.15 -0.54,-0.3 -1.12,-0.44 -0.12,-0.03 -0.21,-0.05 -0.28,-0.07 -0.71,-0.19 -1.21,-0.42 -1.51,-0.71 -0.29,-0.29 -0.44,-0.69 -0.44,-1.19 0,-0.53 0.22,-0.96 0.65,-1.29 0.43,-0.33 1,-0.5 1.72,-0.5 0.69,0 1.25,0.18 1.66,0.55 0.41,0.36 0.62,0.86 0.63,1.48z"></path>     <path fill="#EA9C30" fill-rule="nonzero" d="M32.07 17.15c0,-0.05 -0.06,-0.06 -0.13,-0.06 -0.11,0 -0.28,-0.01 -0.53,-0.09 -0.25,-0.07 -0.34,-0.32 -0.41,-0.85l-0.77 -5.23c-0.03,-0.17 -0.08,-0.26 -0.15,-0.26 -0.08,0 -0.13,0.07 -0.19,0.21l-2.3 4.82 -2.31 -4.77c-0.11,-0.22 -0.16,-0.26 -0.23,-0.26 -0.06,0 -0.11,0.08 -0.14,0.22l-0.84 5.52c-0.04,0.28 -0.11,0.61 -0.34,0.66 -0.13,0.03 -0.19,0.03 -0.26,0.03 -0.08,0 -0.13,0.02 -0.13,0.06 0,0.07 0.07,0.09 0.15,0.09 0.27,0 0.68,-0.02 0.84,-0.02 0.15,0 0.53,0.02 0.89,0.02 0.12,0 0.2,-0.02 0.2,-0.09 0,-0.04 -0.06,-0.06 -0.13,-0.06 -0.08,0 -0.2,-0.01 -0.35,-0.04 -0.15,-0.04 -0.26,-0.11 -0.26,-0.27 0,-0.14 0.01,-0.25 0.03,-0.4l0.44 -3.37 0.03 0c0.3,0.64 0.8,1.7 0.88,1.88 0.1,0.24 0.77,1.53 0.97,1.92 0.14,0.25 0.22,0.42 0.3,0.42 0.08,0 0.12,-0.07 0.31,-0.47l1.84 -3.84 0.04 0 0.51 3.72c0.03,0.24 0,0.35 -0.05,0.36 -0.06,0.03 -0.09,0.05 -0.09,0.1 0,0.05 0.05,0.07 0.25,0.09 0.33,0.03 1.5,0.05 1.71,0.05 0.12,0 0.22,-0.02 0.22,-0.09zm6.46 0.01c0,-0.06 -0.04,-0.07 -0.11,-0.07 -0.1,0 -0.23,-0.01 -0.35,-0.04 -0.18,-0.04 -0.43,-0.16 -0.75,-0.92 -0.54,-1.28 -1.89,-4.73 -2.09,-5.2 -0.09,-0.19 -0.14,-0.27 -0.22,-0.27 -0.08,0 -0.13,0.1 -0.23,0.34l-2.12 5.31c-0.17,0.42 -0.33,0.71 -0.72,0.76 -0.07,0.01 -0.19,0.02 -0.27,0.02 -0.06,0 -0.1,0.02 -0.1,0.07 0,0.06 0.05,0.08 0.16,0.08 0.44,0 0.91,-0.02 1,-0.02 0.26,0 0.63,0.02 0.9,0.02 0.09,0 0.14,-0.02 0.14,-0.08 0,-0.05 -0.02,-0.07 -0.13,-0.07l-0.12 0c-0.26,0 -0.34,-0.11 -0.34,-0.26 0,-0.11 0.04,-0.31 0.13,-0.52l0.45 -1.21c0.02,-0.05 0.04,-0.07 0.08,-0.07l1.88 0c0.05,0 0.07,0.02 0.09,0.06l0.68 1.8c0.04,0.1 -0.02,0.17 -0.08,0.19 -0.08,0.01 -0.12,0.03 -0.12,0.08 0,0.06 0.1,0.06 0.25,0.06 0.68,0.02 1.3,0.02 1.6,0.02 0.32,0 0.39,-0.02 0.39,-0.08zm-2.92 -2.6c0.01,0.03 0,0.05 -0.05,0.05l-1.55 0c-0.04,0 -0.04,-0.02 -0.04,-0.06l0.78 -2.08c0.01,-0.03 0.03,-0.07 0.05,-0.07 0.03,0 0.04,0.04 0.05,0.07l0.76 2.09zm9.93 -3.64c0,-0.06 -0.08,-0.07 -0.19,-0.07 -0.42,0 -0.74,0.02 -0.83,0.02 -0.18,0 -0.59,-0.02 -1.02,-0.02 -0.13,0 -0.22,0.01 -0.22,0.07 0,0.06 0.03,0.08 0.13,0.08 0.12,0 0.32,0 0.45,0.05 0.2,0.09 0.28,0.25 0.29,0.76l0.08 3.8 -0.04 0c-0.15,-0.14 -1.29,-1.35 -1.86,-1.93 -1.24,-1.23 -2.52,-2.6 -2.62,-2.71 -0.15,-0.16 -0.22,-0.27 -0.32,-0.27 -0.08,0 -0.11,0.12 -0.11,0.29l-0.07 5.01c-0.01,0.73 -0.04,0.98 -0.26,1.05 -0.12,0.03 -0.27,0.04 -0.38,0.04 -0.09,0 -0.14,0.02 -0.14,0.07 0,0.07 0.08,0.08 0.19,0.08 0.44,0 0.83,-0.02 0.91,-0.02 0.16,0 0.5,0.02 1.05,0.02 0.12,0 0.19,-0.02 0.19,-0.08 0,-0.05 -0.05,-0.07 -0.14,-0.07 -0.14,0 -0.3,-0.01 -0.44,-0.06 -0.17,-0.06 -0.28,-0.28 -0.3,-0.94l-0.09 -3.55 0.03 0c0.15,0.16 1.09,1.22 2.01,2.13 0.88,0.87 1.96,1.98 2.49,2.49 0.1,0.09 0.2,0.18 0.29,0.18 0.08,0 0.11,-0.07 0.11,-0.26l0.09 -5.34c0.01,-0.47 0.08,-0.65 0.32,-0.71 0.1,-0.03 0.16,-0.03 0.25,-0.03 0.1,0 0.15,-0.02 0.15,-0.08zm4.8 4.62c0,-0.8 -0.38,-1.37 -1.39,-2.15l-0.24 -0.18c-0.7,-0.54 -0.89,-0.83 -0.89,-1.22 0,-0.51 0.38,-0.87 1,-0.87 0.55,0 0.8,0.25 0.92,0.41 0.18,0.22 0.22,0.49 0.22,0.56 0,0.1 0.03,0.15 0.09,0.15 0.07,0 0.09,-0.06 0.09,-0.25 0,-0.66 0.03,-0.9 0.03,-1.01 0,-0.06 -0.04,-0.09 -0.11,-0.11 -0.22,-0.06 -0.58,-0.14 -1.13,-0.14 -1.17,0 -1.95,0.67 -1.95,1.6 0,0.68 0.32,1.27 1.25,2l0.39 0.31c0.7,0.54 0.83,0.94 0.83,1.35 0,0.45 -0.37,0.96 -1.14,0.96 -0.52,0 -1.02,-0.23 -1.2,-0.85 -0.05,-0.14 -0.08,-0.32 -0.08,-0.43 0,-0.07 -0.01,-0.15 -0.09,-0.15 -0.06,0 -0.09,0.1 -0.1,0.22 0,0.14 -0.04,0.65 -0.04,1.11 0,0.19 0.03,0.23 0.16,0.29 0.37,0.16 0.75,0.22 1.24,0.22 0.44,0 0.92,-0.08 1.34,-0.35 0.61,-0.4 0.8,-0.98 0.8,-1.47zm3.99 1.62c0,-0.05 -0.04,-0.07 -0.13,-0.07 -0.13,0 -0.31,-0.02 -0.43,-0.04 -0.26,-0.03 -0.31,-0.18 -0.34,-0.41 -0.03,-0.36 -0.03,-1.03 -0.03,-1.85l0 -1.49c0,-1.28 0,-1.52 0.01,-1.79 0.02,-0.3 0.09,-0.44 0.32,-0.48 0.1,-0.02 0.17,-0.03 0.25,-0.03 0.08,0 0.13,-0.02 0.13,-0.08 0,-0.05 -0.06,-0.07 -0.17,-0.07 -0.32,0 -0.82,0.02 -1.03,0.02 -0.25,0 -0.78,-0.02 -1.1,-0.02 -0.14,0 -0.21,0.02 -0.21,0.07 0,0.06 0.05,0.08 0.14,0.08 0.1,0 0.21,0.01 0.3,0.03 0.19,0.05 0.27,0.19 0.29,0.48 0.02,0.27 0.02,0.51 0.02,1.79l0 1.49c0,0.82 0,1.49 -0.04,1.84 -0.03,0.25 -0.08,0.39 -0.25,0.42 -0.08,0.02 -0.18,0.04 -0.3,0.04 -0.11,0 -0.14,0.02 -0.14,0.07 0,0.06 0.06,0.08 0.17,0.08 0.34,0 0.87,-0.02 1.06,-0.02 0.23,0 0.77,0.02 1.32,0.02 0.1,0 0.16,-0.02 0.16,-0.08zm7.83 -3.27c0,-1.93 -1.31,-3.16 -3.42,-3.16 -2.54,0 -3.49,1.87 -3.49,3.31 0,1.5 0.98,3.32 3.41,3.32 2.14,0 3.5,-1.53 3.5,-3.47zm-1.19 0.32c0,2.44 -1.37,2.73 -1.96,2.73 -1.62,0 -2.6,-1.4 -2.6,-3.16 0,-2.1 1.11,-2.64 2.08,-2.64 1.39,0 2.48,1.17 2.48,3.07zm9.16 -3.29c0,-0.06 -0.09,-0.07 -0.2,-0.07 -0.41,0 -0.73,0.02 -0.82,0.02 -0.18,0 -0.59,-0.02 -1.03,-0.02 -0.12,0 -0.22,0.01 -0.22,0.07 0,0.06 0.04,0.08 0.14,0.08 0.12,0 0.32,0 0.45,0.05 0.2,0.09 0.28,0.25 0.28,0.76l0.09 3.8 -0.04 0c-0.15,-0.14 -1.29,-1.35 -1.86,-1.93 -1.24,-1.23 -2.52,-2.6 -2.62,-2.71 -0.15,-0.16 -0.22,-0.27 -0.32,-0.27 -0.08,0 -0.11,0.12 -0.11,0.29l-0.07 5.01c-0.01,0.73 -0.05,0.98 -0.27,1.05 -0.11,0.03 -0.27,0.04 -0.38,0.04 -0.08,0 -0.13,0.02 -0.13,0.07 0,0.07 0.07,0.08 0.18,0.08 0.44,0 0.84,-0.02 0.92,-0.02 0.16,0 0.5,0.02 1.05,0.02 0.11,0 0.19,-0.02 0.19,-0.08 0,-0.05 -0.05,-0.07 -0.14,-0.07 -0.14,0 -0.3,-0.01 -0.44,-0.06 -0.17,-0.06 -0.28,-0.28 -0.3,-0.94l-0.09 -3.55 0.02 0c0.16,0.16 1.09,1.22 2.02,2.13 0.88,0.87 1.96,1.98 2.49,2.49 0.09,0.09 0.19,0.18 0.29,0.18 0.07,0 0.11,-0.07 0.11,-0.26l0.09 -5.34c0.01,-0.47 0.08,-0.65 0.31,-0.71 0.1,-0.03 0.17,-0.03 0.26,-0.03 0.1,0 0.15,-0.02 0.15,-0.08zm4.79 4.62c0,-0.8 -0.37,-1.37 -1.38,-2.15l-0.24 -0.18c-0.7,-0.54 -0.9,-0.83 -0.9,-1.22 0,-0.51 0.38,-0.87 1.01,-0.87 0.55,0 0.79,0.25 0.92,0.41 0.18,0.22 0.22,0.49 0.22,0.56 0,0.1 0.03,0.15 0.09,0.15 0.06,0 0.09,-0.06 0.09,-0.25 0,-0.66 0.03,-0.9 0.03,-1.01 0,-0.06 -0.04,-0.09 -0.12,-0.11 -0.22,-0.06 -0.57,-0.14 -1.12,-0.14 -1.18,0 -1.95,0.67 -1.95,1.6 0,0.68 0.32,1.27 1.25,2l0.39 0.31c0.7,0.54 0.83,0.94 0.83,1.35 0,0.45 -0.38,0.96 -1.14,0.96 -0.52,0 -1.02,-0.23 -1.21,-0.85 -0.04,-0.14 -0.07,-0.32 -0.07,-0.43 0,-0.07 -0.01,-0.15 -0.09,-0.15 -0.07,0 -0.09,0.1 -0.1,0.22 -0.01,0.14 -0.04,0.65 -0.04,1.11 0,0.19 0.02,0.23 0.16,0.29 0.36,0.16 0.74,0.22 1.23,0.22 0.45,0 0.93,-0.08 1.35,-0.35 0.61,-0.4 0.79,-0.98 0.79,-1.47z"></path>     <polygon fill="#EA9C30" fill-rule="nonzero" points="74.64,9.53 12.56,9.53 12.56,9.19 74.64,9.19 "></polygon>     <path fill="#EA9C30" fill-rule="nonzero" d="M8.21 8.25l0 -1.27 1.1 -1.1 1.11 1.1 0 1.27 1.27 0 1.1 1.11 -1.1 1.1 -1.27 0 0 1.27 -1.11 1.11 -1.1 -1.11 0 -1.27 -1.27 0 -1.1 -1.1 1.1 -1.11 1.27 0zm0.34 -1.13l0 1.47 -1.47 0 -0.77 0.77 0.77 0.76 1.47 0 0 1.47 0.76 0.77 0.77 -0.77 0 -1.47 1.47 0 0.77 -0.76 -0.77 -0.77 -1.47 0 0 -1.47 -0.77 -0.77 -0.76 0.77z"></path><g><path fill="#EA9C30" fill-rule="nonzero" d="M4.12 8.34l-1.13 -1.12 -1.59 0 -0.16 0 0 -0.16 0 -1.6 -1.13 -1.12 -0.11 -0.11 0.11 -0.11 1.13 -1.13 0 -1.59 0 -0.16 0.16 0 1.59 0 1.13 -1.13 0.11 -0.11 0.11 0.11 1.12 1.13 1.6 0 0.16 0 0 0.16 0 1.59 1.12 1.13 0.11 0.11 -0.11 0.11 -1.12 1.12 0 1.6 0 0.16 -0.16 0 -1.6 0 -1.12 1.12 -0.11 0.11 -0.11 -0.11zm-0.95 -1.39l1.06 1.06 1.06 -1.06 0.04 -0.05 0.07 0 1.5 0 0 -1.5 0 -0.07 0.05 -0.04 1.06 -1.06 -1.06 -1.06 -0.05 -0.05 0 -0.07 0 -1.5 -1.5 0 -0.07 0 -0.04 -0.04 -1.06 -1.06 -1.06 1.06 -0.05 0.04 -0.07 0 -1.5 0 0 1.5 0 0.07 -0.04 0.05 -1.06 1.06 1.06 1.06 0.04 0.04 0 0.07 0 1.5 1.5 0 0.07 0 0.05 0.05z"></path><path fill="#EA9C30" fill-rule="nonzero" d="M14.26 8.34l-1.13 -1.12 -1.59 0 -0.16 0 0 -0.16 0 -1.6 -1.12 -1.12 -0.12 -0.11 0.12 -0.11 1.12 -1.13 0 -1.59 0 -0.16 0.16 0 1.59 0 1.13 -1.13 0.11 -0.11 0.11 0.11 1.13 1.13 1.59 0 0.16 0 0 0.16 0 1.59 1.13 1.13 0.11 0.11 -0.11 0.11 -1.13 1.12 0 1.6 0 0.16 -0.16 0 -1.59 0 -1.13 1.12 -0.11 0.11 -0.11 -0.11zm-0.95 -1.39l1.06 1.06 1.06 -1.06 0.05 -0.05 0.06 0 1.5 0 0 -1.5 0 -0.07 0.05 -0.04 1.06 -1.06 -1.06 -1.06 -0.05 -0.05 0 -0.07 0 -1.5 -1.5 0 -0.06 0 -0.05 -0.04 -1.06 -1.06 -1.06 1.06 -0.05 0.04 -0.06 0 -1.5 0 0 1.5 0 0.07 -0.05 0.05 -1.06 1.06 1.06 1.06 0.05 0.04 0 0.07 0 1.5 1.5 0 0.06 0 0.05 0.05z"></path><path fill="#EA9C30" fill-rule="nonzero" d="M4.12 18.45l-1.13 -1.13 -1.59 0 -0.16 0 0 -0.16 0 -1.59 -1.13 -1.13 -0.11 -0.11 0.11 -0.11 1.13 -1.13 0 -1.59 0 -0.16 0.16 0 1.59 0 1.13 -1.12 0.11 -0.12 0.11 0.12 1.12 1.12 1.6 0 0.16 0 0 0.16 0 1.59 1.12 1.13 0.11 0.11 -0.11 0.11 -1.12 1.13 0 1.59 0 0.16 -0.16 0 -1.6 0 -1.12 1.13 -0.11 0.11 -0.11 -0.11zm-0.95 -1.4l1.06 1.06 1.06 -1.06 0.04 -0.05 0.07 0 1.5 0 0 -1.5 0 -0.06 0.05 -0.05 1.06 -1.06 -1.06 -1.06 -0.05 -0.05 0 -0.06 0 -1.5 -1.5 0 -0.07 0 -0.04 -0.05 -1.06 -1.06 -1.06 1.06 -0.05 0.05 -0.07 0 -1.5 0 0 1.5 0 0.06 -0.04 0.05 -1.06 1.06 1.06 1.06 0.04 0.05 0 0.06 0 1.5 1.5 0 0.07 0 0.05 0.05z"></path><path fill="#EA9C30" fill-rule="nonzero" d="M14.26 18.45l-1.13 -1.13 -1.59 0 -0.16 0 0 -0.16 0 -1.59 -1.12 -1.13 -0.12 -0.11 0.12 -0.11 1.12 -1.13 0 -1.59 0 -0.16 0.16 0 1.59 0 1.13 -1.12 0.11 -0.12 0.11 0.12 1.13 1.12 1.59 0 0.16 0 0 0.16 0 1.59 1.13 1.13 0.11 0.11 -0.11 0.11 -1.13 1.13 0 1.59 0 0.16 -0.16 0 -1.59 0 -1.13 1.13 -0.11 0.11 -0.11 -0.11zm-0.95 -1.4l1.06 1.06 1.06 -1.06 0.05 -0.05 0.06 0 1.5 0 0 -1.5 0 -0.06 0.05 -0.05 1.06 -1.06 -1.06 -1.06 -0.05 -0.05 0 -0.06 0 -1.5 -1.5 0 -0.06 0 -0.05 -0.05 -1.06 -1.06 -1.06 1.06 -0.05 0.05 -0.06 0 -1.5 0 0 1.5 0 0.06 -0.05 0.05 -1.06 1.06 1.06 1.06 0.05 0.05 0 0.06 0 1.5 1.5 0 0.06 0 0.05 0.05z"></path></g></g><path fill="#EA9C30" fill-rule="nonzero" d="M83.2 7.3c0,-3.5 0,-4.12 0.04,-4.84 0.04,-0.79 0.19,-1.17 0.71,-1.28 0.23,-0.04 0.35,-0.07 0.49,-0.07 0.07,0 0.15,-0.04 0.15,-0.13 0,-0.14 -0.1,-0.18 -0.31,-0.18 -0.58,0 -1.8,0.07 -1.89,0.07 -0.1,0 -1.32,-0.07 -1.95,-0.07 -0.22,0 -0.31,0.04 -0.31,0.18 0,0.09 0.07,0.13 0.15,0.13 0.14,0 0.39,0.03 0.6,0.09 0.42,0.11 0.62,0.5 0.66,1.26 0.04,0.72 0.04,1.34 0.04,4.84l0 3.95c0,2.16 0,3.93 -0.1,4.87 -0.08,0.65 -0.18,1.15 -0.56,1.24 -0.18,0.04 -0.41,0.08 -0.58,0.08 -0.12,0 -0.16,0.07 -0.16,0.14 0,0.13 0.1,0.18 0.31,0.18 0.58,0 1.8,-0.07 1.9,-0.07 0.09,0 1.31,0.07 2.37,0.07 0.22,0 0.31,-0.07 0.31,-0.18 0,-0.07 -0.04,-0.14 -0.15,-0.14 -0.18,0 -0.6,-0.04 -0.87,-0.08 -0.58,-0.09 -0.7,-0.59 -0.75,-1.24 -0.1,-0.94 -0.1,-2.71 -0.1,-4.87l0 -3.95zm5.46 0c0,-3.5 0,-4.12 0.04,-4.84 0.04,-0.79 0.19,-1.17 0.71,-1.28 0.24,-0.04 0.35,-0.07 0.49,-0.07 0.08,0 0.15,-0.04 0.15,-0.13 0,-0.14 -0.09,-0.18 -0.31,-0.18 -0.58,0 -1.79,0.07 -1.89,0.07 -0.1,0 -1.31,-0.07 -1.95,-0.07 -0.21,0 -0.31,0.04 -0.31,0.18 0,0.09 0.08,0.13 0.15,0.13 0.14,0 0.39,0.03 0.6,0.09 0.43,0.11 0.62,0.5 0.66,1.26 0.04,0.72 0.04,1.34 0.04,4.84l0 3.95c0,2.16 0,3.93 -0.1,4.87 -0.08,0.65 -0.17,1.15 -0.56,1.24 -0.17,0.04 -0.4,0.08 -0.58,0.08 -0.11,0 -0.15,0.07 -0.15,0.14 0,0.13 0.09,0.18 0.31,0.18 0.58,0 1.79,-0.07 1.89,-0.07 0.1,0 1.31,0.07 2.38,0.07 0.21,0 0.31,-0.07 0.31,-0.18 0,-0.07 -0.04,-0.14 -0.16,-0.14 -0.17,0 -0.6,-0.04 -0.87,-0.08 -0.58,-0.09 -0.69,-0.59 -0.75,-1.24 -0.1,-0.94 -0.1,-2.71 -0.1,-4.87l0 -3.95zm-9.58 2.25l-1.87 0 0 -0.36 1.87 0 0 0.36z"></path></g></g></g></svg>