<svg xmlns="http://www.w3.org/2000/svg" xmlns:xlink="http://www.w3.org/1999/xlink" xmlns:serif="http://www.serif.com/" width="100%" height="100%" viewBox="0 0 1610 1654" xml:space="preserve" style="fill-rule:evenodd;clip-rule:evenodd;stroke-linejoin:round;stroke-miterlimit:2;"><path d="M948.162,377.906c-57.15,55.092 -89.891,129.75 -89.891,209.292c-0,79.558 32.741,154.208 89.891,209.308c28.042,27.033 61.109,48.442 97.117,63.15c-63.992,18.808 -123.008,52.358 -171.458,98.375c-38.875,36.933 -70.275,81.25 -91.492,130.533l-0.717,1.675c1.084,-0.758 2.159,-1.525 3.267,-2.266c14.667,-9.892 34.308,-18.109 56.242,-24.85c16.716,-27.809 37.233,-53.242 60.766,-75.584c71.859,-68.25 167.584,-104.691 266.417,-104.691c98.842,-0 194.567,36.45 266.425,104.691c69.45,65.959 109.808,155.5 109.808,251.592c0,96.092 -40.35,185.633 -109.808,251.583c-71.858,68.25 -167.583,104.692 -266.425,104.692c-98.833,-0 -194.567,-36.442 -266.425,-104.692c-32.633,-30.983 -59.4,-67.8 -78.3,-108.641c-12.8,4.941 -25.883,10.625 -36.942,17.241c21.075,45.434 50.859,86.425 87.184,120.925c79.441,75.442 185.183,115.959 294.483,115.959c109.317,-0 215.05,-40.517 294.492,-115.959c77.575,-73.683 122.525,-173.8 122.525,-281.108c-0,-107.308 -44.959,-207.425 -122.534,-281.1c-49.683,-47.183 -110.458,-81.258 -176.308,-99.775c34.717,-14.65 66.592,-35.575 93.75,-61.75c57.15,-55.1 89.9,-129.75 89.9,-209.308c-0,-79.542 -32.75,-154.2 -89.9,-209.292c-58.058,-55.958 -135.533,-86.35 -216.033,-86.35c-80.509,-0 -157.984,30.392 -216.034,86.35Zm28.25,389.267c-49.166,-47.384 -77.358,-111.534 -77.358,-179.975c-0,-68.425 28.192,-132.575 77.358,-179.959c50.459,-48.65 117.842,-74.9 187.784,-74.9c69.933,0 137.333,26.25 187.783,74.9c49.167,47.384 77.367,111.534 77.367,179.959c-0,68.441 -28.2,132.591 -77.367,179.975c-50.45,48.633 -117.842,74.891 -187.783,74.891c-69.942,0 -137.325,-26.258 -187.784,-74.891Z" style="fill:url(#_Linear1);fill-rule:nonzero;"></path><path d="M700.954,320.781l-690.567,1005.38c-6.358,9.275 -3.941,22 5.342,28.325c3.367,2.283 7.317,3.517 11.383,3.567l654.6,-0c0.1,-13.375 0.442,-27.025 1.2,-40.784l-617,0l632.117,-920.333l-0,820.283c8.625,-31.083 21.558,-60.4 40.783,-85.658l0,-800.267c0,-11.258 -9.133,-20.408 -20.383,-20.408c-7.208,-0 -13.8,3.7 -17.475,9.9Z" style="fill:url(#_Linear2);fill-rule:nonzero;"></path><path d="M14.06,4.525l28.3,0l-0,77.308l75.641,-77.308l36.3,0l-68.925,68.717l72.775,102.233l-34.675,0l-58.258,-82.508l-22.858,22.633l-0,59.875l-28.3,0l-0,-170.95Zm211.325,0l103.025,0l-0,24.967l-103.025,-0l-0,-24.967Zm-0,69.658l102.833,0l0,24.009l-102.833,-0l-0,-24.009Zm-0,75.609l103.316,-0l0,25.683l-103.316,0l-0,-25.683Zm170.558,-145.267l35.267,0l41.758,77.742l40.383,-77.742l32.859,0l-58.725,103.425l-0,67.525l-28.534,0l0,-66.258l-63.008,-104.692Zm1056.38,-0l122.65,-0l0,24.967l-94.592,-0l0,44.691l87.259,0l-0,24.025l-87.259,0l0,51.584l97.717,-0l0,25.683l-125.775,0l0,-170.95Zm-204.667,0l30.192,0l79.65,127.867l0,-127.867l27.583,0l0,170.95l-29.95,0l-80.125,-127.875l0,127.875l-27.35,0l0,-170.95Zm-149.191,20.2c-16.684,-0 -29.692,5.75 -39.042,17.25c-9.383,11.483 -14.058,27.533 -14.058,48.15c-0,20.517 4.675,36.533 14.058,48.058c9.35,11.534 22.358,17.317 39.042,17.317c16.558,0 29.508,-5.783 38.866,-17.317c9.392,-11.525 14.084,-27.541 14.084,-48.058c-0,-20.617 -4.692,-36.667 -14,-48.15c-9.35,-11.5 -22.309,-17.25 -38.95,-17.25m-0,-24.725c25.35,0 45.375,8.058 59.991,24.1c14.634,16.05 21.959,38.075 21.959,66.025c-0,27.933 -7.325,49.958 -21.959,66c-14.616,16.05 -34.641,24.1 -59.991,24.1c-25.484,0 -45.525,-8.008 -60.159,-24.05c-14.625,-16.008 -21.95,-38.042 -21.95,-66.05c0,-28.025 7.325,-50.067 21.95,-66.058c14.634,-16.059 34.675,-24.067 60.159,-24.067m-282.975,4.525l133.633,0l0,24.967l-52.55,-0l0,145.983l-28.292,0l0,-145.983l-52.791,-0l-0,-24.967Zm-71.984,49.892l-27.108,0.108c-0.633,-9.658 -4.292,-17.233 -10.975,-22.742c-6.7,-5.5 -15.65,-8.241 -26.875,-8.241c-9.267,-0 -16.875,2.183 -22.742,6.5c-5.9,4.316 -8.841,9.716 -8.841,16.133c-0,6.492 2.583,11.8 7.758,15.967c5.208,4.116 16.108,8.316 32.667,12.608c25.166,6.333 41.608,13.183 49.291,20.633c7.734,7.409 11.567,17.792 11.567,31.109c0,16.091 -6.008,29.008 -18.067,38.8c-12,9.783 -28.091,14.7 -48.225,14.7c-21.191,-0 -37.725,-5.117 -49.533,-15.342c-11.8,-10.175 -18.108,-24.883 -18.967,-44.1l27.575,0c0.792,11.1 4.95,19.65 12.475,25.8c7.575,6.1 17.792,9.15 30.75,9.15c9.75,0 17.759,-2.375 23.967,-7.1c6.233,-4.708 9.358,-10.492 9.358,-17.4c0,-2.683 -0.866,-5.783 -2.616,-9.217c-1.742,-3.45 -4,-6.391 -6.692,-8.883c-4.475,-4.083 -14.467,-8.042 -29.958,-11.85c-3.342,-0.825 -5.825,-1.467 -7.534,-1.867c-19.091,-5.025 -32.608,-11.408 -40.5,-19.216c-7.883,-7.759 -11.833,-18.35 -11.833,-31.767c0,-14.233 5.775,-25.842 17.35,-34.758c11.558,-8.967 26.95,-13.442 46.158,-13.442c18.659,0 33.525,4.917 44.667,14.708c11.092,9.834 16.717,23.059 16.883,39.709" style="fill:#6e6e6e;"></path><path d="M1000.03,1053.97c-56.192,2.867 -160.067,16.917 -205.85,47.792c-84.25,56.833 -95.725,169.075 -95.858,262.267l-0.184,141.367l0,110.183c0,11.208 9.109,20.316 20.309,20.316c11.216,0 20.316,-9.108 20.316,-20.316l-0.058,-1.4c0.125,-55.45 0.433,-110.984 0.442,-166.6c-0,-14.7 3.533,-28.142 12.391,-40.009c21.05,-28.225 71.659,-42.641 103.659,-54.75c23.583,-8.933 47.925,-19.283 67.825,-35.041c35.633,-28.225 53.191,-61.067 67.166,-103.959c15.15,-46.508 18.575,-104.166 17.117,-153.133l-0.208,-7.083l-7.067,0.366Zm-247.283,216.567c9.908,-16.233 25.925,-25.866 43.2,-32.783c13.333,-5.333 36.558,-9.609 53.141,-10.358c0.259,16.891 -3.4,40.45 -8.066,54.55c-17.85,53.958 -59.842,50.058 -98.55,76.516c-1.417,0.967 -2.759,2.075 -4.05,3.25c-0.134,-29.908 0.35,-68.283 14.325,-91.175Z" style="fill:url(#_Linear3);fill-rule:nonzero;"></path><defs><linearGradient id="_Linear1" x1="0" y1="0" x2="1" y2="0" gradientUnits="userSpaceOnUse" gradientTransform="matrix(-228.57,241.194,-241.194,-228.57,1423.43,719.27)"><stop offset="0" style="stop-color:#b36636;stop-opacity:1"></stop><stop offset="0.6" style="stop-color:#f7b278;stop-opacity:1"></stop><stop offset="1" style="stop-color:#b36636;stop-opacity:1"></stop></linearGradient><linearGradient id="_Linear2" x1="0" y1="0" x2="1" y2="0" gradientUnits="userSpaceOnUse" gradientTransform="matrix(-340.956,706.091,-706.091,-340.956,741.832,522.206)"><stop offset="0" style="stop-color:#b36636;stop-opacity:1"></stop><stop offset="0.6" style="stop-color:#f7b278;stop-opacity:1"></stop><stop offset="1" style="stop-color:#b36636;stop-opacity:1"></stop></linearGradient><linearGradient id="_Linear3" x1="0" y1="0" x2="1" y2="0" gradientUnits="userSpaceOnUse" gradientTransform="matrix(-291.931,575.915,-575.915,-291.931,949.263,1024.44)"><stop offset="0" style="stop-color:#b36636;stop-opacity:1"></stop><stop offset="0.45" style="stop-color:#f7b278;stop-opacity:1"></stop><stop offset="1" style="stop-color:#b36636;stop-opacity:1"></stop></linearGradient></defs></svg>