<svg xmlns="http://www.w3.org/2000/svg" xmlns:xlink="http://www.w3.org/1999/xlink" xml:space="preserve" width="300px" height="136px" style="shape-rendering:geometricPrecision; text-rendering:geometricPrecision; image-rendering:optimizeQuality; fill-rule:evenodd; clip-rule:evenodd" viewBox="0 0 53.03 24.04">  <defs>    <style type="text/css">.fil0 {fill:#2E4373;fill-rule:nonzero}</style>  </defs>  <g id="Layer_x0020_1"><metadata id="Keystone_Skyvillas"></metadata><path class="fil0" d="M6.05 15.8l3.52 0 0 0.87 -3.52 0 0 -0.87zm-1.27 -4.95l-1.24 0 -2.57 2.63 0 -2.63 -0.97 0 0 5.82 0.97 0 0 -2.04 0.78 -0.77 1.98 2.81 1.18 0 -2.48 -3.48 2.35 -2.34zm1.27 0.85l3.51 0 0 -0.85 -3.51 0 0 0.85zm0 2.34l3.51 0 0 -0.82 -3.51 0 0 0.82zm7.27 -0.55l-1.43 -2.64 -1.19 0 2.14 3.56 0 2.26 0.98 0 0 -2.3 2 -3.52 -1.12 0 -1.38 2.64zm28.88 2.31l0 -1.76 2.98 0 0 -0.82 -2.98 0 0 -1.52 3.23 0 0 -0.85 -4.18 0 0 5.82 4.28 0 0 -0.87 -3.33 0zm-3.48 -0.6l-2.72 -4.35 -1.02 0 0 5.82 0.92 0 0 -4.36 2.74 4.36 1.02 0 0 -5.82 -0.94 0 0 4.35zm-6.9 0.2c-0.31,0.4 -0.76,0.59 -1.32,0.59 -0.57,0 -1.01,-0.19 -1.33,-0.59 -0.32,-0.39 -0.48,-0.94 -0.48,-1.64 0,-0.7 0.16,-1.25 0.48,-1.64 0.32,-0.39 0.76,-0.59 1.33,-0.59 0.57,0 1.01,0.2 1.33,0.59 0.32,0.39 0.47,0.94 0.47,1.64 0,0.7 -0.15,1.25 -0.48,1.64zm-1.32 -4.71l0 0c-0.87,0 -1.55,0.28 -2.05,0.82 -0.5,0.55 -0.75,1.3 -0.75,2.25 0,0.96 0.25,1.71 0.75,2.26 0.5,0.54 1.18,0.82 2.05,0.82 0.86,0 1.54,-0.28 2.04,-0.83 0.5,-0.54 0.75,-1.29 0.75,-2.25 0,-0.95 -0.25,-1.7 -0.75,-2.25 -0.5,-0.54 -1.18,-0.82 -2.04,-0.82zm-8.29 1.01l1.8 0 0 4.97 0.97 0 0 -4.97 1.78 0 0 -0.85 -4.55 0 0 0.85zm-3.13 1.54c-0.56,-0.15 -0.93,-0.29 -1.11,-0.43 -0.18,-0.14 -0.26,-0.32 -0.26,-0.54 0,-0.23 0.1,-0.41 0.3,-0.56 0.2,-0.14 0.46,-0.22 0.77,-0.22 0.39,0 0.69,0.1 0.92,0.29 0.22,0.18 0.35,0.44 0.37,0.77l0.93 0c-0.01,-0.57 -0.2,-1.03 -0.58,-1.36 -0.38,-0.33 -0.88,-0.5 -1.52,-0.5 -0.65,0 -1.18,0.15 -1.58,0.46 -0.39,0.3 -0.59,0.7 -0.59,1.18 0,0.46 0.14,0.82 0.41,1.09 0.27,0.26 0.73,0.48 1.38,0.65 0.06,0.02 0.14,0.04 0.25,0.06 0.53,0.14 0.87,0.27 1.03,0.41 0.09,0.08 0.16,0.18 0.23,0.3 0.05,0.12 0.08,0.22 0.08,0.32 0,0.23 -0.1,0.43 -0.32,0.59 -0.21,0.16 -0.48,0.24 -0.81,0.24 -0.44,0 -0.79,-0.1 -1.05,-0.31 -0.26,-0.21 -0.4,-0.5 -0.42,-0.88l-0.95 0c0.03,0.66 0.25,1.15 0.65,1.5 0.4,0.35 0.97,0.53 1.69,0.53 0.69,0 1.23,-0.17 1.64,-0.51 0.41,-0.33 0.62,-0.77 0.62,-1.32 0,-0.45 -0.13,-0.8 -0.4,-1.06 -0.26,-0.25 -0.82,-0.48 -1.68,-0.7zm-13.03 10.02l0.52 -0.77c0.26,0.17 0.52,0.32 0.78,0.45 0.27,0.12 0.55,0.19 0.84,0.19 0.16,0 0.3,-0.02 0.42,-0.06 0.12,-0.04 0.22,-0.09 0.3,-0.15 0.08,-0.07 0.14,-0.14 0.19,-0.22 0.04,-0.08 0.06,-0.16 0.06,-0.23 0,-0.1 -0.03,-0.19 -0.1,-0.26 -0.06,-0.07 -0.14,-0.13 -0.24,-0.18 -0.11,-0.04 -0.23,-0.08 -0.37,-0.11 -0.14,-0.03 -0.28,-0.06 -0.43,-0.09 -0.1,-0.02 -0.22,-0.04 -0.35,-0.07 -0.14,-0.02 -0.27,-0.06 -0.42,-0.1 -0.14,-0.04 -0.28,-0.1 -0.41,-0.17 -0.14,-0.07 -0.27,-0.16 -0.38,-0.27 -0.11,-0.11 -0.19,-0.24 -0.26,-0.38 -0.07,-0.15 -0.1,-0.33 -0.1,-0.53 0,-0.29 0.06,-0.54 0.18,-0.73 0.12,-0.2 0.27,-0.35 0.46,-0.46 0.18,-0.11 0.39,-0.19 0.61,-0.24 0.23,-0.04 0.45,-0.07 0.66,-0.07 0.21,0 0.4,0.02 0.56,0.04 0.17,0.03 0.32,0.07 0.46,0.12 0.14,0.06 0.28,0.12 0.42,0.2 0.13,0.08 0.28,0.18 0.44,0.29l-0.54 0.75c-0.24,-0.16 -0.47,-0.29 -0.69,-0.37 -0.22,-0.09 -0.45,-0.13 -0.69,-0.13 -0.08,0 -0.18,0.01 -0.28,0.03 -0.11,0.02 -0.21,0.05 -0.3,0.1 -0.1,0.04 -0.17,0.1 -0.24,0.17 -0.06,0.07 -0.09,0.16 -0.09,0.26 0,0.1 0.04,0.18 0.11,0.25 0.08,0.07 0.17,0.13 0.28,0.17 0.12,0.05 0.24,0.09 0.38,0.12 0.14,0.03 0.27,0.07 0.4,0.1 0.1,0.02 0.21,0.04 0.34,0.07 0.13,0.02 0.27,0.05 0.41,0.09 0.13,0.04 0.27,0.1 0.41,0.17 0.14,0.07 0.26,0.15 0.37,0.26 0.11,0.11 0.19,0.24 0.26,0.4 0.06,0.16 0.1,0.35 0.1,0.57 0,0.26 -0.05,0.49 -0.14,0.68 -0.09,0.2 -0.22,0.36 -0.39,0.48 -0.17,0.13 -0.37,0.22 -0.6,0.29 -0.24,0.06 -0.5,0.09 -0.78,0.09 -0.26,0 -0.49,-0.02 -0.69,-0.06 -0.2,-0.03 -0.38,-0.09 -0.55,-0.15 -0.16,-0.07 -0.32,-0.15 -0.46,-0.24 -0.15,-0.09 -0.3,-0.19 -0.46,-0.3zm35.42 0l0.52 -0.77c0.25,0.17 0.51,0.32 0.78,0.45 0.27,0.12 0.55,0.19 0.84,0.19 0.16,0 0.29,-0.02 0.41,-0.06 0.12,-0.04 0.22,-0.09 0.31,-0.15 0.08,-0.07 0.14,-0.14 0.18,-0.22 0.04,-0.08 0.06,-0.15 0.06,-0.23 0,-0.1 -0.03,-0.19 -0.09,-0.26 -0.06,-0.07 -0.14,-0.13 -0.25,-0.18 -0.1,-0.04 -0.22,-0.08 -0.36,-0.11 -0.14,-0.03 -0.29,-0.06 -0.44,-0.09 -0.1,-0.02 -0.21,-0.04 -0.35,-0.07 -0.13,-0.02 -0.27,-0.06 -0.41,-0.1 -0.14,-0.04 -0.28,-0.1 -0.42,-0.17 -0.14,-0.07 -0.26,-0.16 -0.37,-0.27 -0.11,-0.11 -0.2,-0.24 -0.26,-0.38 -0.07,-0.15 -0.1,-0.33 -0.1,-0.53 0,-0.29 0.06,-0.54 0.18,-0.73 0.11,-0.2 0.27,-0.35 0.45,-0.46 0.19,-0.11 0.39,-0.19 0.62,-0.24 0.23,-0.04 0.45,-0.07 0.66,-0.07 0.21,0 0.39,0.02 0.56,0.04 0.16,0.03 0.32,0.07 0.46,0.12 0.14,0.06 0.28,0.12 0.42,0.2 0.13,0.08 0.28,0.18 0.43,0.29l-0.53 0.75c-0.24,-0.16 -0.47,-0.29 -0.69,-0.37 -0.22,-0.09 -0.45,-0.13 -0.69,-0.13 -0.09,0 -0.18,0.01 -0.29,0.03 -0.1,0.02 -0.2,0.05 -0.3,0.1 -0.09,0.04 -0.17,0.1 -0.23,0.17 -0.06,0.07 -0.09,0.16 -0.09,0.26 0,0.1 0.04,0.18 0.11,0.25 0.07,0.07 0.17,0.13 0.28,0.17 0.11,0.05 0.24,0.09 0.38,0.12 0.14,0.03 0.27,0.07 0.4,0.1 0.09,0.02 0.21,0.04 0.34,0.07 0.13,0.02 0.26,0.05 0.4,0.09 0.14,0.04 0.28,0.1 0.42,0.17 0.13,0.07 0.26,0.15 0.36,0.26 0.11,0.11 0.2,0.24 0.27,0.4 0.06,0.16 0.09,0.35 0.09,0.57 0,0.26 -0.04,0.49 -0.13,0.68 -0.09,0.2 -0.22,0.36 -0.39,0.48 -0.17,0.13 -0.37,0.22 -0.61,0.29 -0.23,0.06 -0.49,0.09 -0.77,0.09 -0.27,0 -0.5,-0.02 -0.7,-0.06 -0.19,-0.03 -0.38,-0.09 -0.54,-0.15 -0.17,-0.07 -0.32,-0.15 -0.47,-0.24 -0.14,-0.09 -0.3,-0.19 -0.45,-0.3zm-27.66 0.77l-2.2 -2.38 0 2.38 -1 0 0 -5.24 1 0 0 2.67 2.09 -2.66 1.23 0 -2.16 2.71 2.37 2.52 -1.33 0zm6.35 -5.23c-0.13,0.22 -0.29,0.47 -0.46,0.75 -0.17,0.28 -0.35,0.57 -0.53,0.86 -0.18,0.3 -0.36,0.58 -0.54,0.87 -0.18,0.28 -0.33,0.54 -0.47,0.77l0 1.98 -1 0 0 -1.98c-0.31,-0.55 -0.64,-1.09 -0.99,-1.63 -0.34,-0.54 -0.68,-1.08 -0.99,-1.62l1.17 0c0.21,0.36 0.43,0.73 0.65,1.11 0.23,0.38 0.45,0.75 0.66,1.11 0.11,-0.17 0.22,-0.35 0.33,-0.54 0.12,-0.19 0.23,-0.38 0.35,-0.58 0.11,-0.19 0.22,-0.38 0.34,-0.57 0.11,-0.19 0.21,-0.37 0.32,-0.53l1.16 0zm5.31 0l-2.49 5.23 -0.06 0 -2.49 -5.23 1.11 0 1.41 3.03 1.41 -3.03 1.11 0zm1.32 5.23l-1 0 0 -5.23 1 0 0 5.23zm4.35 -0.88l0 0.89 -3.77 0 0 -5.25 1 0 0 4.36 2.77 0zm4.33 -0.01l0 0.89 -3.77 0 0 -5.24 1 0 0 4.35 2.77 0zm3.16 -4.34l-0.1 0 -2.67 5.23 1.08 0 1.64 -3.28 1.23 2.46 0.41 0.82 1.09 0 -2.68 -5.23zm8.94 -9.13c0.24,0.05 0.48,0.11 0.73,0.15 0.26,0.06 0.53,0.13 0.79,0.21 0.31,0.09 0.61,0.21 0.9,0.37 0.4,0.21 0.75,0.48 1.05,0.82 0.32,0.36 0.55,0.78 0.76,1.2 0.02,0.05 0.04,0.09 0.06,0.18 -0.13,-0.1 -0.27,-0.18 -0.41,-0.25 -0.42,-0.21 -0.85,-0.41 -1.3,-0.56 -0.38,-0.13 -0.76,-0.26 -1.13,-0.41 -0.37,-0.15 -0.74,-0.3 -1.09,-0.5 -0.4,-0.23 -0.74,-0.5 -1.02,-0.92 -0.08,-0.14 -0.16,-0.29 -0.22,-0.46 0.3,0.06 0.59,0.11 0.88,0.17zm-1.2 0.14l0 0c0.08,0.13 0.14,0.26 0.23,0.39 0.1,0.17 0.23,0.32 0.36,0.47 0.13,0.15 0.28,0.28 0.43,0.4 0.19,0.16 0.41,0.3 0.64,0.42 0,0 0.93,0.42 1.98,0.7 0.42,0.14 0.82,0.3 1.22,0.5 0.37,0.18 0.74,0.38 1.1,0.6 0.06,0.04 0.12,0.08 0.19,0.12 0.02,0.01 0.03,0.03 0.05,0.01 0.02,-0.01 0.01,-0.03 0,-0.05 -0.07,-0.25 -0.16,-0.5 -0.25,-0.75 -0.13,-0.35 -0.29,-0.68 -0.48,-0.99 -0.21,-0.35 -0.47,-0.66 -0.77,-0.93 -0.22,-0.2 -0.47,-0.38 -0.73,-0.54 -0.24,-0.14 -0.49,-0.26 -0.75,-0.36 -0.23,-0.09 -0.47,-0.16 -0.73,-0.22 -0.55,-0.13 -0.8,-0.18 -0.8,-0.18 -0.19,-0.04 -0.38,-0.09 -0.57,-0.12 -0.28,-0.05 -0.55,-0.14 -0.82,-0.19 -0.1,-0.02 -0.14,-0.06 -0.16,-0.17 -0.06,-0.29 -0.09,-0.59 -0.09,-0.88 -0.01,-0.24 0.02,-0.48 0.06,-0.72 0.13,-0.77 0.45,-1.45 0.92,-2.07 0.44,-0.58 0.96,-1.07 1.54,-1.51 0.34,-0.26 0.69,-0.51 1.05,-0.74 0.3,-0.19 0.61,-0.39 0.9,-0.59 0.55,-0.39 1.01,-0.85 1.35,-1.44 0.03,0.11 0.04,0.14 0.06,0.21 0.09,0.4 0.15,0.79 0.19,1.2 0.03,0.28 0.03,0.56 0.03,0.85 0,0.28 -0.03,0.57 -0.07,0.85 -0.04,0.29 -0.11,0.58 -0.2,0.85 -0.2,0.61 -0.51,1.15 -1.02,1.56 -0.29,0.24 -1.86,1.54 -3.64,1.01 0.16,-0.32 0.33,-0.63 0.53,-0.93 0.25,-0.37 0.53,-0.73 0.85,-1.05 0.32,-0.31 0.67,-0.59 1.03,-0.84 0.14,-0.09 0.27,-0.18 0.4,-0.28 -0.45,0.22 -0.64,0.33 -0.64,0.33 -0.25,0.16 -0.5,0.32 -0.73,0.5 -0.38,0.3 -0.73,0.64 -1.05,1.01 -0.37,0.45 -0.68,0.93 -0.91,1.46 -0.01,0.04 -0.02,0.08 -0.04,0.12 0,0 0.97,0.65 2.72,0.13 4.54,-1.36 3.04,-6.78 3.04,-6.78 0,0 -0.18,-0.73 -0.34,-1.11 -0.05,-0.08 -0.07,-0.08 -0.11,0.01 -0.08,0.15 -0.17,0.29 -0.26,0.43 -0.28,0.42 -0.61,0.79 -0.98,1.13 -0.37,0.34 -0.77,0.64 -1.17,0.93 -0.3,0.21 -0.59,0.42 -0.89,0.62 -0.26,0.18 -0.51,0.36 -0.76,0.56 -0.17,0.13 -0.33,0.28 -0.49,0.43 -0.28,0.27 -0.54,0.56 -0.77,0.88 -0.29,0.4 -0.53,0.83 -0.69,1.31 -0.14,0.38 -0.22,0.78 -0.27,1.19 -0.03,0.31 -0.03,0.61 -0.02,0.92 0.01,0.12 0.03,0.24 0.04,0.36 0.01,0.1 0,0.11 -0.09,0.08 -0.28,-0.08 -0.53,-0.19 -0.72,-0.41 -0.16,-0.18 -0.25,-0.39 -0.28,-0.63 -0.02,-0.23 0.01,-0.46 0.05,-0.68 0.07,-0.34 0.15,-0.67 0.19,-1.01 0.04,-0.44 -0.2,-0.89 -0.59,-1.08 -0.12,-0.05 -0.24,-0.1 -0.36,-0.13 -0.02,0 -0.05,0 -0.05,-0.03 0,-0.02 0.02,-0.03 0.04,-0.04 0.07,-0.07 0.16,-0.08 0.25,-0.08 0.05,0 0.08,-0.02 0.1,-0.08 0.19,-0.55 0.99,-0.78 1.46,-0.34 0.14,0.13 0.26,0.28 0.35,0.46 0.04,0.07 0.06,0.08 0.11,0.01 0.07,-0.08 0.14,-0.16 0.22,-0.21 0.04,-0.03 0.05,-0.06 0.03,-0.11 -0.12,-0.22 -0.29,-0.39 -0.5,-0.51 -0.17,-0.1 -0.34,-0.17 -0.53,-0.21 -0.38,-0.08 -0.75,-0.04 -1.07,0.21 -0.17,0.13 -0.3,0.28 -0.41,0.46 -0.03,0.05 -0.08,0.06 -0.13,0.08 -0.23,0.07 -0.44,0.18 -0.65,0.31 -0.04,0.03 -0.08,0.06 -0.12,0.11 -0.06,0.1 -0.03,0.19 0.09,0.22 0.13,0.03 0.26,0.01 0.39,0.03 0.26,0.03 0.51,0.12 0.7,0.31 0.18,0.19 0.26,0.41 0.25,0.68 -0.01,0.3 -0.1,0.58 -0.17,0.86 -0.05,0.21 -0.11,0.42 -0.11,0.64 0,0.21 0.04,0.41 0.13,0.6 0.11,0.24 0.27,0.45 0.47,0.61 0.14,0.11 0.3,0.18 0.46,0.24 0.18,0.07 0.36,0.13 0.55,0.17l0.23 0.45z"></path> </g></svg>