<?xml version="1.0" encoding="UTF-8"?>
<!DOCTYPE svg PUBLIC "-//W3C//DTD SVG 1.1//EN" "http://www.w3.org/Graphics/SVG/1.1/DTD/svg11.dtd">
<!-- Creator: CorelDRAW -->
<svg xmlns="http://www.w3.org/2000/svg" xml:space="preserve" width="1494px" height="247px" version="1.1" style="shape-rendering:geometricPrecision; text-rendering:geometricPrecision; image-rendering:optimizeQuality; fill-rule:evenodd; clip-rule:evenodd"
viewBox="0 0 1492 246"
 xmlns:xlink="http://www.w3.org/1999/xlink"
 xmlns:xodm="http://www.corel.com/coreldraw/odm/2003">
 <defs>
  <style type="text/css">
   <![CDATA[
    .fil0 {fill:#373435}
    .fil2 {fill:#738A33}
    .fil4 {fill:#ADC178}
    .fil3 {fill:#373435;fill-rule:nonzero}
    .fil1 {fill:#738A33;fill-rule:nonzero}
   ]]>
  </style>
 </defs>
 <g id="Layer_x0020_1">
  <metadata id="CorelCorpID_0Corel-Layer"/>
  <g id="_2381324748064">
   <g>
    <path class="fil0" d="M0 4l22 0 0 60 59 -60 28 0 -54 54 57 80 -27 0 -45 -64 -18 18 0 47 -22 0 0 -133zm165 0l80 0 0 19 -80 0 0 -19zm0 113l80 0 0 20 -80 0 0 -20zm133 -113l27 0 33 61 31 -61 26 0 -46 81 0 53 -22 0 0 -52 -49 -82zm823 0l96 0 0 19 -74 0 0 35 68 0 0 19 -68 0 0 40 76 0 0 20 -98 0 0 -133zm-159 0l24 0 62 100 0 -100 21 0 0 133 -23 0 -62 -100 0 100 -21 0 0 -133zm-116 16c-13,0 -23,4 -30,13 -7,9 -11,21 -11,37 0,16 4,28 11,37 7,9 17,13 30,13 13,0 23,-5 30,-13 7,-9 11,-21 11,-37 0,-16 -4,-29 -11,-37 -7,-9 -17,-13 -30,-13zm0 -19c20,0 35,6 47,19 11,12 17,30 17,51 0,22 -6,39 -17,51 -11,13 -27,19 -47,19 -20,0 -35,-6 -47,-19 -11,-12 -17,-30 -17,-51 0,-22 6,-39 17,-51 11,-13 27,-19 47,-19zm-220 4l104 0 0 19 -41 0 0 114 -22 0 0 -114 -41 0 0 -19zm-56 39l-21 0c0,-8 -3,-13 -9,-18 -5,-4 -12,-6 -21,-6 -7,0 -13,2 -18,5 -5,3 -7,8 -7,13 0,5 2,9 6,12 4,3 13,6 25,10 20,5 32,10 38,16 6,6 9,14 9,24 0,13 -5,23 -14,30 -9,8 -22,11 -38,11 -17,0 -29,-4 -39,-12 -9,-8 -14,-19 -15,-34l21 0c1,9 4,15 10,20 6,5 14,7 24,7 8,0 14,-2 19,-6 5,-4 7,-8 7,-14 0,-2 -1,-5 -2,-7 -1,-3 -3,-5 -5,-7 -3,-3 -11,-6 -23,-9 -3,-1 -5,-1 -6,-1 -15,-4 -25,-9 -32,-15 -6,-6 -9,-14 -9,-25 0,-11 5,-20 14,-27 9,-7 21,-10 36,-10 15,0 26,4 35,11 9,8 13,18 13,31z"/>
    <polygon class="fil1" points="0,167 1218,167 1218,169 0,169 "/>
    <polygon class="fil2" points="165,58 245,58 245,76 165,76 "/>
   </g>
   <path class="fil3" d="M19 199c4,0 8,1 11,2 3,1 5,3 7,6 2,2 2,5 2,9 0,3 -1,6 -2,9 -2,2 -4,4 -7,6 -3,1 -6,2 -11,2l-10 0 0 13 -9 0 0 -46 19 0zm0 26c4,0 7,-1 9,-2 2,-2 3,-4 3,-7 0,-3 -1,-5 -3,-7 -2,-2 -5,-2 -9,-2l-10 0 0 18 10 0zm74 13l0 7 -35 0 0 -46 34 0 0 7 -25 0 0 12 22 0 0 7 -22 0 0 13 26 0zm51 7l-9 -14c0,0 -1,0 -2,0l-10 0 0 14 -9 0 0 -46 19 0c4,0 8,1 11,2 3,1 5,3 7,6 2,2 2,5 2,9 0,3 -1,6 -3,9 -2,3 -4,4 -7,6l11 15 -9 0zm0 -30c0,-3 -1,-5 -3,-7 -2,-2 -5,-2 -9,-2l-10 0 0 18 10 0c4,0 7,-1 9,-2 2,-2 3,-4 3,-7zm38 -9l0 14 22 0 0 7 -22 0 0 18 -9 0 0 -46 34 0 0 7 -25 0zm79 32l0 7 -35 0 0 -46 34 0 0 7 -25 0 0 12 22 0 0 7 -22 0 0 13 26 0zm42 8c-5,0 -9,-1 -13,-3 -4,-2 -7,-5 -9,-9 -2,-4 -3,-8 -3,-12 0,-5 1,-9 3,-12 2,-4 5,-6 9,-9 4,-2 8,-3 13,-3 4,0 7,1 10,2 3,1 6,3 8,6l-6 5c-3,-4 -7,-5 -12,-5 -3,0 -6,1 -9,2 -3,1 -4,3 -6,6 -1,2 -2,5 -2,8 0,3 1,6 2,8 1,2 3,4 6,6 3,1 5,2 9,2 5,0 9,-2 12,-5l6 5c-2,3 -5,4 -8,6 -3,1 -7,2 -10,2zm47 -40l-15 0 0 -7 39 0 0 7 -15 0 0 39 -9 0 0 -39zm41 -7l9 0 0 39 24 0 0 7 -33 0 0 -46zm66 30l0 16 -9 0 0 -16 -18 -30 9 0 14 23 14 -23 8 0 -18 30zm74 17c-5,0 -9,-1 -13,-3 -4,-2 -7,-5 -9,-9 -2,-4 -3,-8 -3,-12 0,-5 1,-9 3,-12 2,-4 5,-6 9,-9 4,-2 8,-3 13,-3 4,0 7,1 10,2 3,1 6,3 8,6l-6 5c-3,-4 -7,-5 -12,-5 -3,0 -6,1 -9,2 -3,1 -4,3 -6,6 -1,2 -2,5 -2,8 0,3 1,6 2,8 1,2 3,4 6,6 3,1 5,2 9,2 5,0 9,-2 12,-5l6 5c-2,3 -5,4 -8,6 -3,1 -7,2 -10,2zm68 -1l-9 -14c0,0 -1,0 -2,0l-10 0 0 14 -9 0 0 -46 19 0c4,0 8,1 10,2 3,1 5,3 7,6 2,2 2,5 2,9 0,3 -1,6 -3,9 -2,3 -4,4 -7,6l11 15 -9 0zm0 -30c0,-3 -1,-5 -3,-7 -2,-2 -5,-2 -9,-2l-10 0 0 18 10 0c4,0 7,-1 9,-2 2,-2 3,-4 3,-7zm59 19l-23 0 -5 11 -9 0 21 -46 8 0 21 46 -9 0 -5 -11zm-3 -7l-9 -20 -9 20 17 0zm42 -22l0 14 22 0 0 7 -22 0 0 18 -9 0 0 -46 34 0 0 7 -25 0zm54 0l-15 0 0 -7 39 0 0 7 -15 0 0 39 -9 0 0 -39zm76 32l0 7 -35 0 0 -46 34 0 0 7 -25 0 0 12 22 0 0 7 -22 0 0 13 26 0zm21 -39l20 0c5,0 9,1 13,3 4,2 7,5 9,8 2,4 3,8 3,12 0,5 -1,9 -3,12 -2,4 -5,6 -9,8 -4,2 -8,3 -13,3l-20 0 0 -46zm20 39c3,0 6,-1 9,-2 3,-1 5,-3 6,-6 1,-2 2,-5 2,-8 0,-3 -1,-6 -2,-8 -1,-2 -3,-4 -6,-6 -3,-1 -6,-2 -9,-2l-11 0 0 32 11 0zm106 -39l-20 46 -8 0 -20 -46 9 0 15 36 16 -36 9 0zm16 0l9 0 0 46 -9 0 0 -46zm32 0l9 0 0 39 24 0 0 7 -33 0 0 -46zm51 0l9 0 0 39 24 0 0 7 -33 0 0 -46zm81 36l-23 0 -5 11 -9 0 21 -46 8 0 21 46 -9 0 -5 -11zm-3 -7l-9 -20 -9 20 17 0zm48 18c-4,0 -7,-1 -10,-2 -3,-1 -6,-2 -8,-4l3 -7c2,2 4,3 7,4 3,1 6,1 8,1 3,0 6,-1 8,-2 2,-1 3,-3 3,-4 0,-1 0,-2 -1,-3 -1,-1 -2,-2 -4,-2 -1,0 -3,-1 -6,-2 -4,-1 -6,-2 -9,-3 -2,-1 -4,-2 -6,-4 -2,-2 -2,-4 -2,-7 0,-3 1,-5 2,-7 1,-2 3,-4 6,-5 3,-1 6,-2 10,-2 3,0 6,0 8,1 3,1 5,2 7,3l-3 7c-2,-1 -4,-2 -6,-3 -2,-1 -4,-1 -6,-1 -3,0 -6,1 -8,2 -2,1 -2,3 -2,5 0,1 0,2 1,3 1,1 2,2 4,2 1,0 3,1 6,2 3,1 6,2 8,2 2,1 4,2 6,4 2,2 2,4 2,7 0,3 -1,5 -2,7 -1,2 -4,4 -6,5 -3,1 -6,2 -10,2z"/>
   <g>
    <path class="fil2" d="M1366 246l0 -74c0,-26 25,-22 50,-22l0 42c0,31 -16,52 -50,54z"/>
    <path class="fil2" d="M1263 98l50 0 58 0c26,0 44,25 45,50l-44 0c-1,0 -57,0 -57,0 -30,-1 -51,-17 -52,-50z"/>
    <path class="fil2" d="M1313 0l0 73c0,26 -25,23 -50,23l0 -42c0,-31 16,-52 50,-54z"/>
    <path class="fil2" d="M1442 0l0 50 0 151c0,26 25,44 50,45l0 -44c0,-1 0,-149 0,-150 -1,-30 -17,-51 -50,-52z"/>
    <path class="fil2" d="M1267 196l74 0c26,0 22,25 22,50l-42 0c-31,0 -52,-16 -54,-50z"/>
    <path class="fil4" d="M1411 0l-74 0c-26,0 -22,25 -22,50l42 0c31,0 52,-16 54,-50z"/>
   </g>
  </g>
 </g>
</svg>
