<svg xmlns="http://www.w3.org/2000/svg" xmlns:xlink="http://www.w3.org/1999/xlink" xmlns:xodm="http://www.corel.com/coreldraw/odm/2003" xml:space="preserve" width="361px" height="129px" fill-rule="evenodd" clip-rule="evenodd" viewBox="0 0 83.75 29.92"> <defs>   </defs> <g id="Layer_x0020_1">  <metadata id="CorelCorpID_0Corel-Layer"></metadata>  <g id="_2006403636288">   <g>    <polygon fill="#727271" fill-rule="nonzero" points="27.81,1.41 28.99,1.41 28.99,4.62 32.14,1.41 33.65,1.41 30.78,4.27 33.81,8.52 32.37,8.52 29.94,5.09 28.99,6.03 28.99,8.52 27.81,8.52 "></polygon>    <path fill="#727271" fill-rule="nonzero" d="M35.2 1.41l4.29 0 0 1.04 -4.29 0 0 -1.04zm0 2.9l4.28 0 0 0.99 -4.28 0 0 -0.99zm0 3.14l4.3 0 0 1.07 -4.3 0 0 -1.07z"></path>    <polygon fill="#727271" fill-rule="nonzero" points="40.87,1.41 42.34,1.41 44.07,4.64 45.75,1.41 47.12,1.41 44.68,5.71 44.68,8.52 43.49,8.52 43.49,5.76 "></polygon>    <polygon fill="#727271" fill-rule="nonzero" points="78.17,1.41 83.27,1.41 83.27,2.45 79.33,2.45 79.33,4.31 82.96,4.31 82.96,5.3 79.33,5.3 79.33,7.45 83.4,7.45 83.4,8.52 78.17,8.52 "></polygon>    <polygon fill="#727271" fill-rule="nonzero" points="70.51,1.41 71.76,1.41 75.08,6.73 75.08,1.41 76.22,1.41 76.22,8.52 74.98,8.52 71.64,3.2 71.64,8.52 70.51,8.52 "></polygon>    <path fill="#727271" fill-rule="nonzero" d="M65.04 1.22c1.06,0 1.89,0.33 2.5,1 0.61,0.67 0.91,1.59 0.91,2.75 0,1.16 -0.3,2.08 -0.91,2.75 -0.61,0.66 -1.44,1 -2.5,1 -1.06,0 -1.89,-0.34 -2.5,-1 -0.61,-0.67 -0.91,-1.59 -0.91,-2.75 0,-1.17 0.3,-2.08 0.91,-2.75 0.61,-0.67 1.44,-1 2.5,-1zm0 1.03c-0.69,0 -1.23,0.24 -1.62,0.71 -0.39,0.48 -0.59,1.15 -0.59,2.01 0,0.85 0.2,1.52 0.59,2 0.39,0.48 0.93,0.72 1.62,0.72 0.69,0 1.23,-0.24 1.62,-0.72 0.39,-0.48 0.59,-1.15 0.59,-2 0,-0.86 -0.2,-1.53 -0.59,-2.01 -0.39,-0.47 -0.92,-0.71 -1.62,-0.71z"></path>    <polygon fill="#727271" fill-rule="nonzero" points="54.93,1.41 60.49,1.41 60.49,2.45 58.3,2.45 58.3,8.52 57.12,8.52 57.12,2.45 54.93,2.45 "></polygon>    <path fill="#727271" fill-rule="nonzero" d="M53.44 3.48l-1.12 0.01c-0.03,-0.4 -0.18,-0.72 -0.46,-0.95 -0.28,-0.23 -0.65,-0.34 -1.12,-0.34 -0.38,0 -0.7,0.09 -0.95,0.27 -0.24,0.18 -0.36,0.4 -0.36,0.67 0,0.27 0.1,0.49 0.32,0.66 0.22,0.18 0.67,0.35 1.36,0.53 1.05,0.26 1.73,0.55 2.05,0.86 0.32,0.31 0.48,0.74 0.48,1.29 0,0.67 -0.25,1.21 -0.75,1.62 -0.5,0.4 -1.17,0.61 -2.01,0.61 -0.88,0 -1.57,-0.21 -2.06,-0.64 -0.49,-0.42 -0.75,-1.04 -0.79,-1.84l1.15 0c0.03,0.47 0.21,0.82 0.52,1.08 0.31,0.25 0.74,0.38 1.28,0.38 0.4,0 0.74,-0.1 1,-0.3 0.25,-0.19 0.39,-0.43 0.39,-0.72 0,-0.11 -0.04,-0.24 -0.11,-0.38 -0.08,-0.15 -0.17,-0.27 -0.28,-0.37 -0.19,-0.17 -0.6,-0.34 -1.25,-0.5 -0.14,-0.03 -0.24,-0.06 -0.31,-0.07 -0.8,-0.21 -1.36,-0.48 -1.69,-0.8 -0.33,-0.33 -0.49,-0.77 -0.49,-1.33 0,-0.59 0.24,-1.07 0.72,-1.44 0.48,-0.38 1.12,-0.56 1.92,-0.56 0.78,0 1.4,0.2 1.86,0.61 0.46,0.41 0.7,0.96 0.7,1.65z"></path>    <path fill="#727271" fill-rule="nonzero" d="M35.85 19.17c0,-0.06 -0.06,-0.07 -0.15,-0.07 -0.12,0 -0.31,-0.01 -0.59,-0.09 -0.28,-0.09 -0.37,-0.36 -0.46,-0.96l-0.86 -5.84c-0.03,-0.2 -0.08,-0.29 -0.17,-0.29 -0.08,0 -0.14,0.07 -0.21,0.23l-2.57 5.39 -2.58 -5.33c-0.12,-0.24 -0.18,-0.29 -0.25,-0.29 -0.08,0 -0.14,0.08 -0.16,0.24l-0.94 6.17c-0.05,0.32 -0.12,0.69 -0.39,0.74 -0.14,0.03 -0.2,0.03 -0.28,0.03 -0.09,0 -0.15,0.02 -0.15,0.07 0,0.08 0.07,0.1 0.17,0.1 0.3,0 0.75,-0.03 0.93,-0.03 0.17,0 0.6,0.03 1,0.03 0.14,0 0.22,-0.02 0.22,-0.1 0,-0.05 -0.06,-0.07 -0.14,-0.07 -0.09,0 -0.22,-0.01 -0.4,-0.04 -0.16,-0.04 -0.28,-0.13 -0.28,-0.31 0,-0.15 0.01,-0.27 0.03,-0.44l0.49 -3.76 0.04 0c0.33,0.71 0.9,1.9 0.98,2.09 0.12,0.27 0.86,1.72 1.09,2.15 0.15,0.28 0.24,0.47 0.33,0.47 0.08,0 0.13,-0.08 0.35,-0.53l2.06 -4.29 0.04 0 0.56 4.16c0.04,0.27 0.01,0.39 -0.04,0.41 -0.07,0.03 -0.11,0.05 -0.11,0.1 0,0.06 0.06,0.09 0.28,0.11 0.38,0.02 1.68,0.05 1.92,0.05 0.13,0 0.24,-0.03 0.24,-0.1zm7.22 0.01c0,-0.07 -0.04,-0.08 -0.12,-0.08 -0.11,0 -0.25,-0.01 -0.4,-0.04 -0.2,-0.04 -0.47,-0.18 -0.83,-1.03 -0.6,-1.43 -2.12,-5.29 -2.34,-5.81 -0.1,-0.22 -0.15,-0.3 -0.24,-0.3 -0.09,0 -0.15,0.1 -0.26,0.38l-2.38 5.93c-0.18,0.48 -0.36,0.8 -0.8,0.85 -0.07,0.01 -0.21,0.02 -0.29,0.02 -0.08,0 -0.12,0.02 -0.12,0.08 0,0.07 0.06,0.09 0.18,0.09 0.5,0 1.02,-0.03 1.12,-0.03 0.29,0 0.7,0.03 1,0.03 0.11,0 0.16,-0.02 0.16,-0.09 0,-0.06 -0.03,-0.08 -0.14,-0.08l-0.14 0c-0.29,0 -0.38,-0.12 -0.38,-0.29 0,-0.11 0.05,-0.34 0.14,-0.58l0.51 -1.35c0.02,-0.06 0.04,-0.07 0.09,-0.07l2.11 0c0.04,0 0.07,0.01 0.09,0.06l0.76 2.01c0.04,0.11 -0.02,0.19 -0.09,0.21 -0.09,0.01 -0.13,0.03 -0.13,0.09 0,0.06 0.11,0.06 0.28,0.07 0.76,0.02 1.45,0.02 1.79,0.02 0.35,0 0.43,-0.02 0.43,-0.09zm-3.27 -2.9c0.01,0.02 0,0.05 -0.04,0.05l-1.74 0c-0.04,0 -0.05,-0.03 -0.04,-0.06l0.87 -2.33c0.01,-0.04 0.03,-0.08 0.05,-0.08 0.03,0 0.04,0.04 0.05,0.08l0.85 2.34zm11.11 -4.07c0,-0.07 -0.1,-0.08 -0.22,-0.08 -0.46,0 -0.82,0.03 -0.92,0.03 -0.2,0 -0.66,-0.03 -1.15,-0.03 -0.14,0 -0.24,0.01 -0.24,0.08 0,0.06 0.03,0.09 0.15,0.09 0.13,0 0.36,0 0.5,0.05 0.22,0.1 0.31,0.28 0.32,0.85l0.09 4.25 -0.04 0c-0.16,-0.15 -1.44,-1.51 -2.08,-2.16 -1.38,-1.37 -2.82,-2.91 -2.93,-3.03 -0.16,-0.17 -0.25,-0.29 -0.35,-0.29 -0.1,0 -0.13,0.13 -0.13,0.32l-0.08 5.59c-0.01,0.83 -0.05,1.1 -0.29,1.18 -0.14,0.03 -0.31,0.04 -0.43,0.04 -0.09,0 -0.15,0.02 -0.15,0.08 0,0.08 0.08,0.09 0.21,0.09 0.49,0 0.93,-0.03 1.02,-0.03 0.18,0 0.56,0.03 1.17,0.03 0.13,0 0.22,-0.02 0.22,-0.09 0,-0.06 -0.06,-0.08 -0.16,-0.08 -0.15,0 -0.33,-0.01 -0.49,-0.06 -0.19,-0.07 -0.32,-0.32 -0.34,-1.05l-0.1 -3.97 0.03 0c0.17,0.18 1.22,1.36 2.25,2.38 0.98,0.97 2.19,2.21 2.79,2.78 0.1,0.1 0.21,0.21 0.32,0.21 0.08,0 0.12,-0.09 0.12,-0.3l0.11 -5.96c0,-0.53 0.08,-0.73 0.34,-0.8 0.12,-0.03 0.19,-0.03 0.29,-0.03 0.11,0 0.17,-0.03 0.17,-0.09zm5.36 5.16c0,-0.9 -0.42,-1.53 -1.55,-2.41l-0.27 -0.2c-0.78,-0.59 -1,-0.92 -1,-1.36 0,-0.56 0.43,-0.97 1.13,-0.97 0.61,0 0.88,0.28 1.03,0.46 0.19,0.25 0.24,0.54 0.24,0.63 0,0.11 0.03,0.17 0.1,0.17 0.07,0 0.1,-0.08 0.1,-0.29 0,-0.73 0.04,-1.01 0.04,-1.13 0,-0.07 -0.05,-0.1 -0.13,-0.11 -0.25,-0.07 -0.65,-0.17 -1.26,-0.17 -1.32,0 -2.18,0.75 -2.18,1.79 0,0.77 0.35,1.43 1.39,2.24l0.44 0.34c0.78,0.61 0.93,1.05 0.93,1.51 0,0.5 -0.42,1.08 -1.27,1.08 -0.59,0 -1.14,-0.25 -1.35,-0.95 -0.05,-0.16 -0.09,-0.36 -0.09,-0.49 0,-0.07 -0.01,-0.16 -0.09,-0.16 -0.08,0 -0.11,0.11 -0.12,0.25 -0.01,0.15 -0.04,0.72 -0.04,1.24 0,0.21 0.03,0.25 0.18,0.32 0.4,0.18 0.83,0.24 1.38,0.24 0.5,0 1.03,-0.08 1.5,-0.38 0.68,-0.45 0.89,-1.1 0.89,-1.65zm4.47 1.81c0,-0.05 -0.05,-0.08 -0.15,-0.08 -0.14,0 -0.35,-0.02 -0.48,-0.04 -0.29,-0.03 -0.35,-0.2 -0.38,-0.46 -0.04,-0.4 -0.04,-1.15 -0.04,-2.07l0 -1.66c0,-1.44 0,-1.7 0.02,-2.01 0.02,-0.33 0.09,-0.49 0.35,-0.53 0.11,-0.02 0.19,-0.03 0.28,-0.03 0.1,0 0.15,-0.02 0.15,-0.1 0,-0.05 -0.07,-0.07 -0.2,-0.07 -0.36,0 -0.91,0.03 -1.15,0.03 -0.27,0 -0.87,-0.03 -1.23,-0.03 -0.15,0 -0.22,0.02 -0.22,0.07 0,0.08 0.05,0.1 0.15,0.1 0.11,0 0.23,0.01 0.34,0.03 0.2,0.05 0.3,0.21 0.32,0.53 0.02,0.31 0.02,0.57 0.02,2.01l0 1.66c0,0.92 0,1.67 -0.05,2.06 -0.03,0.28 -0.09,0.44 -0.27,0.47 -0.09,0.02 -0.2,0.04 -0.34,0.04 -0.12,0 -0.16,0.03 -0.16,0.08 0,0.06 0.07,0.09 0.19,0.09 0.38,0 0.98,-0.03 1.19,-0.03 0.26,0 0.85,0.03 1.48,0.03 0.1,0 0.18,-0.03 0.18,-0.09zm8.74 -3.65c0,-2.16 -1.46,-3.54 -3.82,-3.54 -2.83,0 -3.9,2.09 -3.9,3.71 0,1.67 1.1,3.7 3.81,3.7 2.4,0 3.91,-1.71 3.91,-3.87zm-1.32 0.35c0,2.73 -1.53,3.05 -2.19,3.05 -1.82,0 -2.91,-1.56 -2.91,-3.52 0,-2.36 1.24,-2.96 2.33,-2.96 1.55,0 2.77,1.31 2.77,3.43zm10.23 -3.67c0,-0.07 -0.09,-0.08 -0.21,-0.08 -0.47,0 -0.83,0.03 -0.93,0.03 -0.2,0 -0.65,-0.03 -1.14,-0.03 -0.15,0 -0.25,0.01 -0.25,0.08 0,0.06 0.04,0.09 0.15,0.09 0.13,0 0.36,0 0.5,0.05 0.23,0.1 0.32,0.28 0.32,0.85l0.1 4.25 -0.05 0c-0.16,-0.15 -1.43,-1.51 -2.08,-2.16 -1.38,-1.37 -2.81,-2.91 -2.93,-3.03 -0.16,-0.17 -0.24,-0.29 -0.35,-0.29 -0.09,0 -0.12,0.13 -0.12,0.32l-0.09 5.59c0,0.83 -0.04,1.1 -0.29,1.18 -0.13,0.03 -0.3,0.04 -0.42,0.04 -0.1,0 -0.15,0.02 -0.15,0.08 0,0.08 0.08,0.09 0.2,0.09 0.49,0 0.94,-0.03 1.02,-0.03 0.18,0 0.56,0.03 1.18,0.03 0.13,0 0.21,-0.02 0.21,-0.09 0,-0.06 -0.05,-0.08 -0.16,-0.08 -0.15,0 -0.33,-0.01 -0.49,-0.06 -0.19,-0.07 -0.31,-0.32 -0.33,-1.05l-0.1 -3.97 0.02 0c0.17,0.18 1.22,1.36 2.25,2.38 0.99,0.97 2.2,2.21 2.79,2.78 0.11,0.1 0.22,0.21 0.32,0.21 0.09,0 0.13,-0.09 0.13,-0.3l0.1 -5.96c0.01,-0.53 0.09,-0.73 0.35,-0.8 0.11,-0.03 0.19,-0.03 0.28,-0.03 0.12,0 0.17,-0.03 0.17,-0.09zm5.36 5.16c0,-0.9 -0.41,-1.53 -1.55,-2.41l-0.26 -0.2c-0.79,-0.59 -1,-0.92 -1,-1.36 0,-0.56 0.42,-0.97 1.12,-0.97 0.62,0 0.89,0.28 1.03,0.46 0.2,0.25 0.25,0.54 0.25,0.63 0,0.11 0.03,0.17 0.09,0.17 0.08,0 0.11,-0.08 0.11,-0.29 0,-0.73 0.03,-1.01 0.03,-1.13 0,-0.07 -0.04,-0.1 -0.13,-0.11 -0.24,-0.07 -0.64,-0.17 -1.26,-0.17 -1.31,0 -2.18,0.75 -2.18,1.79 0,0.77 0.36,1.43 1.4,2.24l0.43 0.34c0.79,0.61 0.93,1.05 0.93,1.51 0,0.5 -0.42,1.08 -1.27,1.08 -0.58,0 -1.14,-0.25 -1.35,-0.95 -0.04,-0.16 -0.08,-0.36 -0.08,-0.49 0,-0.07 -0.01,-0.16 -0.1,-0.16 -0.07,0 -0.1,0.11 -0.11,0.25 -0.01,0.15 -0.05,0.72 -0.05,1.24 0,0.21 0.03,0.25 0.18,0.32 0.41,0.18 0.83,0.24 1.38,0.24 0.5,0 1.03,-0.08 1.5,-0.38 0.69,-0.45 0.89,-1.1 0.89,-1.65z"></path>    <polygon fill="#727271" fill-rule="nonzero" points="83.44,10.65 14.04,10.65 14.04,10.28 83.44,10.28 "></polygon>    <path fill="#727271" fill-rule="nonzero" d="M9.18 9.23l0 -1.42 1.23 -1.24 1.24 1.24 0 1.42 1.42 0 1.23 1.24 -1.24 1.22 -1.41 0 0 1.42 -1.24 1.24 -1.23 -1.24 0 -1.42 -1.42 0 -1.24 -1.22 1.24 -1.24 1.42 0zm0.38 -1.27l0 1.64 -1.65 0 -0.85 0.86 0.85 0.86 1.65 0 0 1.64 0.85 0.86 0.86 -0.86 0 -1.64 1.64 0 0.86 -0.86 -0.86 -0.86 -1.64 0 0 -1.64 -0.86 -0.86 -0.85 0.86z"></path>    <g>     <path fill="#727271" fill-rule="nonzero" d="M4.6 9.33l-1.26 -1.26 -1.78 0 -0.18 0 0 -0.18 0 -1.78 -1.26 -1.26 -0.12 -0.13 0.12 -0.12 1.26 -1.26 0 -1.78 0 -0.18 0.18 0 1.78 0 1.26 -1.26 0.12 -0.12 0.13 0.12 1.26 1.26 1.78 0 0.18 0 0 0.18 0 1.78 1.26 1.26 0.12 0.12 -0.12 0.13 -1.26 1.26 0 1.78 0 0.18 -0.18 0 -1.78 0 -1.26 1.26 -0.13 0.12 -0.12 -0.12zm-1.06 -1.56l1.18 1.18 1.19 -1.18 0.05 -0.06 0.08 0 1.67 0 0 -1.67 0 -0.08 0.06 -0.05 1.18 -1.19 -1.18 -1.18 -0.06 -0.05 0 -0.08 0 -1.67 -1.67 0 -0.08 0 -0.05 -0.06 -1.19 -1.18 -1.18 1.18 -0.05 0.06 -0.08 0 -1.67 0 0 1.67 0 0.08 -0.06 0.05 -1.18 1.18 1.18 1.19 0.06 0.05 0 0.08 0 1.67 1.67 0 0.08 0 0.05 0.06z"></path>     <path fill="#727271" fill-rule="nonzero" d="M15.94 9.33l-1.26 -1.26 -1.78 0 -0.18 0 0 -0.18 0 -1.78 -1.26 -1.26 -0.12 -0.13 0.12 -0.12 1.26 -1.26 0 -1.78 0 -0.18 0.18 0 1.78 0 1.26 -1.26 0.12 -0.12 0.13 0.12 1.26 1.26 1.78 0 0.18 0 0 0.18 0 1.78 1.25 1.26 0.13 0.12 -0.13 0.13 -1.25 1.26 0 1.78 0 0.18 -0.18 0 -1.78 0 -1.26 1.26 -0.13 0.12 -0.12 -0.12zm-1.06 -1.56l1.18 1.18 1.19 -1.18 0.05 -0.06 0.08 0 1.67 0 0 -1.67 0 -0.08 0.05 -0.05 1.19 -1.19 -1.19 -1.18 -0.05 -0.05 0 -0.08 0 -1.67 -1.67 0 -0.08 0 -0.05 -0.06 -1.19 -1.18 -1.18 1.18 -0.05 0.06 -0.08 0 -1.67 0 0 1.67 0 0.08 -0.06 0.05 -1.18 1.18 1.18 1.19 0.06 0.05 0 0.08 0 1.67 1.67 0 0.08 0 0.05 0.06z"></path>     <path fill="#727271" fill-rule="nonzero" d="M4.6 20.62l-1.26 -1.26 -1.78 0 -0.18 0 0 -0.18 0 -1.78 -1.26 -1.26 -0.12 -0.12 0.12 -0.12 1.26 -1.26 0 -1.79 0 -0.17 0.18 0 1.78 0 1.26 -1.26 0.12 -0.13 0.13 0.13 1.26 1.26 1.78 0 0.18 0 0 0.17 0 1.79 1.26 1.26 0.12 0.12 -0.12 0.12 -1.26 1.26 0 1.78 0 0.18 -0.18 0 -1.78 0 -1.26 1.26 -0.13 0.12 -0.12 -0.12zm-1.06 -1.56l1.18 1.19 1.19 -1.19 0.05 -0.05 0.08 0 1.67 0 0 -1.68 0 -0.07 0.06 -0.05 1.18 -1.19 -1.18 -1.19 -0.06 -0.05 0 -0.07 0 -1.68 -1.67 0 -0.08 0 -0.05 -0.05 -1.19 -1.19 -1.18 1.19 -0.05 0.05 -0.08 0 -1.67 0 0 1.68 0 0.07 -0.06 0.05 -1.18 1.19 1.18 1.19 0.06 0.05 0 0.07 0 1.68 1.67 0 0.08 0 0.05 0.05z"></path>     <path fill="#727271" fill-rule="nonzero" d="M15.94 20.62l-1.26 -1.26 -1.78 0 -0.18 0 0 -0.18 0 -1.78 -1.26 -1.26 -0.12 -0.12 0.12 -0.12 1.26 -1.26 0 -1.79 0 -0.17 0.18 0 1.78 0 1.26 -1.26 0.12 -0.13 0.13 0.13 1.26 1.26 1.78 0 0.18 0 0 0.17 0 1.79 1.25 1.26 0.13 0.12 -0.13 0.12 -1.25 1.26 0 1.78 0 0.18 -0.18 0 -1.78 0 -1.26 1.26 -0.13 0.12 -0.12 -0.12zm-1.06 -1.56l1.18 1.19 1.19 -1.19 0.05 -0.05 0.08 0 1.67 0 0 -1.68 0 -0.07 0.05 -0.05 1.19 -1.19 -1.19 -1.19 -0.05 -0.05 0 -0.07 0 -1.68 -1.67 0 -0.08 0 -0.05 -0.05 -1.19 -1.19 -1.18 1.19 -0.05 0.05 -0.08 0 -1.67 0 0 1.68 0 0.07 -0.06 0.05 -1.18 1.19 1.18 1.19 0.06 0.05 0 0.07 0 1.68 1.67 0 0.08 0 0.05 0.05z"></path>    </g>   </g>   <text x="-0.04" y="29.85" fill="#727271" font-weight="bold" font-size="7.58px" font-family="Californian FB">5B2HK LUXURY VILLAS</text>  </g> </g></svg>