<svg xmlns="http://www.w3.org/2000/svg" xml:space="preserve" width="300" height="100" style="shape-rendering:geometricPrecision;text-rendering:geometricPrecision;image-rendering:optimizeQuality;fill-rule:evenodd;clip-rule:evenodd" viewBox="0 0 34.412 11.497">    <defs>        <style>            .fil1{fill:#7e8e40;fill-rule:nonzero}        </style>    </defs>    <g id="Layer_x0020_1">        <g id="_2512989301552">            <path d="m24.003.787-.392.001a.442.442 0 0 0-.158-.328.591.591 0 0 0-.389-.12.546.546 0 0 0-.329.094.282.282 0 0 0-.127.234c0 .093.037.17.112.23.075.06.232.121.472.183.364.091.602.19.713.298.112.107.167.257.167.45a.689.689 0 0 1-.261.561c-.174.141-.406.212-.697.212-.307 0-.546-.074-.717-.221-.17-.148-.261-.36-.274-.638h.399c.011.16.071.284.18.373.11.088.257.132.445.132a.556.556 0 0 0 .346-.102c.09-.069.136-.152.136-.252a.305.305 0 0 0-.038-.133.447.447 0 0 0-.097-.129c-.065-.059-.209-.116-.433-.171l-.109-.027c-.276-.073-.472-.165-.586-.278-.114-.112-.171-.265-.171-.459 0-.206.084-.374.251-.503.167-.129.39-.194.668-.194.269 0 .484.071.645.213a.735.735 0 0 1 .244.574zm.515-.722h1.932v.361h-.76v2.111h-.409V.426h-.763V.065zm3.516.292a.69.69 0 0 0-.565.25c-.135.166-.203.398-.203.696 0 .297.068.528.203.695.136.167.324.25.565.25a.684.684 0 0 0 .562-.25c.135-.167.203-.398.203-.695 0-.298-.068-.53-.202-.696a.687.687 0 0 0-.563-.25zm0-.357c.366 0 .656.116.867.348.212.232.318.551.318.955 0 .404-.106.722-.318.954-.211.232-.501.349-.867.349-.369 0-.659-.116-.87-.348-.212-.231-.317-.55-.317-.955 0-.405.105-.724.317-.955.211-.232.501-.348.87-.348zm1.898.065h.437l1.151 1.849V.065h.399v2.472h-.433L30.327.688v1.849h-.395V.065zm2.662 0h1.773v.361h-1.368v.647h1.262v.347h-1.262v.746h1.413v.371h-1.818V.065zm-12.961 0h.51l.604 1.124.584-1.124h.475l-.849 1.496v.976h-.413v-.958L19.633.065zm-1.969 2.101h1.494v.371h-1.494v-.371zm0-1.093h1.487v.347h-1.487v-.347zm0-1.008h1.49v.361h-1.49V.065zm-2.567 0h.409v1.118L16.6.065h.525l-.997.994 1.052 1.478h-.501l-.842-1.193-.331.327v.866h-.409V.065z" style="fill:#2b2a29"></path>            <path class="fil1" d="M6.629 11.483h-1.32V6.16c0-.393-.053-.727-.158-1.005a1.857 1.857 0 0 0-.43-.681 1.783 1.783 0 0 0-.61-.395A1.974 1.974 0 0 0 3.4 3.95c-.258 0-.511.045-.76.136-.249.091-.471.22-.667.388a1.815 1.815 0 0 0-.653 1.427v5.582H0V3.591h1.32v1.665c.086-.268.218-.505.395-.711.177-.205.382-.38.617-.523.234-.144.487-.251.76-.323.273-.072.548-.108.825-.108.344 0 .679.055 1.004.165.326.11.615.275.869.495.253.22.456.5.609.84.153.339.23.739.23 1.198v5.194zm18.969-7.849-1.75 7.849h-1.335l-1.506-7.49-1.722 7.49h-1.334l-1.579-7.849h1.335l1.506 7.49 1.722-7.49h1.334l1.507 7.49 1.679-7.49h.143zm4.639-.115c.621 0 1.188.072 1.7.216.512.143.949.373 1.313.688.363.316.648.723.854 1.22.205.498.308 1.105.308 1.822v4.018l-.143-.014c0-.249-.039-.424-.115-.524a.39.39 0 0 0-.33-.151c-.192 0-.44.058-.746.172-.307.115-.641.225-1.005.33a6.843 6.843 0 0 1-.595.144 3.576 3.576 0 0 1-1.973-.201 3.25 3.25 0 0 1-1.04-.674 2.965 2.965 0 0 1-.653-.947 2.691 2.691 0 0 1-.23-1.076c0-.507.079-.947.237-1.321.158-.373.366-.686.624-.939.258-.254.55-.443.875-.567a2.78 2.78 0 0 1 1.005-.187c.287 0 .569.043.846.129.278.087.534.218.768.395.234.177.438.397.61.66s.301.567.387.911v-.158c0-.774-.048-1.411-.143-1.908-.096-.497-.251-.887-.467-1.169a1.664 1.664 0 0 0-.839-.589c-.344-.11-.761-.165-1.248-.165v-.115zm2.697 4.886c0-.399-.057-.751-.172-1.052a2.246 2.246 0 0 0-.459-.751 1.975 1.975 0 0 0-.639-.45 1.788 1.788 0 0 0-1.456.008c-.239.105-.452.26-.639.464a2.355 2.355 0 0 0-.452.779 3.468 3.468 0 0 0-.186 1.103c0 .354.041.7.122 1.045.081.344.208.648.38.916.172.267.385.483.639.65.253.167.547.251.882.251.325 0 .61-.076.854-.229.244-.153.449-.352.617-.601.167-.248.294-.531.38-.844.086-.316.129-.633.129-.959v-.33zM10.998 11.483V3.62h1.306v7.863zM12.577 1.798a.921.921 0 0 1-.266.653.865.865 0 0 1-.653.279.894.894 0 0 1-.652-.279.895.895 0 0 1-.28-.653c0-.259.093-.476.28-.653a.917.917 0 0 1 .652-.266c.249 0 .464.089.646.266a.874.874 0 0 1 .273.653z"></path>        </g>    </g></svg>