<svg xmlns="http://www.w3.org/2000/svg" xmlns:xlink="http://www.w3.org/1999/xlink" xmlns:xodm="http://www.corel.com/coreldraw/odm/2003" xml:space="preserve" width="400px" height="72px" style="shape-rendering:geometricPrecision; text-rendering:geometricPrecision; image-rendering:optimizeQuality; fill-rule:evenodd; clip-rule:evenodd" viewBox="0 0 402.33 72.19"><defs><style type="text/css">.fil0 {fill:#676766}</style></defs><g id="Layer_x0020_1"><metadata id="CorelCorpID_0Corel-Layer"></metadata>  <path class="fil0" d="M0 59.56l0.13 -17.59 1 0.17c1.19,4.47 2.61,7.99 4.27,10.56 3.09,4.74 6.99,7.12 11.68,7.12 3.28,0 5.98,-1.09 8.11,-3.28 2.14,-2.18 3.2,-4.95 3.2,-8.29 0,-1.45 -0.23,-2.93 -0.71,-4.42 -0.47,-1.51 -1.09,-2.8 -1.89,-3.88 -0.83,-1.1 -1.99,-2.16 -3.48,-3.19 -1.5,-1.02 -3.78,-2.31 -6.85,-3.88 -2.72,-1.34 -4.78,-2.51 -6.22,-3.43 -1.43,-0.95 -2.59,-1.89 -3.48,-2.85 -2.45,-2.67 -3.67,-5.92 -3.67,-9.75 0,-2.35 0.48,-4.62 1.44,-6.81 0.94,-2.18 2.27,-4.05 3.99,-5.62 3.02,-2.77 6.6,-4.16 10.72,-4.16 1.35,0 2.59,0.13 3.73,0.39 1.13,0.28 2.66,0.8 4.57,1.6 1.43,0.56 2.4,0.93 2.91,1.07 0.52,0.16 0.97,0.23 1.38,0.23 0.98,0 1.65,-0.71 2,-2.16l0.96 0 0.26 16.89 -0.96 0c-0.77,-2.69 -1.42,-4.77 -1.99,-6.21 -0.55,-1.43 -1.2,-2.75 -1.97,-3.97 -1.4,-2.22 -2.93,-3.86 -4.6,-4.94 -1.69,-1.06 -3.62,-1.59 -5.81,-1.59 -3.18,0 -5.69,1.07 -7.54,3.23 -0.77,0.89 -1.37,1.93 -1.81,3.12 -0.44,1.19 -0.66,2.38 -0.66,3.59 0,4.74 3.05,8.56 9.15,11.46l6 2.9c4.63,2.2 7.97,4.62 10,7.26 2.33,2.96 3.5,6.4 3.5,10.32 0,2.6 -0.53,5.08 -1.59,7.45 -1.48,3.29 -3.7,5.84 -6.64,7.63 -2.96,1.79 -6.45,2.68 -10.47,2.68 -3.67,0 -7.2,-0.72 -10.58,-2.19 -1.77,-0.78 -2.81,-1.21 -3.16,-1.33 -0.33,-0.12 -0.73,-0.18 -1.15,-0.18 -1.36,0 -2.3,0.69 -2.81,2.05l-0.96 0zm70.76 1.05c-0.36,-1.72 -0.55,-3.49 -0.55,-5.29 -3.55,3.53 -7.76,5.29 -12.62,5.29 -3.56,0 -6.42,-0.88 -8.58,-2.6 -2.1,-1.7 -3.15,-4.09 -3.15,-7.22l0 -14.77 -0.04 -3.22c0,-1.93 -0.12,-3.33 -0.34,-4.21 -0.23,-0.87 -0.65,-1.63 -1.29,-2.25 -0.81,-0.77 -2.29,-1.34 -4.43,-1.7l0 -0.96 12.54 0 0 21.57c0,3.03 0.11,5.28 0.32,6.73 0.22,1.47 0.6,2.67 1.16,3.6 0.63,0.96 1.53,1.73 2.69,2.28 1.16,0.55 2.47,0.83 3.9,0.83 1.6,0 3.08,-0.31 4.47,-0.93 1.4,-0.62 2.48,-1.48 3.27,-2.55 0.83,-1.11 1.38,-2.38 1.64,-3.82 0.27,-1.45 0.41,-3.82 0.41,-7.14l0 -8.32 -0.05 -3.13c0,-1.93 -0.1,-3.34 -0.32,-4.21 -0.22,-0.87 -0.64,-1.63 -1.3,-2.25 -0.79,-0.77 -2.27,-1.34 -4.43,-1.7l0 -0.96 12.54 0 0 23.09c0,2.92 0.07,4.97 0.23,6.14 0.16,1.18 0.47,2.14 0.92,2.88 0.5,0.8 1.08,1.36 1.77,1.72 0.68,0.35 1.65,0.57 2.91,0.66l0 0.87 -11.67 1.57zm25.01 -18.45c0,3.92 0.17,6.86 0.51,8.85 0.33,1.98 0.94,3.59 1.81,4.81 0.8,1.07 1.83,1.94 3.12,2.59 1.28,0.66 2.59,0.98 3.92,0.98 2.99,0 5.6,-1.43 7.82,-4.26 1.37,-1.69 2.41,-3.71 3.14,-6.03 0.74,-2.33 1.1,-4.76 1.1,-7.29 0,-2.44 -0.35,-4.82 -1.03,-7.15 -0.7,-2.36 -1.67,-4.36 -2.9,-6.03 -2.12,-2.89 -4.7,-4.34 -7.75,-4.34 -1.5,0 -2.9,0.37 -4.24,1.11 -1.32,0.74 -2.38,1.74 -3.18,3.01 -0.87,1.37 -1.48,3.07 -1.81,5.1 -0.34,2.02 -0.51,4.9 -0.51,8.65zm0 14.12l0.04 3.91 0 2.93c0,1.93 0.11,3.34 0.34,4.23 0.22,0.9 0.67,1.65 1.32,2.27 0.8,0.77 2.26,1.34 4.4,1.7l0 0.87 -18.9 0 0 -0.87c1.71,-0.23 2.95,-0.54 3.7,-0.94 0.74,-0.39 1.33,-1.09 1.8,-2.08 0.31,-0.65 0.54,-1.64 0.67,-2.97 0.13,-1.34 0.19,-3.24 0.19,-5.7l0 -25.48c0,-3.21 -0.51,-5.5 -1.51,-6.85 -1.02,-1.37 -2.72,-2.05 -5.11,-2.05l0 -1.04 12.45 -1.75c0.29,1.35 0.44,2.6 0.44,3.73l0 0.8c2.1,-1.41 4.06,-2.41 5.9,-3.02 1.85,-0.59 3.85,-0.9 6,-0.9 4.31,0 7.99,1.3 11.06,3.88 1.93,1.64 3.41,3.69 4.47,6.15 1.04,2.47 1.56,5.18 1.56,8.16 0,3.09 -0.56,5.96 -1.68,8.63 -1.12,2.66 -2.7,4.87 -4.78,6.59 -3.22,2.75 -7.05,4.13 -11.49,4.13 -2.12,0 -3.96,-0.31 -5.5,-0.93 -1.54,-0.63 -3.34,-1.76 -5.37,-3.4zm42.8 -26.69c1,-1.79 2.13,-3.12 3.41,-4.02 2.35,-1.67 5.04,-2.5 8.04,-2.5 1.84,0 3.25,0.41 4.21,1.24 0.88,0.72 1.32,1.62 1.32,2.7 0,0.79 -0.26,1.43 -0.78,1.94 -0.53,0.51 -1.21,0.77 -2.02,0.77 -0.97,0 -1.82,-0.41 -2.51,-1.19l-1.32 -1.45c-1.05,-1.1 -2.28,-1.65 -3.7,-1.65 -1.93,0 -3.43,1.24 -4.52,3.74 -1.07,2.48 -1.61,5.95 -1.61,10.41l0 7.93 0.04 3.24c0,1.93 0.12,3.34 0.34,4.22 0.23,0.9 0.67,1.64 1.32,2.24 0.8,0.77 2.26,1.35 4.4,1.74l0 0.87 -18.81 0 0 -0.87c1.7,-0.23 2.9,-0.54 3.64,-0.96 0.74,-0.4 1.32,-1.1 1.79,-2.09 0.3,-0.64 0.52,-1.62 0.65,-2.93 0.13,-1.31 0.19,-3.21 0.19,-5.69l0 -10.43c0,-2.91 -0.08,-4.95 -0.22,-6.11 -0.13,-1.18 -0.45,-2.12 -0.93,-2.86 -0.48,-0.79 -1.07,-1.37 -1.76,-1.71 -0.68,-0.35 -1.65,-0.57 -2.93,-0.66l0 -0.87 10.99 -1.57c0.51,2.54 0.77,4.71 0.77,6.52zm43.73 5.41c-0.21,-2.81 -0.73,-4.97 -1.57,-6.5 -0.76,-1.38 -1.79,-2.47 -3.05,-3.26 -1.28,-0.8 -2.63,-1.21 -4.06,-1.21 -2.43,0 -4.56,1.05 -6.37,3.12 -1.83,2.09 -2.91,4.7 -3.24,7.85l18.29 0zm-18.55 1.66c-0.12,1.39 -0.18,2.39 -0.18,3.02 0,2.46 0.37,4.89 1.09,7.24 0.71,2.35 1.7,4.31 2.95,5.88 1.26,1.58 2.84,2.84 4.73,3.74 1.87,0.92 3.85,1.37 5.92,1.37 1.53,0 2.98,-0.27 4.34,-0.77 1.38,-0.51 2.51,-1.22 3.43,-2.14 1.01,-0.98 1.88,-2.57 2.62,-4.76l0.87 0.31c-0.74,3.32 -2.32,5.83 -4.74,7.52 -2.43,1.69 -5.65,2.54 -9.68,2.54 -3.49,0 -6.47,-0.56 -8.97,-1.66 -2.5,-1.1 -4.62,-2.82 -6.34,-5.11 -2.41,-3.19 -3.62,-7.14 -3.62,-11.81 0,-6.37 2.28,-11.38 6.85,-15.01 3.31,-2.63 7.1,-3.95 11.35,-3.95 2.27,0 4.36,0.41 6.29,1.21 1.93,0.81 3.55,1.97 4.89,3.5 2.07,2.36 3.1,5.32 3.1,8.88l-24.9 0zm40.39 -13.59c0.52,1.99 0.84,3.95 0.98,5.91 1.79,-1.9 3.79,-3.35 6.01,-4.38 2.24,-1.02 4.55,-1.53 6.95,-1.53 2.68,0 4.9,0.69 6.68,2.05 1.08,0.81 2.31,2.25 3.7,4.28 2.15,-2.17 4.33,-3.77 6.5,-4.8 2.18,-1.02 4.55,-1.53 7.06,-1.53 3.41,0 6.16,0.93 8.31,2.79 2.14,1.84 3.21,4.28 3.21,7.27l0 14.4 0.04 3.22c0,1.93 0.12,3.34 0.34,4.22 0.23,0.9 0.67,1.64 1.29,2.24 0.81,0.77 2.29,1.35 4.43,1.74l0 0.87 -18.81 0 0 -0.87c1.7,-0.23 2.9,-0.55 3.63,-0.96 0.71,-0.4 1.32,-1.1 1.8,-2.1 0.3,-0.64 0.52,-1.63 0.65,-2.95 0.13,-1.32 0.19,-3.2 0.19,-5.66l0 -8.11c0,-3.14 -0.11,-5.43 -0.29,-6.88 -0.21,-1.44 -0.58,-2.67 -1.15,-3.69 -1.34,-2.41 -3.63,-3.61 -6.88,-3.61 -3.5,0 -6.05,1.3 -7.63,3.9 -1.38,2.24 -2.08,5.72 -2.08,10.45l0 8.19 0.05 3.22c0,1.93 0.11,3.34 0.33,4.24 0.23,0.88 0.67,1.62 1.29,2.22 0.78,0.77 2.26,1.35 4.43,1.74l0 0.87 -18.81 0 0 -0.87c1.7,-0.23 2.9,-0.55 3.63,-0.96 0.71,-0.4 1.32,-1.12 1.8,-2.1 0.3,-0.65 0.52,-1.64 0.65,-2.95 0.13,-1.32 0.19,-3.22 0.19,-5.67l0 -7.87c0,-3.32 -0.1,-5.75 -0.32,-7.28 -0.21,-1.56 -0.61,-2.81 -1.21,-3.78 -0.62,-1.01 -1.49,-1.81 -2.62,-2.39 -1.12,-0.58 -2.4,-0.87 -3.81,-0.87 -1.61,0 -3.12,0.37 -4.52,1.14 -1.41,0.77 -2.53,1.8 -3.34,3.11 -0.77,1.16 -1.31,2.55 -1.63,4.18 -0.33,1.64 -0.49,3.74 -0.49,6.31l0 7.78 0.04 3.15c0,1.93 0.12,3.34 0.34,4.22 0.23,0.9 0.66,1.64 1.32,2.24 0.8,0.77 2.26,1.35 4.39,1.74l0 0.87 -18.8 0 0 -0.87c1.69,-0.23 2.9,-0.54 3.64,-0.96 0.74,-0.4 1.32,-1.1 1.78,-2.09 0.31,-0.65 0.53,-1.64 0.66,-2.94 0.13,-1.32 0.19,-3.22 0.19,-5.71l0 -10.46c0,-2.92 -0.08,-4.96 -0.22,-6.13 -0.13,-1.17 -0.45,-2.13 -0.93,-2.87 -0.48,-0.78 -1.08,-1.35 -1.76,-1.71 -0.68,-0.35 -1.65,-0.57 -2.93,-0.65l0 -0.88 11.73 -1.48zm101.08 36.75l0 -12.1 0.7 0c0.8,2.96 1.78,5.32 2.96,7.09 2.17,3.23 4.71,4.84 7.63,4.84 1.77,0 3.32,-0.54 4.62,-1.61 1.4,-1.19 2.12,-2.88 2.12,-5.05 0,-1.79 -0.51,-3.36 -1.53,-4.68 -0.56,-0.71 -1.28,-1.36 -2.15,-1.96 -0.85,-0.59 -2.3,-1.43 -4.34,-2.51 -3.55,-1.88 -5.93,-3.47 -7.12,-4.74 -1.7,-1.8 -2.54,-3.89 -2.54,-6.27 0,-2.56 0.85,-4.76 2.55,-6.61 1.96,-2.1 4.56,-3.15 7.78,-3.15 1.45,0 2.8,0.27 4.05,0.77l1.44 0.63c0.46,0.17 0.85,0.26 1.19,0.26 0.55,0 1.06,-0.35 1.54,-1.05l0.87 0 0.43 9.41 -0.87 0c-0.3,-1.35 -0.64,-2.44 -1,-3.27 -0.35,-0.81 -0.86,-1.59 -1.49,-2.36 -0.89,-1.08 -1.91,-1.92 -3.07,-2.51 -1.16,-0.61 -2.3,-0.92 -3.42,-0.92 -1.6,0 -2.95,0.57 -4.07,1.71 -1.11,1.15 -1.66,2.56 -1.66,4.23 0,1.38 0.5,2.64 1.5,3.76 1.01,1.11 2.54,2.13 4.63,3.06l4.49 2.05c2.68,1.21 4.69,2.74 6.02,4.55 1.32,1.82 1.99,3.95 1.99,6.42 0,2.97 -0.96,5.44 -2.89,7.4 -2.2,2.26 -5.03,3.4 -8.49,3.4 -1.87,0 -3.77,-0.38 -5.69,-1.14 -1.25,-0.49 -2,-0.78 -2.26,-0.85 -0.25,-0.08 -0.58,-0.11 -0.97,-0.11 -0.99,0 -1.75,0.44 -2.25,1.31l-0.7 0zm-14.9 0.79c-0.37,-1.72 -0.56,-3.49 -0.56,-5.29 -3.55,3.53 -7.76,5.29 -12.62,5.29 -3.56,0 -6.42,-0.88 -8.58,-2.6 -2.1,-1.7 -3.15,-4.1 -3.15,-7.22l0 -14.77 -0.04 -3.22c0,-1.93 -0.12,-3.33 -0.34,-4.21 -0.23,-0.87 -0.65,-1.63 -1.29,-2.25 -0.81,-0.77 -2.29,-1.34 -4.42,-1.7l0 -0.96 12.54 0 0 21.57c0,3.03 0.1,5.28 0.31,6.73 0.22,1.47 0.6,2.67 1.17,3.6 0.62,0.96 1.52,1.73 2.68,2.28 1.16,0.55 2.47,0.83 3.91,0.83 1.59,0 3.07,-0.31 4.46,-0.93 1.4,-0.62 2.49,-1.48 3.27,-2.55 0.83,-1.11 1.38,-2.38 1.64,-3.82 0.28,-1.45 0.41,-3.82 0.41,-7.14l0 -8.32 -0.05 -3.13c0,-1.93 -0.1,-3.34 -0.32,-4.21 -0.21,-0.87 -0.64,-1.63 -1.3,-2.25 -0.79,-0.77 -2.27,-1.34 -4.43,-1.7l0 -0.96 12.54 0 0 23.09c0,2.92 0.07,4.97 0.23,6.14 0.16,1.18 0.47,2.14 0.92,2.88 0.51,0.8 1.09,1.36 1.77,1.72 0.68,0.35 1.65,0.57 2.92,0.66l0 0.87 -11.67 1.57zm112.01 -24.26l0 -30.71 -14.27 22.59c7.56,0 12.45,3.58 14.27,8.12zm-56.87 22.08l0 13.7 9.99 0c-5.89,-3.12 -8.67,-8.83 -9.99,-13.7zm28.5 -24.91l-7.44 0 20.11 -33.52 -27.35 0c2.31,1.99 3.78,4.92 3.78,8.21 0,5.97 -4.84,10.82 -10.82,10.82 -2.57,0 -4.92,-0.9 -6.78,-2.4l0 33.14 19.59 0c0,11.75 3.72,16.74 11.75,16.74 8.03,0 9.3,-10.08 9.3,-20.56 0,-10.48 -12.14,-12.43 -12.14,-12.43zm28.37 24.91l0 13.7 -9.98 0c5.89,-3.12 8.67,-8.83 9.98,-13.7zm-82.96 -37.96l-5.76 -20.21 4.09 0 2.38 9.15c0.23,0.89 0.43,1.85 0.59,2.86 0.16,1.02 0.29,2.09 0.38,3.2 0.06,-1.03 0.17,-2.05 0.32,-3.05 0.15,-1 0.35,-1.97 0.58,-2.93l2.32 -9.23 4.2 0 -5.72 20.21 -3.38 0zm-19.19 0l4.7 -20.21 4.22 0 4.49 20.21 -4.03 0 -0.68 -3.54 -4.05 0 -0.62 3.54 -4.03 0zm5.38 -6.69l2.69 0c-0.28,-1.41 -0.53,-2.89 -0.75,-4.43 -0.22,-1.55 -0.41,-3.18 -0.58,-4.9 -0.2,1.52 -0.42,3.05 -0.65,4.61 -0.22,1.55 -0.46,3.13 -0.71,4.72zm-20.55 6.69l0 -20.21 4 0 0 7.48 4.51 0 0 -7.48 4.03 0 0 20.21 -4.03 0 0 -8.79 -4.51 0 0 8.79 -4 0zm-8.66 -20.21l4.11 0 0 20.21 -4.11 0 0 -20.21zm-11.49 20.21l-5.76 -20.21 4.08 0 2.39 9.15c0.23,0.89 0.43,1.85 0.59,2.86 0.16,1.02 0.29,2.09 0.37,3.2 0.07,-1.03 0.18,-2.05 0.33,-3.05 0.15,-1 0.35,-1.97 0.58,-2.93l2.32 -9.23 4.2 0 -5.72 20.21 -3.38 0z"></path></g></svg>