<svg xmlns="http://www.w3.org/2000/svg" xmlns:xlink="http://www.w3.org/1999/xlink" xml:space="preserve" width="261px" height="100px" style="shape-rendering:geometricPrecision; text-rendering:geometricPrecision; image-rendering:optimizeQuality; fill-rule:evenodd; clip-rule:evenodd" viewBox="0 0 292.25 112.03"> <defs>  <style type="text/css">       .fil0 {fill:#80643B;fill-rule:nonzero}     </style> </defs> <g id="Layer_x0020_1">  <metadata id="VihavSupremus2"></metadata>  <path class="fil0" d="M0 102.73l0.1 -12.96 0.73 0.13c0.88,3.29 1.93,5.88 3.15,7.77 2.27,3.5 5.15,5.25 8.6,5.25 2.42,0 4.41,-0.8 5.98,-2.42 1.57,-1.6 2.35,-3.64 2.35,-6.1 0,-1.07 -0.17,-2.16 -0.52,-3.26 -0.34,-1.11 -0.8,-2.06 -1.39,-2.86 -0.61,-0.81 -1.47,-1.59 -2.57,-2.35 -1.1,-0.75 -2.78,-1.7 -5.04,-2.85 -2,-1 -3.52,-1.85 -4.58,-2.54 -1.06,-0.69 -1.91,-1.38 -2.57,-2.09 -1.8,-1.97 -2.7,-4.36 -2.7,-7.19 0,-1.73 0.35,-3.4 1.06,-5.01 0.69,-1.6 1.68,-2.98 2.94,-4.14 2.22,-2.04 4.86,-3.07 7.9,-3.07 0.99,0 1.9,0.1 2.75,0.29 0.83,0.21 1.95,0.59 3.36,1.18 1.05,0.42 1.77,0.68 2.14,0.79 0.39,0.12 0.72,0.17 1.02,0.17 0.73,0 1.22,-0.52 1.47,-1.59l0.71 0 0.19 12.44 -0.7 0c-0.57,-1.99 -1.05,-3.51 -1.47,-4.57 -0.4,-1.06 -0.89,-2.03 -1.45,-2.93 -1.03,-1.64 -2.16,-2.85 -3.39,-3.64 -1.24,-0.78 -2.66,-1.17 -4.28,-1.17 -2.34,0 -4.19,0.79 -5.56,2.38 -0.56,0.65 -1,1.42 -1.32,2.3 -0.33,0.88 -0.5,1.75 -0.5,2.64 0,3.5 2.25,6.31 6.75,8.45l4.42 2.13c3.41,1.62 5.87,3.4 7.36,5.35 1.72,2.18 2.58,4.71 2.58,7.6 0,1.91 -0.39,3.74 -1.17,5.49 -1.09,2.42 -2.72,4.3 -4.89,5.62 -2.18,1.31 -4.75,1.98 -7.71,1.98 -2.71,0 -5.3,-0.54 -7.79,-1.62 -1.31,-0.58 -2.08,-0.9 -2.33,-0.98 -0.25,-0.09 -0.54,-0.13 -0.85,-0.13 -1,0 -1.7,0.5 -2.07,1.51l-0.71 0zm52.13 0.77c-0.27,-1.26 -0.41,-2.57 -0.41,-3.89 -2.62,2.59 -5.72,3.89 -9.3,3.89 -2.62,0 -4.72,-0.64 -6.32,-1.92 -1.55,-1.25 -2.32,-3.01 -2.32,-5.31l0 -10.88 -0.03 -2.38c0,-1.42 -0.08,-2.44 -0.24,-3.1 -0.18,-0.64 -0.49,-1.19 -0.96,-1.65 -0.59,-0.57 -1.68,-0.99 -3.26,-1.26l0 -0.7 9.24 0 0 15.89c0,2.23 0.07,3.89 0.24,4.96 0.16,1.08 0.43,1.96 0.85,2.65 0.46,0.7 1.12,1.27 1.98,1.68 0.85,0.4 1.82,0.61 2.87,0.61 1.18,0 2.27,-0.23 3.3,-0.69 1.02,-0.46 1.83,-1.09 2.4,-1.88 0.61,-0.81 1.02,-1.75 1.21,-2.81 0.2,-1.07 0.3,-2.81 0.3,-5.26l0 -6.13 -0.03 -2.31c0,-1.42 -0.08,-2.45 -0.24,-3.1 -0.16,-0.64 -0.47,-1.19 -0.96,-1.65 -0.58,-0.57 -1.67,-0.99 -3.26,-1.26l0 -0.7 9.24 0 0 17.01c0,2.15 0.05,3.66 0.17,4.52 0.11,0.87 0.34,1.57 0.67,2.12 0.38,0.59 0.8,1 1.31,1.27 0.5,0.26 1.21,0.42 2.14,0.48l0 0.64 -8.59 1.16zm18.42 -3.19l0.03 2.88 0 2.16c0,1.42 0.08,2.46 0.25,3.11 0.16,0.67 0.49,1.22 0.97,1.68 0.59,0.57 1.67,0.99 3.24,1.25l0 0.64 -13.92 0 0 -0.64c1.26,-0.17 2.17,-0.39 2.73,-0.69 0.54,-0.29 0.97,-0.81 1.32,-1.53 0.23,-0.48 0.4,-1.21 0.49,-2.19 0.1,-0.99 0.14,-2.39 0.14,-4.2l0 -18.77c0,-2.36 -0.37,-4.05 -1.11,-5.05 -0.75,-1 -2,-1.51 -3.76,-1.51l0 -0.77 9.17 -1.28c0.21,1 0.32,1.92 0.32,2.75l0 0.59c1.55,-1.04 2.99,-1.78 4.35,-2.23 1.36,-0.43 2.83,-0.66 4.42,-0.66 3.17,0 5.89,0.95 8.14,2.86 1.43,1.2 2.52,2.71 3.29,4.53 0.78,1.82 1.16,3.81 1.16,6.01 0,2.27 -0.42,4.39 -1.24,6.36 -0.82,1.95 -1.99,3.58 -3.52,4.85 -2.37,2.02 -5.19,3.04 -8.46,3.04 -1.57,0 -2.92,-0.23 -4.06,-0.69 -1.13,-0.46 -2.45,-1.29 -3.95,-2.5zm0 -10.4c0,2.89 0.13,5.06 0.37,6.52 0.25,1.46 0.7,2.64 1.34,3.54 0.59,0.79 1.35,1.43 2.3,1.91 0.94,0.48 1.9,0.72 2.88,0.72 2.21,0 4.13,-1.05 5.77,-3.13 1,-1.25 1.77,-2.74 2.31,-4.45 0.54,-1.71 0.81,-3.51 0.81,-5.37 0,-1.79 -0.26,-3.55 -0.76,-5.27 -0.51,-1.73 -1.23,-3.2 -2.14,-4.43 -1.56,-2.13 -3.46,-3.2 -5.71,-3.2 -1.1,0 -2.14,0.27 -3.12,0.81 -0.97,0.55 -1.75,1.29 -2.34,2.22 -0.64,1.01 -1.09,2.26 -1.34,3.76 -0.24,1.48 -0.37,3.61 -0.37,6.37zm31.52 -9.26c0.74,-1.31 1.58,-2.3 2.52,-2.96 1.73,-1.23 3.71,-1.84 5.92,-1.84 1.36,0 2.39,0.3 3.1,0.91 0.65,0.53 0.97,1.2 0.97,1.99 0,0.59 -0.19,1.06 -0.57,1.43 -0.39,0.38 -0.89,0.57 -1.49,0.57 -0.72,0 -1.34,-0.3 -1.85,-0.88l-0.97 -1.07c-0.77,-0.81 -1.68,-1.22 -2.73,-1.22 -1.42,0 -2.52,0.92 -3.32,2.76 -0.79,1.83 -1.19,4.38 -1.19,7.67l0 5.84 0.03 2.39c0,1.42 0.09,2.46 0.25,3.11 0.17,0.66 0.49,1.21 0.97,1.65 0.59,0.56 1.67,0.99 3.24,1.28l0 0.64 -13.86 0 0 -0.64c1.26,-0.17 2.14,-0.4 2.69,-0.71 0.54,-0.3 0.97,-0.81 1.31,-1.54 0.23,-0.47 0.39,-1.19 0.48,-2.16 0.1,-0.96 0.14,-2.36 0.14,-4.19l0 -7.68c0,-2.14 -0.05,-3.65 -0.16,-4.5 -0.09,-0.87 -0.33,-1.57 -0.68,-2.11 -0.35,-0.58 -0.79,-1.01 -1.3,-1.26 -0.5,-0.26 -1.21,-0.42 -2.15,-0.48l0 -0.65 8.09 -1.15c0.37,1.87 0.56,3.47 0.56,4.8zm18.55 5.21c-0.08,1.02 -0.12,1.76 -0.12,2.22 0,1.82 0.26,3.6 0.8,5.34 0.52,1.73 1.25,3.17 2.17,4.33 0.93,1.16 2.09,2.09 3.48,2.75 1.38,0.68 2.84,1.01 4.36,1.01 1.13,0 2.2,-0.19 3.2,-0.57 1.02,-0.37 1.85,-0.9 2.52,-1.57 0.75,-0.73 1.39,-1.89 1.94,-3.51l0.64 0.23c-0.55,2.45 -1.71,4.3 -3.5,5.54 -1.78,1.25 -4.16,1.87 -7.13,1.87 -2.56,0 -4.77,-0.41 -6.6,-1.22 -1.84,-0.81 -3.4,-2.08 -4.68,-3.76 -1.77,-2.36 -2.66,-5.26 -2.66,-8.71 0,-4.69 1.68,-8.38 5.05,-11.05 2.44,-1.94 5.23,-2.91 8.36,-2.91 1.67,0 3.21,0.3 4.63,0.89 1.42,0.6 2.62,1.45 3.6,2.58 1.53,1.74 2.29,3.92 2.29,6.54l-18.35 0zm13.67 -1.22c-0.15,-2.07 -0.54,-3.67 -1.16,-4.79 -0.56,-1.02 -1.31,-1.82 -2.24,-2.41 -0.94,-0.58 -1.94,-0.88 -3,-0.88 -1.78,0 -3.35,0.77 -4.69,2.29 -1.35,1.54 -2.14,3.47 -2.38,5.79l13.47 0zm16.08 -8.79c0.39,1.47 0.63,2.91 0.73,4.35 1.32,-1.4 2.79,-2.47 4.43,-3.23 1.64,-0.74 3.34,-1.12 5.12,-1.12 1.97,0 3.6,0.5 4.92,1.51 0.79,0.6 1.7,1.66 2.72,3.15 1.59,-1.6 3.19,-2.78 4.79,-3.54 1.61,-0.74 3.35,-1.12 5.2,-1.12 2.51,0 4.54,0.69 6.12,2.05 1.57,1.36 2.37,3.16 2.37,5.36l0 10.61 0.03 2.37c0,1.42 0.08,2.46 0.24,3.11 0.17,0.66 0.5,1.21 0.96,1.65 0.59,0.56 1.69,0.99 3.26,1.28l0 0.64 -13.86 0 0 -0.64c1.25,-0.17 2.14,-0.41 2.67,-0.71 0.53,-0.3 0.98,-0.81 1.33,-1.55 0.22,-0.47 0.38,-1.19 0.48,-2.17 0.1,-0.97 0.14,-2.36 0.14,-4.17l0 -5.97c0,-2.31 -0.08,-4 -0.21,-5.07 -0.15,-1.06 -0.43,-1.97 -0.85,-2.72 -0.98,-1.77 -2.67,-2.66 -5.07,-2.66 -2.57,0 -4.45,0.96 -5.62,2.88 -1.02,1.64 -1.53,4.21 -1.53,7.7l0 6.03 0.03 2.37c0,1.42 0.09,2.46 0.25,3.12 0.17,0.65 0.49,1.2 0.95,1.64 0.58,0.56 1.67,0.99 3.26,1.28l0 0.64 -13.85 0 0 -0.64c1.25,-0.17 2.13,-0.41 2.67,-0.71 0.52,-0.3 0.97,-0.82 1.32,-1.55 0.23,-0.48 0.39,-1.21 0.49,-2.17 0.09,-0.97 0.13,-2.37 0.13,-4.18l0 -5.79c0,-2.45 -0.07,-4.24 -0.23,-5.37 -0.15,-1.14 -0.45,-2.06 -0.89,-2.78 -0.46,-0.75 -1.1,-1.33 -1.93,-1.76 -0.83,-0.43 -1.77,-0.64 -2.8,-0.64 -1.19,0 -2.3,0.27 -3.34,0.84 -1.04,0.57 -1.86,1.33 -2.46,2.29 -0.56,0.85 -0.96,1.88 -1.2,3.08 -0.24,1.21 -0.36,2.76 -0.36,4.65l0 5.73 0.03 2.32c0,1.42 0.09,2.46 0.25,3.11 0.17,0.66 0.49,1.21 0.97,1.65 0.59,0.56 1.67,0.99 3.24,1.28l0 0.64 -13.85 0 0 -0.64c1.25,-0.17 2.13,-0.4 2.68,-0.71 0.55,-0.3 0.97,-0.81 1.31,-1.54 0.23,-0.48 0.39,-1.2 0.49,-2.17 0.09,-0.97 0.13,-2.37 0.13,-4.2l0 -7.71c0,-2.15 -0.05,-3.65 -0.16,-4.51 -0.09,-0.86 -0.33,-1.57 -0.68,-2.11 -0.35,-0.58 -0.79,-1 -1.29,-1.27 -0.51,-0.25 -1.22,-0.41 -2.16,-0.48l0 -0.64 8.63 -1.09zm63.48 27.65c-0.26,-1.26 -0.4,-2.57 -0.4,-3.89 -2.62,2.59 -5.72,3.89 -9.3,3.89 -2.62,0 -4.73,-0.64 -6.32,-1.92 -1.55,-1.25 -2.32,-3.01 -2.32,-5.31l0 -10.88 -0.03 -2.38c0,-1.42 -0.09,-2.44 -0.25,-3.1 -0.17,-0.64 -0.48,-1.19 -0.95,-1.65 -0.6,-0.57 -1.69,-0.99 -3.26,-1.26l0 -0.7 9.24 0 0 15.89c0,2.23 0.07,3.89 0.23,4.96 0.16,1.08 0.44,1.96 0.86,2.65 0.46,0.7 1.12,1.27 1.97,1.68 0.86,0.4 1.82,0.61 2.88,0.61 1.18,0 2.27,-0.23 3.29,-0.69 1.03,-0.46 1.83,-1.09 2.41,-1.88 0.61,-0.81 1.02,-1.75 1.21,-2.81 0.2,-1.07 0.3,-2.81 0.3,-5.26l0 -6.13 -0.04 -2.31c0,-1.42 -0.07,-2.45 -0.23,-3.1 -0.16,-0.64 -0.47,-1.19 -0.96,-1.65 -0.58,-0.57 -1.67,-0.99 -3.26,-1.26l0 -0.7 9.23 0 0 17.01c0,2.15 0.06,3.66 0.17,4.52 0.12,0.87 0.35,1.57 0.68,2.12 0.37,0.59 0.8,1 1.3,1.27 0.5,0.26 1.22,0.42 2.15,0.48l0 0.64 -8.6 1.16zm10.98 -0.58l0 -8.92 0.52 0c0.59,2.18 1.31,3.93 2.18,5.23 1.6,2.37 3.47,3.56 5.62,3.56 1.31,0 2.45,-0.39 3.4,-1.19 1.04,-0.87 1.56,-2.11 1.56,-3.71 0,-1.32 -0.37,-2.48 -1.12,-3.45 -0.42,-0.52 -0.94,-1 -1.58,-1.44 -0.63,-0.44 -1.7,-1.06 -3.2,-1.85 -2.62,-1.39 -4.37,-2.56 -5.25,-3.5 -1.25,-1.32 -1.87,-2.86 -1.87,-4.62 0,-1.88 0.63,-3.5 1.88,-4.86 1.45,-1.55 3.36,-2.32 5.73,-2.32 1.07,0 2.07,0.19 2.99,0.57l1.05 0.46c0.35,0.12 0.64,0.19 0.88,0.19 0.41,0 0.78,-0.26 1.13,-0.77l0.65 0 0.32 6.93 -0.64 0c-0.23,-1 -0.48,-1.8 -0.74,-2.41 -0.26,-0.6 -0.63,-1.17 -1.11,-1.74 -0.65,-0.79 -1.4,-1.41 -2.25,-1.85 -0.86,-0.45 -1.7,-0.67 -2.52,-0.67 -1.18,0 -2.17,0.41 -3,1.26 -0.82,0.84 -1.23,1.88 -1.23,3.11 0,1.01 0.38,1.94 1.12,2.77 0.73,0.82 1.87,1.57 3.41,2.25l3.3 1.51c1.98,0.9 3.45,2.02 4.44,3.36 0.97,1.33 1.46,2.91 1.46,4.72 0,2.19 -0.7,4.01 -2.13,5.46 -1.62,1.66 -3.71,2.5 -6.25,2.5 -1.38,0 -2.78,-0.28 -4.19,-0.84 -0.92,-0.36 -1.48,-0.57 -1.67,-0.63 -0.18,-0.05 -0.43,-0.07 -0.71,-0.07 -0.73,0 -1.29,0.32 -1.66,0.96l-0.52 0zm35.12 -43.86l3.47 0 7.03 0 3.46 0 0 4.07 -3.46 0 0 35.75 3.46 0 0 4.07 -13.96 0 0 -4.07 3.47 0 0 -35.75 -3.47 0 0 -4.07zm18.34 0l3.47 0 7.03 0 3.46 0 0 4.07 -3.46 0 0 35.75 3.46 0 0 4.07 -13.96 0 0 -4.07 3.47 0 0 -35.75 -3.47 0 0 -4.07zm-124.15 9.29l0 -11.32 0 -2.68 0 -21.38 -32.83 -32.97 -32.82 32.97 0 21.38 0 13.88 32.83 -32.84c11.17,11.01 22.01,21.65 32.82,32.96z"></path> </g></svg>