<svg xmlns="http://www.w3.org/2000/svg" xmlns:xlink="http://www.w3.org/1999/xlink" xml:space="preserve" width="264px" height="100px" style="shape-rendering:geometricPrecision; text-rendering:geometricPrecision; image-rendering:optimizeQuality; fill-rule:evenodd; clip-rule:evenodd" viewBox="0 0 264 99.93"> <defs>  <style type="text/css">       .fil1 {fill:#2B2A29;fill-opacity:0.850980}    .fil0 {fill:#2B2A29;fill-rule:nonzero;fill-opacity:0.850980}     </style> </defs> <g id="Layer_x0020_1">  <metadata id="VihavSupremusLogoDark"></metadata>  <g id="_2180359082208">   <g>    <path class="fil0" d="M0 89.78l0.11 -14.14 0.8 0.14c0.96,3.6 2.1,6.42 3.43,8.48 2.48,3.82 5.62,5.73 9.39,5.73 2.64,0 4.81,-0.87 6.52,-2.64 1.71,-1.75 2.57,-3.97 2.57,-6.66 0,-1.16 -0.19,-2.35 -0.58,-3.55 -0.37,-1.22 -0.87,-2.26 -1.51,-3.12 -0.67,-0.88 -1.6,-1.74 -2.8,-2.56 -1.2,-0.82 -3.03,-1.86 -5.51,-3.12 -2.18,-1.08 -3.83,-2.02 -4.99,-2.76 -1.15,-0.76 -2.09,-1.52 -2.8,-2.29 -1.97,-2.15 -2.95,-4.76 -2.95,-7.84 0,-1.89 0.39,-3.71 1.16,-5.47 0.75,-1.75 1.83,-3.25 3.2,-4.51 2.43,-2.23 5.31,-3.35 8.62,-3.35 1.09,0 2.08,0.1 3,0.31 0.91,0.23 2.14,0.64 3.67,1.29 1.15,0.45 1.93,0.74 2.34,0.86 0.42,0.13 0.78,0.19 1.11,0.19 0.79,0 1.33,-0.58 1.61,-1.74l0.77 0 0.21 13.58 -0.78 0c-0.61,-2.17 -1.14,-3.84 -1.59,-5 -0.45,-1.15 -0.97,-2.21 -1.59,-3.19 -1.12,-1.79 -2.36,-3.11 -3.7,-3.97 -1.35,-0.85 -2.9,-1.28 -4.66,-1.28 -2.56,0 -4.57,0.86 -6.07,2.6 -0.62,0.71 -1.09,1.55 -1.44,2.51 -0.37,0.95 -0.54,1.91 -0.54,2.88 0,3.81 2.45,6.88 7.36,9.21l4.82 2.34c3.72,1.76 6.4,3.71 8.03,5.83 1.88,2.38 2.82,5.14 2.82,8.29 0,2.09 -0.43,4.08 -1.28,5.99 -1.19,2.64 -2.97,4.7 -5.34,6.13 -2.38,1.44 -5.18,2.16 -8.41,2.16 -2.95,0 -5.78,-0.58 -8.5,-1.76 -1.43,-0.63 -2.27,-0.98 -2.54,-1.07 -0.27,-0.1 -0.59,-0.14 -0.93,-0.14 -1.09,0 -1.85,0.54 -2.26,1.64l-0.77 0z"></path>    <path class="fil0" d="M56.88 90.62c-0.3,-1.38 -0.45,-2.8 -0.45,-4.25 -2.86,2.84 -6.24,4.25 -10.14,4.25 -2.86,0 -5.16,-0.7 -6.9,-2.09 -1.69,-1.36 -2.53,-3.29 -2.53,-5.8l0 -11.87 -0.04 -2.59c0,-1.55 -0.09,-2.67 -0.26,-3.38 -0.19,-0.7 -0.53,-1.31 -1.04,-1.81 -0.65,-0.62 -1.84,-1.07 -3.56,-1.36l0 -0.78 10.08 0 0 17.34c0,2.44 0.08,4.24 0.26,5.41 0.17,1.18 0.47,2.15 0.93,2.89 0.5,0.77 1.22,1.39 2.16,1.84 0.93,0.44 1.98,0.66 3.13,0.66 1.29,0 2.48,-0.24 3.6,-0.75 1.12,-0.5 1.99,-1.19 2.62,-2.05 0.67,-0.89 1.11,-1.91 1.32,-3.07 0.22,-1.16 0.33,-3.07 0.33,-5.74l0 -6.68 -0.04 -2.52c0,-1.55 -0.08,-2.68 -0.26,-3.38 -0.17,-0.7 -0.51,-1.31 -1.05,-1.81 -0.62,-0.62 -1.81,-1.07 -3.55,-1.36l0 -0.78 10.08 0 0 18.56c0,2.35 0.05,3.99 0.18,4.94 0.13,0.94 0.38,1.71 0.74,2.31 0.4,0.64 0.87,1.09 1.42,1.39 0.55,0.28 1.33,0.45 2.34,0.52l0 0.7 -9.37 1.26z"></path>    <path class="fil0" d="M76.97 87.14l0.04 3.15 0 2.35c0,1.55 0.09,2.69 0.27,3.4 0.18,0.72 0.53,1.33 1.06,1.83 0.64,0.62 1.82,1.07 3.53,1.36l0 0.7 -15.19 0 0 -0.7c1.38,-0.18 2.37,-0.43 2.98,-0.75 0.59,-0.32 1.07,-0.88 1.45,-1.67 0.25,-0.53 0.43,-1.32 0.53,-2.39 0.11,-1.08 0.15,-2.61 0.15,-4.59l0 -20.47c0,-2.58 -0.4,-4.43 -1.21,-5.51 -0.81,-1.1 -2.18,-1.64 -4.11,-1.64l0 -0.85 10.01 -1.39c0.24,1.08 0.35,2.08 0.35,2.99l0 0.64c1.69,-1.13 3.27,-1.93 4.75,-2.42 1.48,-0.48 3.09,-0.73 4.82,-0.73 3.46,0 6.43,1.04 8.89,3.12 1.55,1.32 2.74,2.96 3.59,4.95 0.84,1.98 1.26,4.16 1.26,6.55 0,2.49 -0.46,4.8 -1.35,6.94 -0.9,2.14 -2.17,3.91 -3.84,5.3 -2.59,2.2 -5.67,3.31 -9.24,3.31 -1.7,0 -3.18,-0.25 -4.42,-0.75 -1.24,-0.5 -2.68,-1.41 -4.32,-2.73zm0 -11.35c0,3.15 0.14,5.52 0.41,7.12 0.27,1.59 0.76,2.88 1.46,3.86 0.64,0.86 1.47,1.56 2.51,2.09 1.02,0.52 2.07,0.78 3.15,0.78 2.4,0 4.5,-1.14 6.28,-3.42 1.1,-1.36 1.94,-2.98 2.52,-4.85 0.6,-1.87 0.89,-3.83 0.89,-5.86 0,-1.96 -0.28,-3.87 -0.83,-5.75 -0.56,-1.89 -1.34,-3.5 -2.33,-4.84 -1.7,-2.32 -3.78,-3.49 -6.23,-3.49 -1.2,0 -2.33,0.3 -3.41,0.89 -1.06,0.6 -1.91,1.4 -2.55,2.43 -0.7,1.09 -1.19,2.46 -1.46,4.09 -0.27,1.62 -0.41,3.94 -0.41,6.95z"></path>    <path class="fil0" d="M111.37 65.69c0.81,-1.43 1.72,-2.51 2.74,-3.23 1.89,-1.34 4.05,-2.01 6.46,-2.01 1.49,0 2.62,0.33 3.39,1 0.71,0.58 1.06,1.3 1.06,2.17 0,0.64 -0.21,1.15 -0.63,1.56 -0.42,0.41 -0.97,0.62 -1.62,0.62 -0.78,0 -1.46,-0.33 -2.02,-0.96l-1.06 -1.17c-0.84,-0.88 -1.83,-1.33 -2.98,-1.33 -1.55,0 -2.75,1.01 -3.62,3.01 -0.87,2 -1.3,4.79 -1.3,8.37l0 6.38 0.04 2.6c0,1.55 0.09,2.68 0.27,3.39 0.18,0.73 0.53,1.32 1.06,1.8 0.64,0.62 1.82,1.08 3.53,1.4l0 0.7 -15.12 0 0 -0.7c1.37,-0.19 2.34,-0.43 2.93,-0.77 0.6,-0.33 1.06,-0.89 1.43,-1.68 0.25,-0.51 0.43,-1.31 0.53,-2.36 0.11,-1.05 0.15,-2.57 0.15,-4.57l0 -8.38c0,-2.34 -0.06,-3.98 -0.17,-4.92 -0.11,-0.94 -0.36,-1.7 -0.75,-2.29 -0.38,-0.63 -0.86,-1.1 -1.41,-1.38 -0.55,-0.28 -1.33,-0.45 -2.36,-0.53l0 -0.69 8.83 -1.27c0.41,2.05 0.62,3.78 0.62,5.24z"></path>    <path class="fil0" d="M131.61 71.37c-0.1,1.12 -0.14,1.93 -0.14,2.43 0,1.98 0.29,3.93 0.87,5.82 0.57,1.89 1.37,3.47 2.37,4.72 1.02,1.28 2.29,2.29 3.8,3.01 1.51,0.74 3.1,1.1 4.76,1.1 1.23,0 2.39,-0.21 3.49,-0.62 1.11,-0.41 2.02,-0.98 2.75,-1.71 0.82,-0.8 1.52,-2.07 2.12,-3.83l0.7 0.25c-0.6,2.67 -1.87,4.69 -3.82,6.04 -1.95,1.36 -4.54,2.04 -7.78,2.04 -2.8,0 -5.2,-0.44 -7.21,-1.33 -2.01,-0.89 -3.71,-2.26 -5.1,-4.11 -1.93,-2.56 -2.9,-5.73 -2.9,-9.49 0,-5.12 1.83,-9.15 5.51,-12.06 2.65,-2.11 5.7,-3.18 9.12,-3.18 1.82,0 3.5,0.33 5.05,0.97 1.55,0.66 2.86,1.59 3.93,2.81 1.67,1.91 2.5,4.29 2.5,7.14l-20.02 0zm14.91 -1.33c-0.17,-2.26 -0.59,-4 -1.26,-5.22 -0.61,-1.11 -1.44,-1.99 -2.45,-2.63 -1.03,-0.64 -2.11,-0.96 -3.27,-0.96 -1.95,0 -3.66,0.83 -5.12,2.5 -1.47,1.68 -2.33,3.78 -2.6,6.31l14.7 0z"></path>    <path class="fil0" d="M164.07 60.45c0.42,1.6 0.68,3.18 0.79,4.75 1.44,-1.53 3.05,-2.69 4.83,-3.52 1.8,-0.82 3.65,-1.23 5.59,-1.23 2.15,0 3.93,0.55 5.37,1.65 0.86,0.65 1.85,1.81 2.97,3.44 1.73,-1.75 3.48,-3.03 5.23,-3.86 1.74,-0.82 3.65,-1.23 5.66,-1.23 2.75,0 4.96,0.75 6.69,2.25 1.71,1.48 2.58,3.44 2.58,5.84l0 11.57 0.03 2.59c0,1.55 0.09,2.68 0.27,3.39 0.19,0.73 0.54,1.32 1.04,1.8 0.65,0.62 1.84,1.08 3.55,1.4l0 0.7 -15.11 0 0 -0.7c1.36,-0.19 2.33,-0.44 2.91,-0.77 0.58,-0.33 1.06,-0.89 1.45,-1.69 0.25,-0.51 0.42,-1.31 0.52,-2.37 0.11,-1.06 0.16,-2.58 0.16,-4.55l0 -6.52c0,-2.52 -0.08,-4.36 -0.24,-5.53 -0.16,-1.15 -0.46,-2.14 -0.92,-2.96 -1.07,-1.94 -2.91,-2.9 -5.53,-2.9 -2.81,0 -4.86,1.04 -6.13,3.13 -1.11,1.8 -1.67,4.6 -1.67,8.4l0 6.58 0.03 2.59c0,1.55 0.1,2.68 0.27,3.41 0.19,0.71 0.54,1.3 1.04,1.78 0.63,0.62 1.82,1.08 3.56,1.4l0 0.7 -15.12 0 0 -0.7c1.37,-0.19 2.33,-0.44 2.92,-0.77 0.57,-0.33 1.06,-0.9 1.44,-1.69 0.25,-0.53 0.42,-1.32 0.53,-2.37 0.1,-1.06 0.15,-2.59 0.15,-4.56l0 -6.32c0,-2.67 -0.08,-4.62 -0.26,-5.86 -0.16,-1.25 -0.49,-2.25 -0.96,-3.03 -0.51,-0.82 -1.21,-1.46 -2.11,-1.93 -0.9,-0.46 -1.93,-0.7 -3.06,-0.7 -1.3,0 -2.51,0.31 -3.64,0.93 -1.13,0.61 -2.03,1.44 -2.68,2.49 -0.62,0.94 -1.05,2.06 -1.31,3.36 -0.27,1.32 -0.4,3.01 -0.4,5.08l0 6.25 0.04 2.53c0,1.55 0.09,2.68 0.27,3.39 0.18,0.73 0.53,1.32 1.06,1.8 0.64,0.62 1.82,1.08 3.53,1.4l0 0.7 -15.11 0 0 -0.7c1.36,-0.19 2.33,-0.43 2.92,-0.77 0.6,-0.33 1.06,-0.89 1.44,-1.68 0.24,-0.52 0.42,-1.32 0.52,-2.37 0.11,-1.06 0.16,-2.59 0.16,-4.58l0 -8.41c0,-2.35 -0.06,-3.99 -0.18,-4.92 -0.11,-0.95 -0.36,-1.72 -0.75,-2.31 -0.38,-0.63 -0.86,-1.09 -1.41,-1.38 -0.55,-0.28 -1.33,-0.46 -2.35,-0.53l0 -0.7 9.42 -1.19z"></path>    <path class="fil0" d="M233.33 90.62c-0.29,-1.38 -0.44,-2.8 -0.44,-4.25 -2.86,2.84 -6.24,4.25 -10.15,4.25 -2.86,0 -5.15,-0.7 -6.89,-2.09 -1.69,-1.36 -2.53,-3.29 -2.53,-5.8l0 -11.87 -0.04 -2.59c0,-1.55 -0.09,-2.67 -0.27,-3.38 -0.18,-0.7 -0.52,-1.31 -1.04,-1.81 -0.65,-0.62 -1.84,-1.07 -3.55,-1.36l0 -0.78 10.08 0 0 17.34c0,2.44 0.08,4.24 0.25,5.41 0.18,1.18 0.48,2.15 0.94,2.89 0.5,0.77 1.22,1.39 2.15,1.84 0.94,0.44 1.99,0.66 3.14,0.66 1.29,0 2.47,-0.24 3.59,-0.75 1.12,-0.5 2,-1.19 2.63,-2.05 0.66,-0.89 1.11,-1.91 1.32,-3.07 0.22,-1.16 0.32,-3.07 0.32,-5.74l0 -6.68 -0.03 -2.52c0,-1.55 -0.08,-2.68 -0.26,-3.38 -0.17,-0.7 -0.51,-1.31 -1.05,-1.81 -0.63,-0.62 -1.82,-1.07 -3.56,-1.36l0 -0.78 10.08 0 0 18.56c0,2.35 0.06,3.99 0.19,4.94 0.13,0.94 0.37,1.71 0.73,2.31 0.41,0.64 0.88,1.09 1.43,1.39 0.55,0.28 1.33,0.45 2.34,0.52l0 0.7 -9.38 1.26zm11.98 -0.63l0 -9.73 0.56 0c0.64,2.38 1.44,4.28 2.38,5.71 1.75,2.59 3.79,3.88 6.14,3.88 1.42,0 2.67,-0.43 3.71,-1.29 1.13,-0.96 1.7,-2.31 1.7,-4.06 0,-1.44 -0.41,-2.7 -1.23,-3.76 -0.45,-0.57 -1.02,-1.1 -1.72,-1.57 -0.69,-0.48 -1.86,-1.16 -3.49,-2.02 -2.86,-1.52 -4.77,-2.79 -5.73,-3.82 -1.36,-1.44 -2.04,-3.12 -2.04,-5.04 0,-2.05 0.69,-3.82 2.05,-5.3 1.58,-1.69 3.67,-2.54 6.26,-2.54 1.16,0 2.25,0.21 3.25,0.62l1.16 0.5c0.37,0.15 0.68,0.22 0.95,0.22 0.45,0 0.85,-0.28 1.24,-0.85l0.7 0 0.35 7.56 -0.7 0c-0.25,-1.08 -0.51,-1.96 -0.81,-2.62 -0.28,-0.65 -0.68,-1.28 -1.2,-1.9 -0.71,-0.87 -1.53,-1.54 -2.46,-2.02 -0.93,-0.49 -1.85,-0.73 -2.75,-0.73 -1.28,0 -2.37,0.45 -3.27,1.37 -0.9,0.92 -1.34,2.05 -1.34,3.4 0,1.1 0.41,2.12 1.21,3.02 0.81,0.9 2.05,1.71 3.73,2.46l3.6 1.64c2.16,0.98 3.77,2.21 4.84,3.67 1.06,1.45 1.6,3.17 1.6,5.15 0,2.39 -0.77,4.38 -2.32,5.95 -1.78,1.82 -4.05,2.73 -6.83,2.73 -1.5,0 -3.03,-0.3 -4.57,-0.91 -1,-0.4 -1.61,-0.63 -1.82,-0.69 -0.2,-0.06 -0.47,-0.08 -0.78,-0.08 -0.79,0 -1.4,0.35 -1.81,1.05l-0.56 0z"></path>   </g>   <path class="fil0" d="M130.69 1.31c0,-0.72 0.59,-1.31 1.31,-1.31 0.72,0 1.31,0.59 1.31,1.31l0 48.82c0,0.73 -0.59,1.32 -1.31,1.32 -0.72,0 -1.31,-0.59 -1.31,-1.32l0 -48.82zm-4.57 48.82c0,0.73 -0.59,1.32 -1.31,1.32 -0.72,0 -1.31,-0.59 -1.31,-1.32l0 -20.47 -12.17 -12.17c-0.51,-0.51 -0.51,-1.34 0,-1.85 0.51,-0.51 1.34,-0.51 1.85,0l12.56 12.55c0.23,0.24 0.38,0.57 0.38,0.93l0 21.01zm0 -31.77c0,0.12 -0.02,0.23 -0.04,0.34 -0.13,0.46 -0.47,0.8 -0.93,0.93 -0.11,0.02 -0.22,0.04 -0.34,0.04 -0.12,0 -0.23,-0.02 -0.34,-0.04 -1.44,-0.4 -5.9,-5.66 -7.1,-6.86 -0.51,-0.51 -0.51,-1.34 0,-1.85 0.51,-0.52 1.34,-0.52 1.85,0l4.28 4.27 0 -8.31c0,-0.72 0.59,-1.31 1.31,-1.31 0.72,0 1.31,0.59 1.31,1.31l0 11.48zm-20.83 3.86c-0.51,-0.51 -0.51,-1.34 0,-1.86 0.52,-0.51 1.34,-0.51 1.86,0l11.4 11.4c0.25,0.26 0.38,0.59 0.38,0.93l0 17.44c0,0.73 -0.59,1.32 -1.31,1.32 -0.72,0 -1.31,-0.59 -1.31,-1.32l0 -16.9 -11.02 -11.01zm35.21 27.91c0,0.73 -0.59,1.32 -1.31,1.32 -0.72,0 -1.31,-0.59 -1.31,-1.32l0 -21.01c0,-0.36 0.15,-0.69 0.38,-0.93l12.56 -12.55c0.51,-0.51 1.34,-0.51 1.85,0 0.51,0.51 0.51,1.34 0,1.85l-12.17 12.17 0 20.47zm-0.38 -30.84c-0.18,0.17 -0.36,0.27 -0.59,0.34 -0.11,0.02 -0.22,0.04 -0.34,0.04 -0.12,0 -0.23,-0.02 -0.34,-0.04 -0.46,-0.13 -0.8,-0.47 -0.93,-0.93 -0.03,-0.11 -0.04,-0.22 -0.04,-0.34l0 -11.48c0,-0.72 0.59,-1.31 1.31,-1.31 0.72,0 1.31,0.59 1.31,1.31l0 8.31 4.28 -4.27c0.51,-0.52 1.34,-0.52 1.85,0 0.51,0.51 0.51,1.34 0,1.85l-6.51 6.52zm16.73 1.07c0.51,-0.51 1.34,-0.51 1.86,0 0.51,0.52 0.51,1.35 0,1.86l-11.02 11.01 0 16.9c0,0.73 -0.59,1.32 -1.31,1.32 -0.72,0 -1.31,-0.59 -1.31,-1.32l0 -17.44c0,-0.34 0.13,-0.67 0.38,-0.93l11.4 -11.4z"></path>   <path class="fil1" d="M204.87 52.02l-5.35 -18.79 3.79 0 2.22 8.51c0.21,0.83 0.4,1.72 0.55,2.66 0.15,0.95 0.26,1.94 0.35,2.98 0.06,-0.97 0.16,-1.91 0.3,-2.84 0.14,-0.93 0.32,-1.84 0.54,-2.72l2.16 -8.59 3.9 0 -5.32 18.79 -3.14 0zm10.68 0l0 -18.79 3.82 0 0 18.79 -3.82 0zm8.06 0l0 -18.79 3.71 0 0 6.96 4.19 0 0 -6.96 3.74 0 0 18.79 -3.74 0 0 -8.17 -4.19 0 0 8.17 -3.71 0zm19.1 -6.22l2.49 0c-0.26,-1.31 -0.49,-2.68 -0.69,-4.12 -0.21,-1.44 -0.39,-2.95 -0.54,-4.55 -0.19,1.41 -0.39,2.84 -0.61,4.28 -0.2,1.45 -0.43,2.91 -0.65,4.39zm-5.01 6.22l4.37 -18.79 3.93 0 4.16 18.79 -3.74 0 -0.63 -3.29 -3.77 0 -0.57 3.29 -3.75 0zm17.84 0l-5.35 -18.79 3.79 0 2.22 8.51c0.21,0.83 0.4,1.72 0.55,2.66 0.15,0.95 0.26,1.94 0.35,2.98 0.06,-0.97 0.16,-1.91 0.3,-2.84 0.14,-0.93 0.32,-1.84 0.54,-2.72l2.16 -8.59 3.9 0 -5.32 18.79 -3.14 0z"></path>  </g> </g></svg>