<svg xmlns="http://www.w3.org/2000/svg" xmlns:xlink="http://www.w3.org/1999/xlink" xmlns:xodm="http://www.corel.com/coreldraw/odm/2003" xml:space="preserve" width="302px" height="136px" fill-rule="evenodd" clip-rule="evenodd" viewBox="0 0 53.62 24.13"> <g id="Layer_x0020_1">  <metadata id="CorelCorpID_0Corel-Layer"></metadata>  <polygon fill="#10A3C9" fill-rule="nonzero" points="0,0 0,0.67 0,23.46 0,24.13 0.67,24.13 23.33,24.13 24,24.13 24,23.46 24,20.22 22.65,20.22 22.65,22.79 1.34,22.79 1.34,1.34 22.65,1.34 22.65,3.75 24,3.75 24,0.67 24,0 "></polygon>  <polygon fill="#2B2A29" points="11.56,17.25 8.26,6.78 10.27,6.78 12.94,15.5 15.86,6.68 17.75,6.68 14.52,17.25 "></polygon>  <path fill="#2B2A29" d="M31.13 9.84l2 0.05c0.01,-1.32 -0.21,-2.23 -1.18,-2.74 -0.88,-0.47 -1.87,-0.41 -2.84,-0.44 -0.82,-0.03 -1.5,-0.04 -2.31,0.14 -1.13,0.24 -1.65,0.76 -1.83,1.96l0 1.25c0.1,1.37 0.43,2.51 3.16,2.63l2.21 0c1.47,0.04 1.57,3.09 -0.52,2.99l-3.77 -0.02c-0.49,0 -0.58,0 -1.06,-0.13l-0.27 -0.09c-0.18,0.88 -0.27,1.12 -0.87,1.81l6.89 0.01c0.9,0.01 1.58,-0.32 2.03,-0.99 0.73,-1.07 0.51,-1.97 0.4,-3.18 -0.18,-2.11 -2.17,-1.85 -3.85,-1.94 -1.41,-0.14 -2.4,0.11 -2.34,-1.59 0.01,-0.29 0.05,-0.5 0.14,-0.66 0.12,-0.19 0.29,-0.35 0.62,-0.43 0.6,-0.14 1.26,-0.11 1.87,-0.11 0.43,0 0.87,0.02 1.11,0.12 0.49,0.19 0.34,0.38 0.41,1.36z"></path>  <path fill="#10A3C9" fill-rule="nonzero" d="M35.07 13.29l1.07 0c0.62,0 1.03,-0.27 1.03,-0.76l0 -0.01c0,-0.37 -0.22,-0.55 -0.54,-0.66 0.22,-0.1 0.42,-0.28 0.42,-0.62l0 -0.01c0,-0.19 -0.07,-0.34 -0.2,-0.47 -0.16,-0.15 -0.42,-0.23 -0.74,-0.23l-1.04 0 0 2.76zm18.55 -0.79l0 0.04c-0.01,0.48 -0.41,0.79 -0.95,0.79l0 0c-0.37,0 -0.74,-0.12 -1.05,-0.4l0.29 -0.34c0.21,0.18 0.45,0.33 0.76,0.33 0.28,0 0.46,-0.15 0.46,-0.36l0 0c0,-0.18 -0.09,-0.29 -0.56,-0.45 -0.55,-0.2 -0.84,-0.39 -0.84,-0.84l0 0c0,-0.46 0.38,-0.78 0.92,-0.78 0.34,0 0.65,0.11 0.92,0.33l-0.27 0.35c-0.2,-0.16 -0.42,-0.26 -0.65,-0.26 -0.27,0 -0.43,0.14 -0.43,0.32 0,0.2 0.11,0.3 0.6,0.48 0.54,0.19 0.79,0.4 0.8,0.79zm-17.05 -1.19l0 0c0,0.26 -0.2,0.39 -0.52,0.39l-0.5 0 0 -0.76 0.53 0c0.31,0 0.49,0.13 0.49,0.36l0 0.01zm0.12 1.17l0 0 0 0.01c0,0.25 -0.2,0.4 -0.54,0.4l-0.6 0 0 -0.8 0.58 0c0.37,0 0.56,0.15 0.56,0.39zm2.09 0.86l0 0c0.65,0 1.08,-0.38 1.08,-1.12l0 -1.69 -0.47 0 0 1.72c0,0.44 -0.24,0.67 -0.6,0.67 -0.38,0 -0.61,-0.24 -0.61,-0.68l0 -1.71 -0.48 0 0 1.71c0,0.72 0.43,1.1 1.08,1.1zm2.61 -0.01l0 0c0.54,0 0.94,-0.32 0.94,-0.8l0 -0.01c0,-0.4 -0.25,-0.61 -0.79,-0.81 -0.5,-0.18 -0.6,-0.28 -0.6,-0.48 0,-0.18 0.16,-0.32 0.42,-0.32 0.23,0 0.46,0.1 0.65,0.26l0.28 -0.35c-0.27,-0.22 -0.58,-0.33 -0.92,-0.33 -0.54,0 -0.92,0.32 -0.92,0.78l0 0c0,0.45 0.29,0.64 0.84,0.84 0.46,0.16 0.56,0.27 0.56,0.45l0 0c0,0.21 -0.18,0.36 -0.46,0.36 -0.31,0 -0.55,-0.15 -0.77,-0.33l-0.29 0.34c0.32,0.28 0.68,0.4 1.06,0.4zm1.54 -0.04l0 0 0.48 0 0 -2.76 -0.48 0 0 2.76zm1.21 0l0 0 0.48 0 0 -1.9 1.32 1.9 0.4 0 0 -2.76 -0.46 0 0 1.84 -1.29 -1.84 -0.45 0 0 2.76zm2.91 0l0 0 1.86 0 0 -0.41 -1.38 0 0 -0.77 1.2 0 0 -0.42 -1.2 0 0 -0.75 1.36 0 0 -0.41 -1.84 0 0 2.76zm3.29 0.04l0 0c0.54,0 0.94,-0.32 0.94,-0.8l0 -0.01c0,-0.4 -0.24,-0.61 -0.79,-0.81 -0.49,-0.18 -0.6,-0.28 -0.6,-0.48 0,-0.18 0.16,-0.32 0.42,-0.32 0.24,0 0.46,0.1 0.66,0.26l0.27 -0.35c-0.26,-0.22 -0.58,-0.33 -0.91,-0.33 -0.55,0 -0.93,0.32 -0.93,0.78l0 0c0,0.45 0.29,0.64 0.84,0.84 0.47,0.16 0.56,0.27 0.56,0.45l0 0c0,0.21 -0.18,0.36 -0.46,0.36 -0.3,0 -0.55,-0.15 -0.76,-0.33l-0.29 0.34c0.31,0.28 0.68,0.4 1.05,0.4z"></path>  <path fill="#2B2A29" fill-rule="nonzero" d="M36.07 17.23c-0.12,0 -0.22,-0.01 -0.32,-0.02 -0.1,-0.03 -0.19,-0.05 -0.29,-0.09 -0.09,-0.04 -0.17,-0.08 -0.26,-0.14 -0.09,-0.06 -0.17,-0.13 -0.25,-0.2l-0.03 -0.02 0.03 -0.02 0.13 -0.15 0.02 -0.03 0.02 0.03c0.04,0.03 0.07,0.07 0.11,0.1 0.04,0.02 0.07,0.05 0.11,0.07 0.03,0.03 0.07,0.06 0.11,0.07 0.04,0.02 0.08,0.05 0.11,0.06 0.04,0.02 0.08,0.03 0.12,0.04 0.04,0.02 0.08,0.02 0.12,0.03 0.05,0.01 0.08,0.02 0.13,0.02l0.15 0c0.09,0 0.19,0 0.27,-0.03 0.04,-0.01 0.08,-0.03 0.11,-0.05 0.04,-0.01 0.07,-0.04 0.1,-0.06 0.03,-0.02 0.05,-0.05 0.07,-0.08 0.03,-0.03 0.04,-0.05 0.06,-0.09 0.01,-0.03 0.03,-0.06 0.03,-0.1 0.01,-0.03 0.02,-0.07 0.02,-0.1l0 -0.01c0,-0.03 -0.01,-0.07 -0.01,-0.1 -0.01,-0.03 -0.01,-0.06 -0.03,-0.09 -0.01,-0.03 -0.02,-0.05 -0.04,-0.07 -0.02,-0.02 -0.04,-0.05 -0.07,-0.07 -0.03,-0.02 -0.06,-0.05 -0.09,-0.07 -0.04,-0.01 -0.09,-0.04 -0.13,-0.06 -0.05,-0.02 -0.11,-0.03 -0.17,-0.05 -0.06,-0.02 -0.13,-0.03 -0.21,-0.05 -0.08,-0.01 -0.16,-0.04 -0.23,-0.05 -0.07,-0.03 -0.14,-0.05 -0.2,-0.07 -0.06,-0.02 -0.11,-0.05 -0.16,-0.08 -0.04,-0.03 -0.09,-0.06 -0.13,-0.09 -0.03,-0.03 -0.07,-0.07 -0.1,-0.11 -0.03,-0.03 -0.05,-0.07 -0.07,-0.11 -0.02,-0.05 -0.03,-0.09 -0.04,-0.15 -0.01,-0.04 -0.02,-0.1 -0.02,-0.15l0 -0.01c0,-0.05 0.01,-0.1 0.02,-0.15 0.02,-0.05 0.03,-0.1 0.05,-0.14 0.03,-0.05 0.06,-0.1 0.09,-0.13 0.03,-0.04 0.07,-0.08 0.1,-0.11 0.04,-0.04 0.09,-0.07 0.14,-0.09 0.05,-0.03 0.09,-0.06 0.15,-0.07 0.06,-0.02 0.11,-0.04 0.17,-0.05 0.06,0 0.12,-0.01 0.19,-0.01 0.1,0 0.19,0.01 0.28,0.02 0.04,0.01 0.09,0.02 0.13,0.03 0.04,0.01 0.07,0.02 0.11,0.04 0.04,0.01 0.08,0.03 0.12,0.05 0.04,0.01 0.07,0.03 0.1,0.06 0.03,0.01 0.07,0.03 0.11,0.07 0.03,0.02 0.07,0.04 0.11,0.07l0.02 0.02 -0.02 0.02 -0.13 0.17 -0.02 0.02 -0.02 -0.02c-0.06,-0.06 -0.13,-0.1 -0.19,-0.15 -0.07,-0.04 -0.13,-0.07 -0.19,-0.09 -0.07,-0.02 -0.13,-0.04 -0.2,-0.05 -0.07,-0.01 -0.15,-0.02 -0.21,-0.02 -0.06,0 -0.1,0.01 -0.15,0.01 -0.04,0.01 -0.08,0.02 -0.12,0.03 -0.04,0.02 -0.08,0.03 -0.11,0.05 -0.04,0.02 -0.07,0.04 -0.09,0.06 -0.03,0.02 -0.05,0.05 -0.08,0.07 -0.02,0.03 -0.03,0.06 -0.05,0.09 -0.02,0.03 -0.02,0.06 -0.03,0.09 -0.01,0.03 -0.02,0.06 -0.02,0.1l0 0.01c0,0.03 0.01,0.06 0.01,0.1 0.01,0.03 0.02,0.06 0.02,0.08 0.02,0.03 0.04,0.05 0.05,0.08 0.02,0.03 0.05,0.05 0.07,0.07 0.03,0.02 0.06,0.05 0.1,0.07 0.04,0.02 0.08,0.04 0.14,0.06 0.05,0.02 0.1,0.04 0.17,0.05 0.06,0.03 0.14,0.04 0.22,0.06 0.16,0.04 0.29,0.07 0.42,0.12 0.11,0.05 0.2,0.1 0.28,0.16 0.07,0.07 0.13,0.14 0.16,0.22 0.04,0.09 0.06,0.19 0.06,0.29l0 0.01c0,0.05 -0.01,0.11 -0.02,0.16 -0.01,0.05 -0.03,0.11 -0.06,0.16 -0.02,0.05 -0.04,0.09 -0.08,0.13 -0.03,0.05 -0.07,0.08 -0.11,0.11 -0.04,0.04 -0.08,0.07 -0.14,0.1 -0.04,0.02 -0.09,0.04 -0.16,0.07 -0.05,0.01 -0.11,0.03 -0.17,0.04 -0.06,0.01 -0.13,0.01 -0.19,0.01zm3.4 -0.3l0 0c-0.06,0.05 -0.11,0.08 -0.17,0.12 -0.07,0.04 -0.14,0.08 -0.22,0.1 -0.07,0.03 -0.15,0.06 -0.23,0.07 -0.09,0.02 -0.17,0.02 -0.26,0.02 -0.21,0 -0.4,-0.04 -0.58,-0.12 -0.08,-0.04 -0.16,-0.08 -0.23,-0.14 -0.08,-0.05 -0.15,-0.11 -0.21,-0.18 -0.06,-0.07 -0.11,-0.14 -0.16,-0.21 -0.04,-0.08 -0.08,-0.16 -0.12,-0.25 -0.03,-0.09 -0.05,-0.18 -0.07,-0.27 -0.01,-0.09 -0.03,-0.18 -0.03,-0.28l0 -0.01c0,-0.09 0.02,-0.19 0.03,-0.28 0.02,-0.1 0.04,-0.19 0.08,-0.27 0.03,-0.09 0.07,-0.18 0.12,-0.25 0.04,-0.08 0.1,-0.15 0.16,-0.22 0.06,-0.07 0.13,-0.13 0.21,-0.18 0.06,-0.05 0.15,-0.1 0.23,-0.14 0.09,-0.04 0.18,-0.07 0.28,-0.09 0.1,-0.02 0.2,-0.03 0.29,-0.03 0.11,0 0.21,0.01 0.31,0.03 0.1,0.02 0.18,0.05 0.27,0.09 0.09,0.04 0.16,0.09 0.24,0.14 0.07,0.05 0.14,0.11 0.2,0.18 0.06,0.06 0.11,0.14 0.16,0.22 0.05,0.07 0.09,0.16 0.12,0.24 0.04,0.08 0.06,0.18 0.08,0.27 0.01,0.09 0.02,0.18 0.02,0.27l0 0.02 0 0.01c0,0.09 -0.01,0.18 -0.02,0.26 -0.02,0.09 -0.04,0.19 -0.07,0.27 -0.03,0.08 -0.07,0.16 -0.11,0.24 -0.04,0.07 -0.09,0.13 -0.14,0.2l0.36 0.31 0.03 0.01 -0.03 0.03 -0.14 0.16 -0.02 0.02 -0.02 -0.02 -0.36 -0.34zm-0.88 0.07l0 0c0.15,0 0.28,-0.02 0.39,-0.07 0.06,-0.02 0.12,-0.05 0.17,-0.08 0.05,-0.03 0.09,-0.06 0.12,-0.09l-0.5 -0.43 -0.02 -0.02 0.02 -0.02 0.14 -0.17 0.02 -0.02 0.02 0.02 0.51 0.47c0.04,-0.06 0.07,-0.1 0.1,-0.16 0.03,-0.06 0.06,-0.12 0.09,-0.19 0.02,-0.07 0.04,-0.15 0.06,-0.22 0.01,-0.07 0.01,-0.15 0.01,-0.23l0 -0.01c0,-0.09 0,-0.16 -0.02,-0.25 -0.01,-0.07 -0.03,-0.15 -0.06,-0.23 -0.06,-0.14 -0.14,-0.27 -0.24,-0.38 -0.05,-0.05 -0.1,-0.1 -0.16,-0.14 -0.06,-0.05 -0.13,-0.09 -0.2,-0.12 -0.06,-0.03 -0.14,-0.06 -0.22,-0.07 -0.07,-0.02 -0.15,-0.03 -0.23,-0.03 -0.08,0 -0.16,0.01 -0.24,0.03 -0.08,0.01 -0.14,0.04 -0.21,0.07 -0.07,0.03 -0.13,0.06 -0.19,0.11 -0.07,0.05 -0.12,0.09 -0.17,0.15 -0.05,0.05 -0.09,0.11 -0.13,0.18 -0.04,0.06 -0.08,0.13 -0.1,0.2 -0.03,0.07 -0.05,0.15 -0.07,0.23 -0.01,0.08 -0.02,0.16 -0.02,0.24l0 0.01c0,0.08 0.01,0.17 0.02,0.24 0.02,0.09 0.04,0.16 0.07,0.23 0.03,0.08 0.06,0.15 0.1,0.22 0.04,0.06 0.08,0.12 0.14,0.17 0.04,0.05 0.09,0.1 0.16,0.15 0.06,0.04 0.13,0.08 0.19,0.11 0.07,0.03 0.14,0.05 0.22,0.07 0.07,0.01 0.16,0.03 0.23,0.03zm2.84 0.24l0 0c-0.07,0 -0.16,-0.01 -0.23,-0.03 -0.08,0 -0.16,-0.03 -0.22,-0.05 -0.07,-0.03 -0.14,-0.06 -0.19,-0.1l-0.01 0c-0.06,-0.04 -0.12,-0.08 -0.17,-0.14 -0.05,-0.05 -0.09,-0.11 -0.14,-0.17 -0.04,-0.07 -0.07,-0.14 -0.1,-0.22 -0.02,-0.07 -0.04,-0.15 -0.06,-0.24 -0.01,-0.08 -0.02,-0.18 -0.02,-0.27l0 -1.62 0 -0.03 0.03 0 0.21 0 0.02 0 0 0.03 0 1.59c0,0.16 0.02,0.31 0.06,0.43 0.04,0.12 0.1,0.23 0.18,0.31 0.08,0.09 0.17,0.16 0.28,0.2 0.1,0.04 0.23,0.06 0.37,0.06 0.28,0 0.49,-0.08 0.64,-0.24 0.09,-0.09 0.15,-0.19 0.19,-0.31 0.03,-0.12 0.06,-0.26 0.06,-0.42l0 -1.62 0 -0.03 0.02 0 0.21 0 0.03 0 0 0.03 0 1.59c0,0.2 -0.03,0.38 -0.09,0.54 -0.03,0.07 -0.06,0.14 -0.1,0.21 -0.04,0.06 -0.09,0.12 -0.13,0.18 -0.06,0.05 -0.11,0.09 -0.17,0.13 -0.06,0.04 -0.13,0.08 -0.2,0.1 -0.14,0.06 -0.29,0.09 -0.47,0.09zm2.64 -2.89l0 0 0.2 0 0.01 0 0.01 0.02 1.27 2.78 0.02 0.04 -0.05 0 -0.22 0 -0.02 0 -0.01 -0.01 -0.33 -0.76 -1.58 0 -0.33 0.76 -0.01 0.01 -0.02 0 -0.21 0 -0.05 0 0.02 -0.04 1.27 -2.78 0.01 -0.02 0.02 0zm0.76 1.83l0 0 -0.67 -1.51 -0.67 1.51 1.34 0zm0.99 -1.81l0 0 1.14 0c0.18,0 0.33,0.03 0.46,0.07 0.14,0.06 0.24,0.12 0.33,0.21 0.04,0.04 0.07,0.07 0.09,0.11 0.03,0.04 0.05,0.09 0.07,0.13 0.02,0.05 0.04,0.09 0.04,0.14 0.01,0.05 0.02,0.1 0.02,0.15l0 0.01c0,0.06 -0.01,0.11 -0.02,0.17 -0.01,0.05 -0.03,0.11 -0.05,0.15 -0.02,0.05 -0.05,0.09 -0.07,0.14 -0.03,0.04 -0.07,0.07 -0.1,0.11 -0.04,0.03 -0.08,0.06 -0.12,0.09 -0.05,0.03 -0.09,0.05 -0.15,0.07 -0.08,0.04 -0.17,0.06 -0.27,0.08l0.87 1.14 0.04 0.05 -0.06 0 -0.26 0 -0.01 0 -0.02 -0.01 -0.85 -1.13 -0.85 0 0 1.11 0 0.03 -0.03 0 -0.2 0 -0.03 0 0 -0.03 0 -2.76 0 -0.03 0.03 0zm1.12 1.43l0 0c0.11,0 0.21,-0.01 0.31,-0.04 0.05,-0.01 0.09,-0.03 0.13,-0.05 0.04,-0.02 0.08,-0.05 0.11,-0.07 0.04,-0.02 0.07,-0.05 0.09,-0.08 0.03,-0.03 0.05,-0.07 0.07,-0.11 0.01,-0.04 0.03,-0.08 0.04,-0.11 0.01,-0.05 0.01,-0.1 0.01,-0.14l0 -0.01c0,-0.09 -0.01,-0.17 -0.04,-0.24 -0.04,-0.07 -0.08,-0.13 -0.15,-0.18 -0.06,-0.05 -0.14,-0.09 -0.24,-0.12 -0.09,-0.02 -0.19,-0.04 -0.32,-0.04l-0.9 0 0 1.19 0.89 0zm1.4 -1.43l0 0 1.94 0 0.03 0 0 0.03 0 0.19 0 0.02 -0.03 0 -1.71 0 0 1.04 1.54 0 0.03 0 0 0.03 0 0.18 0 0.03 -0.03 0 -1.54 0 0 1.06 1.73 0 0.03 0 0 0.03 0 0.18 0 0.03 -0.03 0 -1.96 0 -0.03 0 0 -0.03 0 -2.76 0 -0.03 0.03 0z"></path>  <polygon fill="#2B2A29" fill-rule="nonzero" points="43.77,6.76 44,6.76 44.01,6.76 44.02,6.78 45.06,9.26 46.11,6.78 46.11,6.76 46.14,6.76 46.35,6.76 46.39,6.76 46.37,6.8 45.17,9.59 45.17,9.6 45.15,9.6 44.97,9.6 44.95,9.6 44.95,9.59 43.74,6.8 43.72,6.76 "></polygon>  <path fill="#2B2A29" fill-rule="nonzero" d="M43.38 8.56l-0.67 -1.49 -0.68 1.49 1.35 0zm-0.77 -1.82l0 0 0.2 0 0.01 0 0.01 0.02 1.28 2.78 0.01 0.05 -0.04 0 -0.23 0 -0.01 0 -0.01 -0.03 -0.34 -0.75 -1.57 0 -0.34 0.75 -0.01 0.03 -0.01 0 -0.22 0 -0.04 0 0.02 -0.05 1.27 -2.78 0 -0.02 0.02 0z"></path>  <polygon fill="#2B2A29" fill-rule="nonzero" points="38.79,6.76 38.99,6.76 39.02,6.76 39.02,6.79 39.02,8.05 40.71,8.05 40.71,6.79 40.71,6.76 40.74,6.76 40.94,6.76 40.97,6.76 40.97,6.79 40.97,9.56 40.97,9.59 40.94,9.59 40.74,9.59 40.71,9.59 40.71,9.56 40.71,8.29 39.02,8.29 39.02,9.56 39.02,9.59 38.99,9.59 38.79,9.59 38.76,9.59 38.76,9.56 38.76,6.79 38.76,6.76 "></polygon>  <polygon fill="#2B2A29" fill-rule="nonzero" points="37.8,6.76 38,6.76 38.03,6.76 38.03,6.79 38.03,9.56 38.03,9.59 38,9.59 37.8,9.59 37.77,9.59 37.77,9.56 37.77,6.79 37.77,6.76 "></polygon>  <polygon fill="#2B2A29" fill-rule="nonzero" points="34.91,6.76 35.14,6.76 35.15,6.76 35.16,6.78 36.2,9.26 37.24,6.78 37.25,6.76 37.27,6.76 37.49,6.76 37.53,6.76 37.51,6.8 36.31,9.59 36.3,9.6 36.29,9.6 36.11,9.6 36.09,9.6 36.08,9.59 34.88,6.8 34.86,6.76 "></polygon>  <path fill="#2B2A29" d="M17.72 6.69l2.5 0 0.81 0c3.65,-0.18 3.98,4.37 1.62,5.13 1.75,0.12 2.36,2.88 1.17,4.61 -0.51,0.73 -1.68,0.84 -2.79,0.82l-5.08 0 0.44 -1.69 3.91 -0.03c0.09,0 0.21,0 0.34,0.01 0.85,0.04 1.47,0.07 1.74,-0.89 0.12,-0.44 0.07,-0.92 -0.14,-1.31 -0.48,-0.82 -1.38,-0.64 -2.17,-0.64l-2.67 0 0.42 -1.54 3.31 0c1.39,-0.1 1.45,-2.72 0,-2.71l-3.95 0.05 0.54 -1.81z"></path> </g></svg>