<svg xmlns="http://www.w3.org/2000/svg" xmlns:xlink="http://www.w3.org/1999/xlink" xmlns:xodm="http://www.corel.com/coreldraw/odm/2003" xml:space="preserve" width="281px" height="120px" fill-rule="evenodd" clip-rule="evenodd" viewBox="0 0 222.68 95.07"> <g id="Layer_x0020_1">  <metadata id="CorelCorpID_0Corel-Layer"></metadata>  <g id="_2009955815344">   <path fill="#D49E22" d="M23.83 69.62c0.17,2.94 0.03,6.08 0.03,9.09 0,0.99 0.81,1.8 1.81,1.8 0.38,0 0.75,0 1.13,0 0.33,0 0.6,0.27 0.6,0.61l0 1.48c0,0.34 -0.27,0.61 -0.6,0.61l-17.67 0c-0.33,0 -0.6,-0.27 -0.6,-0.61l0 -1.48c0,-0.34 0.27,-0.61 0.6,-0.61l0.26 0 0.43 0 0.38 0c0.99,0 1.8,-0.81 1.8,-1.8l0 -1.38c0.01,-0.05 0.02,-0.11 0.02,-0.18 -0.01,-0.19 -0.01,-0.38 -0.02,-0.56l0 -0.04 0 -1.01c0.01,-3.92 -0.03,-4.68 -2.52,-6.02 -1.84,-0.99 -3.9,-1.95 -5.8,-2.83 -2.87,-1.34 -3.71,-1.25 -3.68,1.04l0.18 15.15c1.04,7.74 7.16,12.07 14.55,12.11 2.77,0.01 6.16,0.16 8.84,-0.12 5.06,-0.54 8.91,-3.9 10.65,-7.27 1.21,-2.35 1.7,-5.15 1.7,-8.1l-0.05 -16.52c0,-2.68 -1.05,-4.89 -3.33,-6.24 -2.11,-1.24 -23.75,-11.26 -23.94,-11.81l-0.06 -3.43c4.52,-0.59 8.21,-3.88 9.36,-8.22l0 0 5.94 0.01 0.03 10.09c0.07,1.5 0.85,2.74 2.27,3.41l6.58 3.15c2.53,1.26 3.27,0.88 3.27,-1.73l0 -13.48c0,-4.17 -1.75,-7.53 -6.07,-10.43 -2.23,-1.49 -4.64,-2.26 -7.86,-2.34 -2.83,-0.07 -7.8,-0.23 -10.48,0.22 -5.46,0.91 -9.53,4.91 -10.95,9.74 -0.24,0.81 -0.51,1.96 -0.51,3.33l-0.07 16.8c-0.01,7.32 3.01,7.51 9.85,10.86l13.93 6.71z"></path>   <polygon fill="#D49E22" points="198.41,30.72 198.41,21.85 222.68,21.85 222.68,30.72 208.2,30.72 "></polygon>   <polygon fill="#D49E22" points="198.41,61.82 198.41,52.95 208.2,52.95 221.05,52.95 221.05,61.82 208.2,61.82 "></polygon>   <polygon fill="#D49E22" points="198.41,95.07 198.41,86.19 208.2,86.19 222.68,86.19 222.68,95.07 "></polygon>   <polygon fill="#D49E22" points="179.44,57.23 179.44,21.85 189.23,21.85 189.23,95.07 179.44,95.07 179.44,80.48 168.94,47.14 168.94,95.07 159.15,95.07 159.15,21.85 168.94,21.85 "></polygon>   <path fill="#D49E22" d="M131.82 86.19l5 0c2.58,0 3.87,-1.42 3.87,-4.28l0 -46.91c0,-2.85 -1.46,-4.28 -4.38,-4.28l-4.59 0c-2.86,0 -4.28,1.43 -4.28,4.28l0 46.91c0,2.86 1.46,4.28 4.38,4.28zm-2.34 8.88c-7.89,0 -11.83,-4.15 -11.83,-12.45l0 -48.23c0,-8.36 3.91,-12.54 11.72,-12.54l9.39 0c7.81,0 11.72,4.18 11.72,12.54l0 48.23c0,8.3 -3.94,12.45 -11.83,12.45l-9.17 0z"></path>   <polygon fill="#D49E22" points="101.74,95.07 91.95,95.07 91.95,68.14 79.92,21.85 89.61,21.85 96.95,53.66 97.25,53.66 103.88,21.85 113.57,21.85 101.74,68.14 "></polygon>   <path fill="#D49E22" d="M77.88 95.07l-9.79 0 -12.24 -35.8 0 -0.61 10.2 -36.81 8.98 0 -10.3 36.4 13.15 36.82zm-22.53 0l-9.79 0 0 -73.22 9.79 0 0 73.22z"></path>   <path fill="#D49E22" d="M178.71 13.97l-3.98 -13.97 2.82 0 1.65 6.33c0.16,0.61 0.3,1.27 0.41,1.98 0.11,0.7 0.2,1.44 0.26,2.21 0.05,-0.72 0.12,-1.42 0.22,-2.11 0.11,-0.7 0.24,-1.37 0.4,-2.03l1.61 -6.38 2.9 0 -3.95 13.97 -2.34 0zm7.94 0l0 -13.97 2.85 0 0 13.97 -2.85 0zm5.99 0l0 -13.97 2.77 0 0 5.17 3.11 0 0 -5.17 2.78 0 0 13.97 -2.78 0 0 -6.07 -3.11 0 0 6.07 -2.77 0zm14.2 -4.62l1.86 0c-0.19,-0.98 -0.37,-2 -0.52,-3.07 -0.15,-1.07 -0.28,-2.19 -0.4,-3.38 -0.14,1.05 -0.29,2.11 -0.44,3.18 -0.16,1.08 -0.32,2.16 -0.5,3.27zm-3.72 4.62l3.26 -13.97 2.91 0 3.1 13.97 -2.78 0 -0.47 -2.45 -2.8 0 -0.43 2.45 -2.79 0zm13.27 0l-3.98 -13.97 2.82 0 1.65 6.33c0.16,0.61 0.29,1.27 0.41,1.98 0.11,0.7 0.19,1.44 0.26,2.21 0.04,-0.72 0.12,-1.42 0.22,-2.11 0.11,-0.7 0.24,-1.37 0.4,-2.03l1.61 -6.38 2.9 0 -3.95 13.97 -2.34 0z"></path>  </g> </g></svg>