<svg xmlns="http://www.w3.org/2000/svg" xmlns:xlink="http://www.w3.org/1999/xlink" xml:space="preserve" width="600px" height="197px" style="shape-rendering:geometricPrecision; text-rendering:geometricPrecision; image-rendering:optimizeQuality; fill-rule:evenodd; clip-rule:evenodd" viewBox="0 0 179.89 58.97"> <defs><style type="text/css">.fil0 {fill:#9C4D0C}</style></defs><g id="Layer_x0020_1"><metadata id="Vihav_Spring_Woods"></metadata>  <path class="fil0" d="M0 0l179.89 0 0 58.97 -179.89 0 0 -58.97zm22.76 36.3l13.45 0 0 -13.45 -13.45 0 0 13.45zm3.51 18.99l0 -12.95 -9.54 0 0 -9.55 -12.96 0 0 22.5 22.5 0zm15.97 -12.95l-9.55 0 0 12.95 22.51 0 0 -22.5 -12.96 0 0 9.55zm-9.55 -38.48l0 12.96 9.55 0 0 9.55 12.96 0 0 -22.51 -22.51 0zm-15.96 12.96l9.54 0 0 -12.96 -22.5 0 0 22.51 12.96 0 0 -9.55zm42.24 -13.03l117.31 0 0 51.76 -117.31 0 0 -51.76zm92.58 40.31c0,-0.93 -0.24,-1.68 -0.72,-2.28 -0.47,-0.59 -1.47,-1.2 -2.96,-1.85 -0.96,-0.41 -1.61,-0.8 -1.95,-1.18 -0.35,-0.38 -0.52,-0.84 -0.52,-1.38 0,-0.69 0.21,-1.24 0.63,-1.67 0.42,-0.42 0.96,-0.63 1.62,-0.63 0.62,0 1.15,0.17 1.6,0.51 0.45,0.34 0.79,0.83 1.01,1.47l0.9 -0.6c-0.35,-0.78 -0.87,-1.37 -1.57,-1.8 -0.7,-0.42 -1.52,-0.63 -2.46,-0.63 -1.25,0 -2.27,0.38 -3.05,1.14 -0.79,0.75 -1.19,1.72 -1.19,2.91 0,0.86 0.23,1.57 0.69,2.14 0.46,0.56 1.23,1.07 2.33,1.51l0.03 0.02c2.03,0.83 3.05,1.82 3.05,2.97 0,0.72 -0.23,1.31 -0.69,1.77 -0.45,0.46 -1.04,0.69 -1.77,0.69 -0.54,0 -1.04,-0.16 -1.5,-0.48 -0.47,-0.32 -0.85,-0.77 -1.15,-1.34l-1.01 0.72c0.5,0.75 1.09,1.31 1.78,1.66 0.67,0.36 1.48,0.54 2.42,0.54 1.3,0 2.37,-0.39 3.21,-1.19 0.85,-0.79 1.27,-1.8 1.27,-3.02zm-9.94 -2.63c0,-2.22 -0.74,-3.96 -2.24,-5.22 -1.5,-1.27 -3.57,-1.9 -6.23,-1.9l-3.33 0 0 13.63 5.15 0c1.99,0 3.6,-0.6 4.83,-1.79 1.22,-1.19 1.82,-2.77 1.82,-4.72zm-4.16 -4.6c0.97,0.99 1.45,2.41 1.45,4.26 0,1.11 -0.15,2.09 -0.45,2.93 -0.3,0.84 -0.72,1.51 -1.28,2 -0.35,0.31 -0.8,0.53 -1.33,0.68 -0.53,0.14 -1.21,0.22 -2.03,0.22l-1.5 0 0 -11.58 0.95 0c1.83,0 3.22,0.5 4.19,1.49zm-24.84 4.32c0,-1.69 0.5,-3.09 1.5,-4.2 1,1.11 1.49,2.51 1.49,4.2 0,1.4 -0.34,2.6 -1.02,3.6 0.45,0.42 0.94,0.76 1.46,1 0.58,-0.53 1.03,-1.13 1.37,-1.79 0.45,-0.87 0.68,-1.8 0.68,-2.81 0,-1.19 -0.32,-2.29 -0.94,-3.28 -0.47,-0.74 -1.08,-1.39 -1.85,-1.94 1.05,-0.69 2.31,-1.03 3.76,-1.03 1.89,0 3.43,0.57 4.63,1.73 1.21,1.15 1.81,2.66 1.81,4.52 0,1.86 -0.61,3.37 -1.81,4.52 -1.21,1.15 -2.75,1.73 -4.63,1.73 -1.88,0 -3.43,-0.58 -4.64,-1.73 -1.2,-1.16 -1.81,-2.66 -1.81,-4.52zm15.37 0c0,-1.19 -0.31,-2.29 -0.94,-3.28 -0.63,-1 -1.53,-1.83 -2.7,-2.49 -0.78,-0.44 -1.62,-0.78 -2.52,-1.01 -0.89,-0.23 -1.82,-0.35 -2.76,-0.35 -1.19,0 -2.32,0.18 -3.4,0.53 -1.08,0.34 -2.04,0.85 -2.89,1.5 -0.85,0.65 -1.5,1.41 -1.95,2.28 -0.44,0.87 -0.66,1.81 -0.66,2.82 0,1 0.21,1.94 0.66,2.8 0.44,0.87 1.08,1.64 1.92,2.3l0.23 0.17 -0.07 -0.05c-1.05,0.69 -2.3,1.03 -3.74,1.03 -1.88,0 -3.43,-0.58 -4.63,-1.73 -1.21,-1.16 -1.81,-2.66 -1.81,-4.52 0,-1.86 0.6,-3.37 1.81,-4.52 1.2,-1.16 2.75,-1.73 4.63,-1.73 1.03,0 1.96,0.17 2.79,0.52l0.4 -0.33c0.19,-0.15 0.38,-0.28 0.58,-0.41 -0.33,-0.12 -0.66,-0.22 -1.01,-0.31 -0.89,-0.23 -1.81,-0.35 -2.76,-0.35 -1.19,0 -2.31,0.18 -3.39,0.53 -1.08,0.34 -2.05,0.85 -2.9,1.5 -0.85,0.65 -1.5,1.41 -1.95,2.28 -0.44,0.87 -0.66,1.81 -0.66,2.82 0,1 0.22,1.94 0.66,2.8 0.44,0.87 1.08,1.64 1.92,2.3 0.86,0.66 1.82,1.16 2.89,1.51 1.07,0.34 2.21,0.51 3.43,0.51 1.2,0 2.33,-0.17 3.41,-0.51 0.53,-0.17 1.04,-0.39 1.53,-0.64 0.48,0.25 0.99,0.47 1.53,0.64 1.06,0.34 2.21,0.51 3.43,0.51 1.2,0 2.33,-0.17 3.4,-0.51 1.07,-0.35 2.04,-0.85 2.9,-1.51 0.86,-0.66 1.5,-1.43 1.95,-2.29 0.45,-0.87 0.67,-1.8 0.67,-2.81zm-32.33 2.45l-3.65 -9.29 -2.65 0 2.23 5.45 -1.52 4 -3.69 -9.45 -2.68 0 5.66 13.96 2.77 -7.28 2.89 7.28 5.4 -13.96 -1.32 0 -3.44 9.29zm-20.63 -21.71c2.87,1.18 4.31,2.58 4.31,4.2 0,1.02 -0.32,1.85 -0.97,2.5 -0.64,0.65 -1.48,0.97 -2.5,0.97 -0.76,0 -1.47,-0.23 -2.12,-0.68 -0.66,-0.45 -1.2,-1.08 -1.62,-1.89l-1.43 1.01c0.71,1.07 1.54,1.85 2.51,2.36 0.95,0.51 2.09,0.76 3.42,0.76 1.83,0 3.35,-0.56 4.54,-1.68 1.19,-1.12 1.79,-2.55 1.79,-4.28 0,-1.3 -0.34,-2.37 -1.02,-3.21 -0.67,-0.83 -2.07,-1.7 -4.19,-2.61 -1.34,-0.58 -2.26,-1.13 -2.75,-1.67 -0.49,-0.54 -0.73,-1.19 -0.73,-1.96 0,-0.97 0.3,-1.75 0.89,-2.35 0.6,-0.6 1.36,-0.9 2.29,-0.9 0.87,0 1.63,0.24 2.26,0.73 0.63,0.48 1.11,1.17 1.42,2.07l1.27 -0.85c-0.48,-1.09 -1.22,-1.93 -2.21,-2.53 -0.99,-0.59 -2.15,-0.89 -3.47,-0.89 -1.77,0 -3.21,0.54 -4.32,1.61 -1.12,1.06 -1.67,2.43 -1.67,4.1 0,1.22 0.32,2.23 0.97,3.02 0.65,0.8 1.74,1.52 3.29,2.15l0.04 0.02zm11.58 -10.49l0 19.25 3.57 0 0 -7.99 3.83 0c1.9,0 3.39,-0.49 4.48,-1.47 1.08,-0.99 1.62,-2.34 1.62,-4.07 0,-1.77 -0.59,-3.16 -1.76,-4.18 -1.18,-1.03 -2.79,-1.54 -4.85,-1.54l-6.89 0zm5.16 10.08l-1.59 0 0 -8.84 1.59 0c1.61,0 2.81,0.39 3.6,1.16 0.78,0.79 1.17,1.97 1.17,3.55 0,1.38 -0.39,2.42 -1.18,3.1 -0.79,0.69 -1.99,1.03 -3.59,1.03zm16.09 -0.59l5.17 9.76 4 0 -5.1 -9.02c1.6,-0.09 2.84,-0.53 3.7,-1.33 0.88,-0.79 1.31,-1.88 1.31,-3.26 0,-1.86 -0.61,-3.26 -1.84,-4.21 -1.22,-0.95 -3.03,-1.43 -5.41,-1.43l-6.31 0 0 19.25 3.57 0 0 -18.01 1.47 0c1.67,0 2.92,0.35 3.74,1.05 0.83,0.7 1.24,1.77 1.24,3.2 0,1.3 -0.42,2.25 -1.25,2.87 -0.84,0.62 -2.27,1 -4.29,1.13zm12.79 9.76l3.54 0 0 -19.25 -3.54 0 0 19.25zm10.23 -15.33l11.52 15.33 1.71 0 0 -19.25 -1.71 0 0 13.29 -9.96 -13.29 -3.27 0 0 19.25 1.71 0 0 -15.33zm16.74 5.72c0,3.01 0.89,5.44 2.66,7.3 1.78,1.85 4.1,2.78 6.97,2.78 1.31,0 2.57,-0.25 3.79,-0.74 1.22,-0.5 2.39,-1.24 3.53,-2.23l0 -6.49 -3.25 0 0 6.55c-0.47,0.44 -1.03,0.77 -1.67,1.01 -0.65,0.23 -1.35,0.34 -2.1,0.34 -1.92,0 -3.43,-0.74 -4.51,-2.21 -1.08,-1.47 -1.62,-3.53 -1.62,-6.18 0,-2.76 0.56,-4.93 1.69,-6.52 1.13,-1.6 2.66,-2.39 4.59,-2.39 1.15,0 2.16,0.29 3.04,0.87 0.88,0.59 1.61,1.47 2.21,2.64l1.15 -0.81c-0.77,-1.32 -1.76,-2.32 -2.94,-2.98 -1.19,-0.66 -2.58,-0.99 -4.2,-0.99 -2.65,0 -4.87,0.96 -6.66,2.87 -1.79,1.91 -2.68,4.31 -2.68,7.18zm16.95 19.23l-8.35 0 0 1.76 8.35 0 0 -1.76zm-85.52 0l-8.35 0 0 1.76 8.35 0 0 -1.76z"></path> </g></svg>