<?xml version="1.0" encoding="UTF-8"?>
<!DOCTYPE svg PUBLIC "-//W3C//DTD SVG 1.1//EN" "http://www.w3.org/Graphics/SVG/1.1/DTD/svg11.dtd">
<!-- Creator: CorelDRAW 2021 (64-Bit) -->
<svg xmlns="http://www.w3.org/2000/svg" xml:space="preserve" width="235px" height="313px" version="1.1" style="shape-rendering:geometricPrecision; text-rendering:geometricPrecision; image-rendering:optimizeQuality; fill-rule:evenodd; clip-rule:evenodd"
viewBox="0 0 33.99 45.32"
 xmlns:xlink="http://www.w3.org/1999/xlink"
 xmlns:xodm="http://www.corel.com/coreldraw/odm/2003">
 <defs>
  <style type="text/css">
   <![CDATA[
    .fil1 {fill:#C7924D}
    .fil0 {fill:#5B5B5B;fill-rule:nonzero}
   ]]>
  </style>
 </defs>
 <g id="Layer_x0020_1">
  <metadata id="CorelCorpID_0Corel-Layer"/>
  <g id="_1844749805200">
   <path class="fil0" d="M25.77 37.63l-2.42 -8.5 1.71 0 1 3.85c0.1,0.37 0.19,0.78 0.25,1.2 0.07,0.43 0.12,0.88 0.16,1.35 0.03,-0.44 0.08,-0.86 0.14,-1.29 0.06,-0.42 0.14,-0.83 0.24,-1.23l0.98 -3.88 1.76 0 -2.4 8.5 -1.42 0zm-5.81 -2.81l1.13 0c-0.12,-0.6 -0.22,-1.22 -0.32,-1.87 -0.09,-0.65 -0.17,-1.34 -0.24,-2.06 -0.09,0.64 -0.18,1.29 -0.27,1.94 -0.1,0.65 -0.2,1.32 -0.3,1.99zm-2.27 2.81l1.98 -8.5 1.78 0 1.88 8.5 -1.69 0 -0.28 -1.49 -1.71 0 -0.26 1.49 -1.7 0zm-6.37 0l0 -8.5 1.68 0 0 3.15 1.89 0 0 -3.15 1.7 0 0 8.5 -1.7 0 0 -3.7 -1.89 0 0 3.7 -1.68 0zm-3.65 0l0 -8.5 1.73 0 0 8.5 -1.73 0zm-4.83 0l-2.42 -8.5 1.71 0 1 3.85c0.1,0.37 0.19,0.78 0.25,1.2 0.07,0.43 0.12,0.88 0.16,1.35 0.03,-0.44 0.08,-0.86 0.14,-1.29 0.06,-0.42 0.14,-0.83 0.24,-1.23l0.98 -3.88 1.77 0 -2.41 8.5 -1.42 0zm-1.16 6.82l0.06 0c0.12,0 0.2,-0.01 0.25,-0.04 0.04,-0.03 0.06,-0.07 0.06,-0.14 0,-0.08 -0.02,-0.13 -0.07,-0.16 -0.04,-0.03 -0.12,-0.04 -0.24,-0.04l-0.06 0 0 0.38zm25.68 0.81l0 -1.39 0.78 0 0 0.19 -0.55 0 0 0.35 0.55 0 0 0.2 -0.55 0 0 0.45 0.55 0 0 0.2 -0.78 0zm-0.62 -1.05c-0.07,-0.05 -0.14,-0.1 -0.21,-0.12 -0.07,-0.03 -0.14,-0.04 -0.22,-0.04 -0.15,0 -0.28,0.05 -0.37,0.14 -0.1,0.1 -0.14,0.23 -0.14,0.38 0,0.15 0.04,0.27 0.13,0.37 0.1,0.1 0.21,0.15 0.36,0.15 0.08,0 0.16,-0.02 0.23,-0.05 0.07,-0.02 0.15,-0.07 0.21,-0.13l0 0.26c-0.06,0.04 -0.12,0.07 -0.19,0.1 -0.08,0.02 -0.15,0.03 -0.24,0.03 -0.1,0 -0.2,-0.02 -0.29,-0.05 -0.09,-0.04 -0.17,-0.09 -0.24,-0.16 -0.07,-0.06 -0.12,-0.14 -0.15,-0.23 -0.04,-0.09 -0.06,-0.19 -0.06,-0.29 0,-0.1 0.02,-0.2 0.06,-0.29 0.03,-0.09 0.08,-0.17 0.15,-0.23 0.07,-0.07 0.15,-0.12 0.24,-0.16 0.09,-0.03 0.19,-0.05 0.29,-0.05 0.08,0 0.16,0.01 0.23,0.03 0.08,0.03 0.15,0.06 0.22,0.11l-0.01 0.23zm-3.03 1.05l0 -1.44 0.89 0.85c0.02,0.02 0.04,0.05 0.07,0.07 0.02,0.03 0.05,0.06 0.08,0.09l0 -0.96 0.21 0 0 1.45 -0.9 -0.87c-0.03,-0.02 -0.05,-0.05 -0.07,-0.07 -0.03,-0.03 -0.05,-0.06 -0.07,-0.08l0 0.96 -0.21 0zm-1.38 0l0 -1.39 0.78 0 0 0.19 -0.55 0 0 0.35 0.55 0 0 0.2 -0.55 0 0 0.45 0.55 0 0 0.2 -0.78 0zm-1.26 0l0 -1.39 0.23 0 0 1.19 0.5 0 0 0.2 -0.73 0zm-1.26 0l0 -1.39 0.23 0 0 1.19 0.5 0 0 0.2 -0.73 0zm-1.38 0l0 -1.39 0.78 0 0 0.19 -0.55 0 0 0.35 0.55 0 0 0.2 -0.55 0 0 0.45 0.55 0 0 0.2 -0.78 0zm-0.62 -1.05c-0.07,-0.05 -0.13,-0.1 -0.21,-0.12 -0.07,-0.03 -0.14,-0.04 -0.22,-0.04 -0.15,0 -0.27,0.05 -0.37,0.14 -0.1,0.1 -0.14,0.23 -0.14,0.38 0,0.15 0.04,0.27 0.14,0.37 0.09,0.1 0.21,0.15 0.35,0.15 0.08,0 0.16,-0.02 0.23,-0.05 0.08,-0.02 0.15,-0.07 0.21,-0.13l0 0.26c-0.06,0.04 -0.12,0.07 -0.19,0.1 -0.07,0.02 -0.15,0.03 -0.24,0.03 -0.1,0 -0.2,-0.02 -0.29,-0.05 -0.09,-0.04 -0.17,-0.09 -0.24,-0.16 -0.06,-0.06 -0.12,-0.14 -0.15,-0.23 -0.04,-0.09 -0.06,-0.19 -0.06,-0.29 0,-0.1 0.02,-0.2 0.06,-0.29 0.03,-0.09 0.09,-0.17 0.15,-0.23 0.07,-0.07 0.15,-0.12 0.24,-0.16 0.09,-0.03 0.19,-0.05 0.29,-0.05 0.08,0 0.16,0.01 0.23,0.03 0.08,0.03 0.15,0.06 0.22,0.11l-0.01 0.23zm-2.7 1.05l0.45 -0.73 -0.4 -0.66 0.24 0 0.2 0.34c0.01,0.02 0.03,0.06 0.06,0.11l0.01 0.03c0.01,-0.02 0.02,-0.04 0.04,-0.06 0.01,-0.03 0.02,-0.05 0.04,-0.08l0.21 -0.34 0.23 0 -0.4 0.66 0.43 0.73 -0.25 0 -0.23 -0.39 0 -0.01c-0.03,-0.05 -0.05,-0.09 -0.07,-0.13 -0.01,0.02 -0.03,0.04 -0.04,0.06 -0.01,0.03 -0.02,0.05 -0.04,0.07l-0.24 0.4 -0.24 0zm-1.22 0l0 -1.39 0.77 0 0 0.19 -0.55 0 0 0.35 0.55 0 0 0.2 -0.55 0 0 0.45 0.55 0 0 0.2 -0.77 0zm-1.95 0l0 -1.39 0.77 0 0 0.19 -0.55 0 0 0.35 0.55 0 0 0.2 -0.55 0 0 0.65 -0.22 0zm-0.84 -0.69c0,-0.07 -0.02,-0.14 -0.04,-0.2 -0.03,-0.06 -0.07,-0.12 -0.11,-0.17 -0.05,-0.05 -0.1,-0.09 -0.17,-0.11 -0.06,-0.03 -0.12,-0.04 -0.19,-0.04 -0.07,0 -0.13,0.01 -0.2,0.04 -0.06,0.02 -0.11,0.06 -0.16,0.11 -0.05,0.05 -0.08,0.11 -0.11,0.17 -0.03,0.06 -0.04,0.13 -0.04,0.2 0,0.07 0.01,0.14 0.04,0.2 0.03,0.06 0.06,0.12 0.11,0.17 0.05,0.05 0.1,0.08 0.16,0.11 0.07,0.02 0.13,0.04 0.2,0.04 0.07,0 0.13,-0.02 0.19,-0.04 0.06,-0.03 0.12,-0.06 0.17,-0.11 0.04,-0.05 0.08,-0.11 0.11,-0.17 0.02,-0.07 0.04,-0.13 0.04,-0.2zm0.23 0c0,0.1 -0.02,0.19 -0.05,0.28 -0.04,0.09 -0.1,0.17 -0.17,0.23 -0.07,0.07 -0.15,0.13 -0.24,0.16 -0.09,0.04 -0.18,0.06 -0.28,0.06 -0.1,0 -0.2,-0.02 -0.29,-0.06 -0.09,-0.03 -0.17,-0.09 -0.24,-0.16 -0.07,-0.06 -0.12,-0.14 -0.16,-0.23 -0.03,-0.09 -0.05,-0.18 -0.05,-0.28 0,-0.1 0.02,-0.19 0.05,-0.28 0.04,-0.09 0.09,-0.17 0.16,-0.24 0.07,-0.07 0.15,-0.12 0.24,-0.15 0.09,-0.04 0.19,-0.06 0.29,-0.06 0.1,0 0.19,0.02 0.28,0.06 0.09,0.03 0.17,0.08 0.24,0.15 0.07,0.07 0.13,0.15 0.17,0.24 0.03,0.09 0.05,0.18 0.05,0.28zm-3.22 -0.11l0.04 0c0.12,0 0.2,-0.01 0.24,-0.04 0.04,-0.03 0.06,-0.07 0.06,-0.15 0,-0.07 -0.02,-0.13 -0.06,-0.16 -0.05,-0.03 -0.12,-0.04 -0.24,-0.04l-0.04 0 0 0.39zm-0.01 0.18l0 0.62 -0.21 0 0 -1.39 0.31 0c0.09,0 0.16,0.01 0.22,0.02 0.05,0.01 0.09,0.03 0.13,0.06 0.04,0.03 0.07,0.08 0.1,0.13 0.02,0.05 0.03,0.11 0.03,0.17 0,0.12 -0.03,0.2 -0.08,0.27 -0.05,0.06 -0.13,0.1 -0.24,0.11l0.48 0.63 -0.25 0 -0.47 -0.62 -0.02 0zm-1.55 0.08l0.38 0 -0.14 -0.32c-0.01,-0.02 -0.02,-0.04 -0.02,-0.07 -0.01,-0.03 -0.02,-0.06 -0.03,-0.09 -0.01,0.03 -0.02,0.06 -0.02,0.09 -0.01,0.02 -0.02,0.05 -0.03,0.07l-0.14 0.32zm0.62 0.54l-0.16 -0.36 -0.55 0 -0.16 0.36 -0.23 0 0.67 -1.44 0.67 1.44 -0.24 0zm-2.18 0l0 -1.39 0.23 0 0 1.19 0.5 0 0 0.2 -0.73 0zm-1.26 0l0 -1.39 0.23 0 0 1.19 0.5 0 0 0.2 -0.73 0zm-0.89 0l0 -1.39 0.22 0 0 1.39 -0.22 0zm-1.18 -0.62l0 0.62 -0.21 0 0 -1.39 0.34 0c0.11,0 0.18,0.01 0.23,0.02 0.05,0.01 0.09,0.03 0.12,0.05 0.05,0.04 0.08,0.08 0.11,0.13 0.02,0.06 0.03,0.12 0.03,0.18 0,0.07 -0.01,0.13 -0.03,0.19 -0.03,0.05 -0.06,0.1 -0.11,0.13 -0.03,0.02 -0.07,0.04 -0.12,0.05 -0.05,0.01 -0.12,0.02 -0.23,0.02l-0.04 0 -0.09 0zm30.42 -44.64c0.53,0 1.01,0.21 1.35,0.56 0.35,0.34 0.56,0.82 0.56,1.35 0,0.52 -0.21,1 -0.56,1.34 -0.34,0.35 -0.82,0.56 -1.35,0.56 -0.52,0 -1,-0.21 -1.34,-0.56 -0.35,-0.34 -0.56,-0.82 -0.56,-1.34 0,-0.53 0.21,-1.01 0.56,-1.35 0.34,-0.35 0.82,-0.56 1.34,-0.56zm1.18 0.73c-0.3,-0.3 -0.72,-0.49 -1.18,-0.49 -0.45,0 -0.87,0.19 -1.17,0.49 -0.3,0.3 -0.49,0.72 -0.49,1.18 0,0.45 0.19,0.87 0.49,1.17 0.3,0.3 0.72,0.49 1.17,0.49 0.46,0 0.88,-0.19 1.18,-0.49 0.3,-0.3 0.49,-0.72 0.49,-1.17 0,-0.46 -0.19,-0.88 -0.49,-1.18zm-2.01 2.23l0 -2.15 0.91 0c0.23,0 0.4,0.02 0.51,0.05 0.1,0.04 0.18,0.11 0.25,0.21 0.06,0.1 0.09,0.21 0.09,0.34 0,0.16 -0.05,0.3 -0.14,0.4 -0.1,0.11 -0.24,0.17 -0.43,0.2 0.1,0.06 0.17,0.12 0.24,0.18 0.06,0.07 0.14,0.19 0.24,0.35l0.27 0.42 -0.53 0 -0.31 -0.47c-0.11,-0.16 -0.19,-0.27 -0.23,-0.31 -0.04,-0.05 -0.08,-0.08 -0.13,-0.09 -0.05,-0.02 -0.12,-0.03 -0.22,-0.03l-0.09 0 0 0.9 -0.43 0zm0.43 -1.24l0.32 0c0.21,0 0.34,-0.01 0.4,-0.03 0.05,-0.01 0.09,-0.05 0.12,-0.09 0.03,-0.04 0.04,-0.1 0.04,-0.16 0,-0.07 -0.02,-0.13 -0.06,-0.18 -0.04,-0.04 -0.09,-0.07 -0.16,-0.08 -0.04,-0.01 -0.14,-0.01 -0.32,-0.01l-0.34 0 0 0.55z"/>
   <path class="fil1" d="M29.81 2.55l0 24.57 -13.23 0 13.23 -24.57zm-2.76 0l-12.04 22.61 -12.04 -22.61 5.21 0 6.83 12.68 6.83 -12.68 5.21 0zm-7.99 0l-4.05 0 -4.06 0 4.06 7.53 4.05 -7.53zm-18.85 0l0 24.57 13.22 0 -13.22 -24.57zm-0.21 36.2l29.6 0 0 3.81 -29.6 0 0 -3.81z"/>
  </g>
 </g>
</svg>
