<svg xmlns="http://www.w3.org/2000/svg" xmlns:xlink="http://www.w3.org/1999/xlink" xml:space="preserve" width="1270px" height="610px" style="shape-rendering:geometricPrecision; text-rendering:geometricPrecision; image-rendering:optimizeQuality; fill-rule:evenodd; clip-rule:evenodd" viewBox="0 0 1270 610.46"> <defs>  <style type="text/css">       .fil2 {fill:#EBECEC}    .fil4 {fill:#D9DADA}    .fil3 {fill:#C5C6C6}    .fil5 {fill:#9D9E9E}    .fil0 {fill:#727271}    .fil1 {fill:#FEFEFE;fill-rule:nonzero}     </style> </defs> <g id="Layer_x0020_1">  <metadata id="VS-Monalith-Layer"></metadata>  <g id="_2628990223184">   <polygon class="fil0" points="0,317.93 1270,317.93 1270,610.46 0,610.46 "></polygon>   <g>    <path class="fil1" d="M75.91 376.2l15.75 0 20.04 118.93 17.14 -118.93 15.36 0 -25.74 186.89 -13.16 0 -29.39 -186.89zm146.09 47.38l-2.2 -17.99c-0.73,-7.31 -2.01,-12.28 -3.84,-14.91 -1.82,-2.64 -4.2,-3.95 -7.13,-3.95 -3.07,0 -5.77,2.01 -8.11,6.03 -2.34,4.02 -3.51,7.72 -3.51,11.08 0,0.88 0,1.61 0,2.19 0,4.24 0.11,8.12 0.36,11.59 0.22,3.51 0.81,7.09 1.76,10.75 0.95,3.66 1.64,6.47 2.12,8.44 0.47,1.98 1.35,3.92 2.63,5.82l27.82 40.58c1.9,2.48 3.15,4.24 3.73,5.26 0.59,1.03 1.46,3.15 2.71,6.36 1.24,3.22 1.86,6.88 1.86,10.97l-0.66 26.58c0,6.14 -2.15,12.54 -6.47,19.19 -4.31,6.66 -11.15,10.5 -20.51,11.52 -8.19,-1.17 -13.41,-2.27 -15.68,-3.29 -2.27,-1.02 -4.9,-3.95 -7.9,-8.77 -3,-4.83 -4.82,-11.23 -5.48,-19.2 -0.66,-7.97 -1.21,-15.76 -1.65,-23.36l14.48 0 1.97 24.57c0,4.24 1.39,7.97 4.17,11.19 2.78,3.21 6.15,4.82 10.09,4.82 3.66,0 6.58,-1.46 8.78,-4.39 2.19,-2.92 3.29,-6.43 3.29,-10.52l0.66 -26.33c0,-2.78 -0.15,-5.08 -0.44,-6.91 -0.3,-1.82 -0.84,-3.51 -1.65,-5.04 -0.8,-1.54 -1.61,-2.78 -2.41,-3.73 -0.8,-0.95 -1.43,-1.72 -1.87,-2.3l-29.83 -45.19c-1.02,-1.61 -1.75,-3.51 -2.19,-5.7 -0.44,-2.2 -1.02,-4.76 -1.76,-7.68 -0.73,-2.93 -1.31,-6.29 -1.75,-10.09 -0.44,-3.81 -0.66,-8.27 -0.66,-13.38 -0.29,-2.05 0.11,-5.27 1.21,-9.66 1.09,-4.38 2.52,-8.4 4.27,-12.06 1.76,-3.66 4.61,-6.43 8.56,-8.33 3.95,-1.91 8.19,-2.86 12.72,-2.86 5.56,1.17 9.95,2.64 13.16,4.39 3.22,1.76 5.82,4.94 7.79,9.54 1.97,4.61 3.33,10.17 4.06,16.67 0.73,6.51 1.31,12.54 1.75,18.1l-14.25 0zm336.71 139.51l-7.9 0 0 -142.73c0,-7.02 -0.99,-14.11 -2.96,-21.2 -1.97,-7.13 -4.72,-10.68 -8.23,-10.68 -0.87,0 -2.81,1.1 -5.81,3.29 -3,2.2 -4.5,6.33 -4.5,12.32l0 159 -16.45 0 0 -167.15c0,-5.99 2.45,-11 7.35,-15.02 4.9,-4.03 10.49,-6.04 16.78,-6.04 5.27,0 9.8,1.47 13.6,4.39 3.8,2.93 6.36,6.95 7.68,12.06 1.17,-4.82 3.58,-8.77 7.24,-11.84 3.65,-3.07 7.97,-4.61 12.94,-4.61 6.43,0 12.1,2.01 17,6.04 4.9,4.05 7.35,9.14 7.35,15.28l0 166.89 -14.92 0 0 -159c0,-5.85 -1.39,-9.94 -4.17,-12.21 -2.77,-2.26 -4.89,-3.4 -6.36,-3.4 -3.36,0 -6.03,3.51 -8,10.57 -1.98,7.02 -2.96,14.15 -2.96,21.31l0 142.73 -7.68 0zm205.75 -142.8l0 143.46 -15.57 0 0 -188.87 15.57 0 0 15.14c2.34,-9.07 7.97,-14.19 16.89,-15.36 6.73,-0.87 12.21,1.87 16.46,8.23 4.24,6.36 6.36,13.64 6.36,21.83l0 159.03 -16.24 0 0 -158.38c0,-5.26 -1.46,-8.73 -4.42,-10.42 -2.96,-1.68 -5.01,-2.52 -6.22,-2.52 -3.39,0 -6.36,3.18 -8.95,9.54 -2.6,6.37 -3.88,12.47 -3.88,18.32zm187.99 -43.65l0 174.17 35.54 0 0 12.28 -52.65 0 0 -186.45 17.11 0zm101.78 12.28l0 -12.5 59.89 0 0 12.5 -21.06 0 0 174.61 -16.67 0 0 -174.61 -22.16 0zm97.18 -13.6l16.01 0 0 82.48 25.44 0 0 -82.48 15.58 0 0 187.77 -15.58 0 0 -88.62 -25.44 0 0 88.62 -16.01 0 0 -187.77z"></path>    <path class="fil1" d="M657.64 533.44l0 -135.71c0,-7.6 2.89,-14.07 8.66,-19.34 5.78,-5.26 12.61,-7.89 20.51,-7.89 7.17,0 13.27,2.81 18.32,8.44 5.04,5.63 7.56,12.21 7.56,19.67l0 136.15c0,8.19 -2.81,15.35 -8.44,21.42 -5.63,6.07 -12.39,9.1 -20.29,9.1 -7.6,0 -13.89,-3.21 -18.86,-9.65 -4.98,-6.43 -7.46,-13.85 -7.46,-22.19zm26.54 19.12c5.26,0 8.85,-2.74 10.75,-8.26 1.9,-5.49 2.85,-12.1 2.85,-19.89l0 -123.39c0,-4.53 -1.02,-8.55 -3.07,-12.1 -2.05,-3.51 -4.97,-5.26 -8.78,-5.26 -4.09,0 -7.45,1.75 -10.09,5.26 -2.63,3.55 -3.94,7.57 -3.94,12.1l0 122.07c0,8.81 0.69,15.91 2.08,21.32 1.39,5.45 4.79,8.15 10.2,8.15z"></path>    <path class="fil1" d="M845.4 533.44l0 -135.71c0,-7.6 2.89,-14.07 8.67,-19.34 5.78,-5.26 12.61,-7.89 20.51,-7.89 7.16,0 13.27,2.81 18.32,8.44 5.04,5.63 7.56,12.21 7.56,19.67l0 136.15c0,8.19 -2.81,15.35 -8.44,21.42 -5.63,6.07 -12.4,9.1 -20.29,9.1 -7.61,0 -13.9,-3.21 -18.87,-9.65 -4.97,-6.43 -7.46,-13.85 -7.46,-22.19zm26.55 19.12c5.26,0 8.84,-2.74 10.75,-8.26 1.9,-5.49 2.85,-12.1 2.85,-19.89l0 -123.39c0,-4.53 -1.03,-8.55 -3.07,-12.1 -2.05,-3.51 -4.98,-5.26 -8.78,-5.26 -4.09,0 -7.46,1.75 -10.09,5.26 -2.63,3.55 -3.95,7.57 -3.95,12.1l0 122.07c0,8.81 0.7,15.91 2.09,21.32 1.39,5.45 4.79,8.15 10.2,8.15z"></path>    <polygon class="fil1" points="1038.22,375.32 1038.22,563.09 1022.21,563.09 1022.21,375.32 "></polygon>   </g>   <g>    <polygon class="fil2" points="300.84,0 385.98,89.98 471.13,0 "></polygon>    <polygon class="fil0" points="476.49,6.11 390.65,96.81 476.49,326.54 "></polygon>    <polygon class="fil3" points="380.73,96.2 295.48,6.11 295.48,213.02 "></polygon>    <path class="fil4" d="M384.82 104.31l-87.61 120.06 -3.46 -2.26c0.65,0.46 1.17,1.1 1.47,1.89l0.77 2.05 3.59 9.53 175.14 114.38 1.25 -1.68 1.31 -1.77c1.04,-1.4 2.86,-1.97 4.51,-1.43 0.33,0.11 0.63,0.25 0.91,0.43l-10.27 -6.71 -87.61 -234.49z"></path>    <polygon class="fil0" points="474.72,349.96 299.58,235.58 299.74,236 387.17,468.09 "></polygon>    <polygon class="fil5" points="476.48,361.17 390.96,476.55 476.48,601.44 "></polygon>    <polygon class="fil2" points="472.86,610.46 386,483.62 299.11,610.46 "></polygon>    <polygon class="fil2" points="295.48,601.45 381.47,475.92 295.48,247.63 "></polygon>   </g>  </g> </g></svg>