<svg xmlns="http://www.w3.org/2000/svg" xmlns:xlink="http://www.w3.org/1999/xlink" xml:space="preserve" width="240px" height="208px" style="shape-rendering:geometricPrecision; text-rendering:geometricPrecision; image-rendering:optimizeQuality; fill-rule:evenodd; clip-rule:evenodd" viewBox="0 0 57.46 49.75"> <defs>  <style type="text/css">       .fil7 {fill:#FEFEFE}    .fil8 {fill:#F16C0C}    .fil3 {fill:#2B2A29;fill-rule:nonzero}    .fil0 {fill:#F7A707;fill-rule:nonzero}    .fil1 {fill:#E51467;fill-rule:nonzero}    .fil2 {fill:#009DB4;fill-rule:nonzero}    .fil5 {fill:url(#id0)}    .fil6 {fill:url(#id1)}    .fil4 {fill:url(#id2)}     </style>  <linearGradient id="id0" gradientUnits="userSpaceOnUse" x1="0.03" y1="42.5" x2="57.36" y2="42.5">   <stop offset="0" style="stop-opacity:1; stop-color:#14A7D3"></stop>   <stop offset="0.160784" style="stop-opacity:1; stop-color:#54A663"></stop>   <stop offset="0.431373" style="stop-opacity:1; stop-color:#F09316"></stop>   <stop offset="0.505882" style="stop-opacity:1; stop-color:#DC733B"></stop>   <stop offset="0.619608" style="stop-opacity:1; stop-color:#C75361"></stop>   <stop offset="1" style="stop-opacity:1; stop-color:#B02770"></stop>  </linearGradient>  <linearGradient id="id1" gradientUnits="userSpaceOnUse" xlink:href="#id0" x1="0.03" y1="49.19" x2="57.36" y2="49.19">  </linearGradient>  <radialGradient id="id2" gradientUnits="userSpaceOnUse" gradientTransform="matrix(0.0111494 1.12088 -1.72413 0.00724857 61 -24)" cx="34.63" cy="15.41" r="8.09" fx="34.63" fy="15.41">   <stop offset="0" style="stop-opacity:1; stop-color:#EE8619"></stop>   <stop offset="0.501961" style="stop-opacity:1; stop-color:#EE8619"></stop>   <stop offset="1" style="stop-opacity:1; stop-color:#E55B22"></stop>  </radialGradient> </defs> <g id="Layer_x0020_1">  <metadata id="VihavTradeCenterDark"></metadata>  <path class="fil0" d="M35.07 37.96c-0.33,0.42 -0.67,0.76 -1.04,1 -0.4,0.24 -0.86,0.42 -1.38,0.55 -0.52,0.14 -1.12,0.21 -1.78,0.21 -0.84,0 -1.58,-0.1 -2.21,-0.28 -0.64,-0.19 -1.19,-0.46 -1.66,-0.83 -0.47,-0.4 -0.82,-0.88 -1.06,-1.43 -0.23,-0.55 -0.35,-1.2 -0.35,-1.93l0 -14.67 -3.13 0 0.36 -0.85c3.83,0 5.98,-3.06 6.19,-6.63l0.7 -1.62 0 8.25 8.09 0c-0.43,0.26 -0.85,0.54 -1.25,0.85l-6.84 0 0 15.27c0,0.57 0.04,1.04 0.13,1.43 0.08,0.38 0.2,0.69 0.37,0.93 0.17,0.23 0.4,0.4 0.68,0.5 0.28,0.1 0.63,0.15 1.03,0.15 0.37,0 0.71,-0.06 1.03,-0.17 0.32,-0.12 0.61,-0.3 0.88,-0.53 0.21,-0.22 0.43,-0.46 0.63,-0.74 0.14,0.14 0.28,0.26 0.43,0.39 0.06,0.05 0.12,0.1 0.18,0.15z"></path>  <path class="fil1" d="M51.66 32.48c-0.14,1.14 -0.43,2.15 -0.87,3.04 -0.45,0.92 -1.06,1.72 -1.83,2.39 -0.74,0.63 -1.59,1.11 -2.54,1.43 -0.95,0.32 -2.02,0.48 -3.19,0.48 -1.54,0 -2.95,-0.22 -4.24,-0.66 -1.29,-0.43 -2.47,-1.1 -3.54,-2.01 -1.04,-0.9 -1.83,-1.9 -2.36,-3.01 -0.54,-1.1 -0.81,-2.31 -0.81,-3.61 0,-1.58 0.3,-3.04 0.88,-4.4 0.59,-1.35 1.47,-2.6 2.64,-3.74 1.17,-1.17 2.44,-2.04 3.79,-2.61 1.36,-0.57 2.81,-0.85 4.35,-0.85 0.93,0 1.8,0.1 2.61,0.32 0.8,0.22 1.52,0.56 2.16,1.03 0.67,0.44 1.17,0.93 1.5,1.48 0.34,0.55 0.5,1.13 0.5,1.73 0,0.34 -0.05,0.65 -0.17,0.93 -0.12,0.29 -0.28,0.53 -0.48,0.73 -0.23,0.24 -0.48,0.4 -0.75,0.5 -0.27,0.1 -0.57,0.15 -0.91,0.15 -0.26,0 -0.52,-0.05 -0.77,-0.17 -0.26,-0.12 -0.48,-0.29 -0.68,-0.53 -0.24,-0.23 -0.4,-0.48 -0.5,-0.75 -0.8,-2.14 1,-2.37 1,-3.37 0,-0.2 -0.08,-0.38 -0.25,-0.55 -0.17,-0.17 -0.42,-0.3 -0.75,-0.4 -0.34,-0.1 -0.76,-0.18 -1.26,-0.25 -0.5,-0.07 -1.09,-0.1 -1.76,-0.1 -1.24,0 -2.29,0.16 -3.16,0.48 -0.87,0.31 -1.54,0.79 -2.01,1.43 -0.43,0.63 -0.77,1.55 -1,2.73 -0.24,1.19 -0.36,2.66 -0.36,4.4l0 2.16c0,1.57 0.11,2.89 0.33,3.96 0.22,1.08 0.55,1.91 0.98,2.51 0.47,0.61 1.09,1.06 1.86,1.36 0.77,0.3 1.71,0.45 2.81,0.45 1.11,0 2.1,-0.14 2.99,-0.42 0.89,-0.29 1.68,-0.72 2.38,-1.28 0.71,-0.57 1.28,-1.28 1.74,-2.11 0.45,-0.84 0.77,-1.79 0.98,-2.87l0.69 0z"></path>  <polygon class="fil2" points="22.96,21.44 15,39.72 14.6,39.72 5.8,19.73 14.09,19.73 14.46,20.58 10.79,20.58 16.61,34.04 22.08,21.44 "></polygon>  <path class="fil3" d="M1.91 47.36c0.09,0.24 0.12,0.31 0.19,0.31 0.07,0 0.1,-0.08 0.23,-0.38 0.11,-0.25 0.35,-0.8 0.67,-1.53 0.27,-0.62 0.41,-0.89 0.61,-1.37 0.13,-0.32 0.21,-0.4 0.27,-0.45 0.09,-0.06 0.2,-0.06 0.25,-0.06 0.05,0 0.08,-0.01 0.08,-0.05 0,-0.03 -0.04,-0.04 -0.11,-0.04 -0.15,0 -0.38,0.01 -0.47,0.01 -0.07,0 -0.28,-0.01 -0.53,-0.01 -0.09,0 -0.14,0.01 -0.14,0.05 0,0.03 0.04,0.04 0.09,0.04 0.06,0 0.14,0 0.2,0.02 0.04,0.02 0.06,0.06 0.06,0.1 0,0.05 -0.02,0.12 -0.04,0.19 -0.12,0.33 -0.78,1.95 -0.99,2.5l-0.02 0 -0.87 -2.28c-0.07,-0.18 -0.12,-0.32 -0.12,-0.39 0,-0.04 0.02,-0.08 0.05,-0.1 0.04,-0.04 0.12,-0.04 0.2,-0.04 0.05,0 0.08,-0.01 0.08,-0.05 0,-0.03 -0.06,-0.04 -0.12,-0.04 -0.25,0 -0.49,0.01 -0.62,0.01 -0.18,0 -0.46,-0.01 -0.73,-0.01 -0.07,0 -0.13,0 -0.13,0.04 0,0.03 0.01,0.05 0.06,0.05 0.04,0 0.12,0 0.2,0.02 0.18,0.05 0.26,0.11 0.38,0.38l1.27 3.08zm2.64 -1.01c0,0.42 0,0.76 -0.02,0.93 -0.02,0.13 -0.04,0.19 -0.13,0.21 -0.04,0.01 -0.09,0.02 -0.16,0.02 -0.06,0 -0.07,0.02 -0.07,0.04 0,0.03 0.03,0.05 0.08,0.05 0.18,0 0.48,-0.02 0.58,-0.02 0.12,0 0.43,0.02 0.72,0.02 0.05,0 0.08,-0.02 0.08,-0.05 0,-0.02 -0.02,-0.04 -0.07,-0.04 -0.06,0 -0.16,-0.01 -0.22,-0.02 -0.13,-0.02 -0.16,-0.09 -0.18,-0.2 -0.02,-0.18 -0.02,-0.52 -0.02,-0.94l0 -0.75c0,-0.65 0,-0.77 0.01,-0.91 0.01,-0.15 0.05,-0.21 0.17,-0.23 0.05,-0.01 0.08,-0.02 0.13,-0.02 0.04,0 0.07,-0.01 0.07,-0.05 0,-0.02 -0.04,-0.03 -0.09,-0.03 -0.17,0 -0.46,0.01 -0.57,0.01 -0.13,0 -0.43,-0.01 -0.6,-0.01 -0.07,0 -0.1,0.01 -0.1,0.03 0,0.04 0.02,0.05 0.07,0.05 0.06,0 0.11,0.01 0.16,0.02 0.1,0.03 0.14,0.08 0.15,0.23 0.01,0.14 0.01,0.26 0.01,0.91l0 0.75zm2.67 -0.6c-0.01,0 -0.03,0 -0.03,-0.03l0 -0.09c0,-0.65 0,-0.8 0.01,-0.94 0.01,-0.15 0.05,-0.21 0.17,-0.23 0.05,-0.01 0.09,-0.02 0.12,-0.02 0.06,0 0.08,-0.01 0.08,-0.04 0,-0.03 -0.03,-0.04 -0.09,-0.04 -0.17,0 -0.48,0.01 -0.59,0.01 -0.12,0 -0.41,-0.01 -0.65,-0.01 -0.06,0 -0.09,0.01 -0.09,0.04 0,0.03 0.03,0.04 0.07,0.04 0.07,0 0.14,0.01 0.18,0.02 0.14,0.04 0.18,0.08 0.19,0.23 0.01,0.14 0.01,0.26 0.01,0.91l0 0.75c0,0.4 0,0.73 -0.02,0.91 -0.02,0.13 -0.04,0.21 -0.13,0.23 -0.05,0.01 -0.1,0.02 -0.16,0.02 -0.06,0 -0.07,0.02 -0.07,0.04 0,0.03 0.03,0.05 0.08,0.05 0.18,0 0.47,-0.02 0.57,-0.02 0.13,0 0.44,0.02 0.72,0.02 0.06,0 0.09,-0.02 0.09,-0.05 0,-0.02 -0.02,-0.04 -0.07,-0.04 -0.06,0 -0.16,-0.01 -0.22,-0.02 -0.13,-0.02 -0.16,-0.1 -0.17,-0.22 -0.02,-0.19 -0.03,-0.51 -0.03,-0.91l0 -0.32c0,-0.03 0.02,-0.03 0.03,-0.03l1.67 0c0.01,0 0.03,0.01 0.03,0.03l0 0.32c0,0.4 0,0.72 -0.02,0.9 -0.02,0.13 -0.04,0.21 -0.13,0.23 -0.04,0.01 -0.09,0.02 -0.16,0.02 -0.06,0 -0.08,0.02 -0.08,0.04 0,0.03 0.04,0.05 0.1,0.05 0.17,0 0.48,-0.02 0.58,-0.02 0.13,0 0.42,0.02 0.7,0.02 0.06,0 0.09,-0.02 0.09,-0.05 0,-0.02 -0.02,-0.04 -0.07,-0.04 -0.07,0 -0.16,-0.01 -0.22,-0.02 -0.14,-0.02 -0.16,-0.1 -0.18,-0.22 -0.02,-0.19 -0.02,-0.52 -0.02,-0.92l0 -0.75c0,-0.65 0,-0.77 0.01,-0.91 0.01,-0.15 0.05,-0.21 0.16,-0.23 0.06,-0.01 0.1,-0.02 0.13,-0.02 0.05,0 0.08,-0.01 0.08,-0.04 0,-0.03 -0.03,-0.04 -0.09,-0.04 -0.17,0 -0.46,0.01 -0.57,0.01 -0.12,0 -0.43,-0.01 -0.67,-0.01 -0.06,0 -0.09,0.01 -0.09,0.04 0,0.03 0.02,0.04 0.07,0.04 0.07,0 0.14,0.01 0.18,0.02 0.14,0.04 0.18,0.08 0.19,0.23 0,0.14 0.01,0.29 0.01,0.94l0 0.09c0,0.03 -0.02,0.03 -0.03,0.03l-1.67 0zm4.98 0.77c0.02,0 0.03,0 0.04,0.03l0.34 0.86c0.02,0.05 -0.01,0.09 -0.04,0.1 -0.04,0 -0.05,0.02 -0.05,0.04 0,0.03 0.05,0.03 0.13,0.04 0.37,0.01 0.69,0.01 0.85,0.01 0.17,0 0.19,-0.01 0.19,-0.05 0,-0.03 -0.02,-0.04 -0.06,-0.04 -0.05,0 -0.1,-0.01 -0.17,-0.02 -0.08,-0.02 -0.2,-0.07 -0.37,-0.46 -0.29,-0.65 -1.03,-2.4 -1.13,-2.64 -0.05,-0.09 -0.07,-0.13 -0.13,-0.13 -0.05,0 -0.08,0.05 -0.13,0.17l-1.16 2.69c-0.09,0.22 -0.17,0.35 -0.37,0.38 -0.04,0 -0.09,0.01 -0.13,0.01 -0.04,0 -0.05,0.02 -0.05,0.04 0,0.04 0.02,0.05 0.08,0.05 0.23,0 0.47,-0.02 0.51,-0.02 0.14,0 0.35,0.02 0.5,0.02 0.04,0 0.07,-0.01 0.07,-0.05 0,-0.02 -0.01,-0.04 -0.07,-0.04l-0.06 0c-0.14,0 -0.18,-0.05 -0.18,-0.13 0,-0.05 0.02,-0.15 0.07,-0.26l0.23 -0.57c0.01,-0.03 0.02,-0.03 0.04,-0.03l1.05 0zm-0.96 -0.24c-0.01,0 -0.02,-0.01 -0.01,-0.03l0.43 -1.08c0,-0.02 0.01,-0.04 0.02,-0.04 0.01,0 0.02,0.02 0.02,0.04l0.42 1.09c0,0.01 0,0.02 -0.02,0.02l-0.86 0zm3.3 1.11c0.09,0.21 0.12,0.26 0.18,0.26 0.06,0 0.1,-0.06 0.21,-0.31 0.11,-0.22 0.31,-0.69 0.59,-1.31 0.25,-0.52 0.36,-0.76 0.54,-1.16 0.11,-0.27 0.17,-0.34 0.23,-0.38 0.07,-0.05 0.17,-0.05 0.22,-0.05 0.04,0 0.07,-0.01 0.07,-0.04 0,-0.03 -0.04,-0.04 -0.09,-0.04 -0.14,0 -0.35,0.01 -0.42,0.01 -0.06,0 -0.25,-0.01 -0.48,-0.01 -0.08,0 -0.12,0.01 -0.12,0.04 0,0.03 0.03,0.04 0.07,0.04 0.06,0 0.13,0.01 0.18,0.02 0.04,0.02 0.06,0.03 0.06,0.08 0,0.03 -0.02,0.1 -0.04,0.16 -0.11,0.28 -0.67,1.66 -0.87,2.1l-0.01 0 -0.75 -1.92c-0.06,-0.15 -0.1,-0.26 -0.1,-0.32 0,-0.04 0.02,-0.07 0.05,-0.09 0.03,-0.02 0.1,-0.03 0.17,-0.03 0.04,0 0.07,-0.01 0.07,-0.04 0,-0.03 -0.05,-0.04 -0.11,-0.04 -0.22,0 -0.45,0.01 -0.56,0.01 -0.16,0 -0.41,-0.01 -0.64,-0.01 -0.07,0 -0.11,0 -0.11,0.04 0,0.02 0.01,0.04 0.05,0.04 0.03,0 0.1,0 0.17,0.02 0.16,0.04 0.22,0.08 0.32,0.32l1.12 2.61zm4.79 -1.25c0,0.46 0,0.86 -0.02,1.07 -0.02,0.14 -0.05,0.26 -0.15,0.28 -0.05,0.01 -0.11,0.02 -0.18,0.02 -0.06,0 -0.08,0.01 -0.08,0.04 0,0.03 0.03,0.05 0.1,0.05 0.2,0 0.52,-0.02 0.63,-0.02 0.14,0 0.46,0.02 0.79,0.02 0.06,0 0.1,-0.02 0.1,-0.05 0,-0.03 -0.03,-0.04 -0.08,-0.04 -0.08,0 -0.19,-0.01 -0.26,-0.02 -0.15,-0.02 -0.18,-0.14 -0.19,-0.28 -0.03,-0.21 -0.03,-0.61 -0.03,-1.07l0 -2.07 0.63 0.02c0.45,0.01 0.59,0.15 0.6,0.28l0 0.05c0.01,0.08 0.02,0.1 0.06,0.1 0.03,0 0.04,-0.03 0.04,-0.08 0,-0.13 0.02,-0.47 0.02,-0.58 0,-0.08 -0.01,-0.11 -0.04,-0.11 -0.02,0 -0.06,0.01 -0.14,0.03 -0.07,0.01 -0.18,0.02 -0.34,0.02l-2 0c-0.16,0 -0.36,-0.01 -0.5,-0.02 -0.13,-0.01 -0.18,-0.06 -0.22,-0.06 -0.03,0 -0.04,0.03 -0.06,0.09 -0.01,0.04 -0.1,0.5 -0.1,0.58 0,0.06 0.01,0.08 0.04,0.08 0.03,0 0.05,-0.02 0.06,-0.06 0.01,-0.04 0.03,-0.1 0.08,-0.17 0.08,-0.11 0.2,-0.14 0.49,-0.15l0.75 -0.02 0 2.07zm2.81 0.21c0,0.4 0,0.73 -0.03,0.91 -0.01,0.13 -0.04,0.21 -0.13,0.23 -0.04,0.01 -0.09,0.02 -0.15,0.02 -0.06,0 -0.07,0.02 -0.07,0.04 0,0.03 0.03,0.05 0.08,0.05 0.18,0 0.46,-0.02 0.55,-0.02 0.06,0 0.43,0.02 0.69,0.02 0.05,0 0.09,-0.02 0.09,-0.05 0,-0.02 -0.02,-0.04 -0.06,-0.04 -0.05,0 -0.15,-0.01 -0.21,-0.02 -0.14,-0.02 -0.16,-0.1 -0.18,-0.23 -0.02,-0.18 -0.02,-0.51 -0.02,-0.91l0 -0.06c0,-0.02 0.01,-0.03 0.03,-0.03l0.4 0.01c0.03,0 0.06,0 0.08,0.03 0.06,0.06 0.24,0.35 0.42,0.58 0.25,0.33 0.41,0.53 0.6,0.63 0.12,0.06 0.24,0.09 0.49,0.09l0.42 0c0.06,0 0.09,-0.01 0.09,-0.05 0,-0.02 -0.02,-0.04 -0.06,-0.04 -0.03,0 -0.06,0 -0.1,-0.01 -0.07,-0.02 -0.23,-0.04 -0.48,-0.29 -0.26,-0.26 -0.58,-0.65 -0.97,-1.13 0.43,-0.35 0.61,-0.63 0.61,-0.95 0,-0.29 -0.18,-0.5 -0.31,-0.59 -0.23,-0.16 -0.56,-0.18 -0.84,-0.18 -0.13,0 -0.54,0.01 -0.69,0.01 -0.09,0 -0.37,-0.01 -0.6,-0.01 -0.07,0 -0.1,0.01 -0.1,0.04 0,0.03 0.03,0.04 0.07,0.04 0.07,0 0.14,0.01 0.18,0.02 0.14,0.04 0.18,0.08 0.19,0.23 0.01,0.14 0.01,0.26 0.01,0.91l0 0.75zm0.56 -1.69c0,-0.04 0.01,-0.06 0.04,-0.06 0.04,-0.02 0.15,-0.02 0.26,-0.02 0.26,0 0.68,0.16 0.68,0.76 0,0.35 -0.16,0.54 -0.29,0.63 -0.08,0.06 -0.14,0.08 -0.31,0.08 -0.11,0 -0.25,-0.01 -0.34,-0.05 -0.03,-0.01 -0.04,-0.03 -0.04,-0.07l0 -1.27zm4.12 1.86c0.02,0 0.04,0 0.05,0.03l0.34 0.86c0.02,0.05 -0.01,0.09 -0.04,0.1 -0.04,0 -0.05,0.02 -0.05,0.04 0,0.03 0.05,0.03 0.13,0.04 0.37,0.01 0.69,0.01 0.85,0.01 0.16,0 0.19,-0.01 0.19,-0.05 0,-0.03 -0.02,-0.04 -0.06,-0.04 -0.05,0 -0.1,-0.01 -0.17,-0.02 -0.08,-0.02 -0.2,-0.07 -0.38,-0.46 -0.28,-0.65 -1.02,-2.4 -1.12,-2.64 -0.05,-0.09 -0.07,-0.13 -0.13,-0.13 -0.05,0 -0.09,0.05 -0.14,0.17l-1.15 2.69c-0.09,0.22 -0.17,0.35 -0.37,0.38 -0.04,0 -0.09,0.01 -0.13,0.01 -0.04,0 -0.05,0.02 -0.05,0.04 0,0.04 0.02,0.05 0.08,0.05 0.23,0 0.47,-0.02 0.51,-0.02 0.14,0 0.35,0.02 0.5,0.02 0.04,0 0.07,-0.01 0.07,-0.05 0,-0.02 -0.01,-0.04 -0.07,-0.04l-0.07 0c-0.13,0 -0.17,-0.05 -0.17,-0.13 0,-0.05 0.02,-0.15 0.06,-0.26l0.24 -0.57c0.01,-0.03 0.02,-0.03 0.04,-0.03l1.04 0zm-0.95 -0.24c-0.01,0 -0.02,-0.01 -0.01,-0.03l0.42 -1.08c0.01,-0.02 0.01,-0.04 0.03,-0.04 0.01,0 0.01,0.02 0.02,0.04l0.42 1.09c0,0.01 0,0.02 -0.02,0.02l-0.86 0zm2.9 0.07c0,0.4 0,0.73 -0.02,0.91 -0.01,0.13 -0.04,0.21 -0.13,0.23 -0.04,0.01 -0.09,0.02 -0.16,0.02 -0.05,0 -0.07,0.02 -0.07,0.04 0,0.03 0.03,0.05 0.09,0.05 0.09,0 0.2,-0.01 0.31,-0.01 0.1,0 0.2,-0.01 0.25,-0.01 0.11,0 0.27,0.01 0.45,0.03 0.17,0.01 0.36,0.02 0.53,0.02 0.81,0 1.28,-0.3 1.48,-0.5 0.25,-0.25 0.48,-0.66 0.48,-1.2 0,-0.5 -0.19,-0.86 -0.41,-1.08 -0.49,-0.49 -1.23,-0.49 -1.79,-0.49 -0.26,0 -0.58,0.01 -0.72,0.01 -0.12,0 -0.4,-0.01 -0.64,-0.01 -0.06,0 -0.1,0.01 -0.1,0.04 0,0.03 0.03,0.04 0.08,0.04 0.06,0 0.14,0.01 0.18,0.02 0.14,0.04 0.18,0.08 0.19,0.23 0,0.14 0,0.26 0,0.91l0 0.75zm0.6 -0.82c0,-0.34 0,-0.69 0,-0.83 0,-0.05 0.02,-0.07 0.06,-0.09 0.03,-0.02 0.18,-0.03 0.27,-0.03 0.35,0 0.83,0.05 1.24,0.41 0.19,0.17 0.41,0.52 0.41,1.07 0,0.44 -0.09,0.82 -0.38,1.06 -0.26,0.22 -0.56,0.29 -0.96,0.29 -0.35,0 -0.53,-0.09 -0.58,-0.17 -0.04,-0.05 -0.05,-0.2 -0.05,-0.3 -0.01,-0.09 -0.01,-0.42 -0.01,-0.87l0 -0.54zm3.54 0.82c0,0.4 0,0.73 -0.02,0.91 -0.02,0.13 -0.04,0.21 -0.14,0.23 -0.04,0.01 -0.09,0.02 -0.15,0.02 -0.06,0 -0.07,0.02 -0.07,0.04 0,0.03 0.03,0.05 0.08,0.05 0.09,0 0.21,-0.01 0.31,-0.01 0.11,0 0.2,-0.01 0.25,-0.01 0.13,0 0.3,0.01 0.52,0.01 0.21,0.01 0.48,0.02 0.81,0.02 0.17,0 0.21,0 0.24,-0.11 0.02,-0.09 0.06,-0.38 0.06,-0.48 0,-0.04 -0.01,-0.1 -0.04,-0.1 -0.03,0 -0.04,0.02 -0.05,0.07 -0.03,0.17 -0.08,0.26 -0.19,0.31 -0.12,0.05 -0.31,0.06 -0.42,0.06 -0.45,0 -0.59,-0.07 -0.6,-0.36 -0.01,-0.12 0,-0.49 0,-0.63l0 -0.35c0,-0.02 0,-0.04 0.03,-0.04 0.11,0 0.61,0.01 0.69,0.02 0.17,0.01 0.22,0.08 0.25,0.17 0.01,0.05 0.01,0.11 0.01,0.15 0,0.02 0.01,0.04 0.04,0.04 0.04,0 0.05,-0.06 0.05,-0.1 0,-0.03 0.01,-0.2 0.02,-0.29 0.02,-0.21 0.03,-0.28 0.03,-0.31 0,-0.02 -0.01,-0.04 -0.03,-0.04 -0.02,0 -0.04,0.02 -0.07,0.05 -0.04,0.05 -0.11,0.06 -0.21,0.07 -0.11,0.01 -0.68,0.01 -0.78,0.01 -0.03,0 -0.03,-0.02 -0.03,-0.05l0 -1.05c0,-0.03 0.01,-0.05 0.03,-0.05 0.09,0 0.62,0.02 0.7,0.03 0.22,0.02 0.25,0.08 0.29,0.15 0.02,0.05 0.03,0.13 0.03,0.16 0,0.03 0,0.05 0.03,0.05 0.04,0 0.05,-0.05 0.05,-0.07 0.01,-0.05 0.02,-0.23 0.03,-0.28 0.01,-0.2 0.03,-0.25 0.03,-0.28 0,-0.02 0,-0.04 -0.03,-0.04 -0.02,0 -0.04,0.02 -0.07,0.02 -0.03,0.01 -0.1,0.02 -0.18,0.03 -0.09,0 -1.07,0 -1.21,0 -0.13,0 -0.41,-0.01 -0.64,-0.01 -0.07,0 -0.1,0.01 -0.1,0.04 0,0.03 0.03,0.04 0.07,0.04 0.07,0 0.14,0.01 0.18,0.02 0.14,0.04 0.18,0.08 0.19,0.23 0.01,0.14 0.01,0.26 0.01,0.91l0 0.75zm6.31 1.32c0.32,0 0.7,-0.04 0.91,-0.12 0.08,-0.03 0.1,-0.06 0.13,-0.15 0.05,-0.17 0.11,-0.6 0.11,-0.67 0,-0.04 -0.01,-0.07 -0.05,-0.07 -0.04,0 -0.05,0.02 -0.06,0.1 -0.02,0.09 -0.09,0.24 -0.17,0.33 -0.21,0.23 -0.48,0.28 -0.93,0.28 -0.67,0 -1.58,-0.59 -1.58,-1.79 0,-0.49 0.09,-0.96 0.46,-1.3 0.22,-0.2 0.51,-0.31 0.95,-0.31 0.46,0 0.85,0.13 1.02,0.31 0.13,0.13 0.19,0.3 0.2,0.46 0,0.07 0.01,0.11 0.05,0.11 0.04,0 0.05,-0.04 0.06,-0.11 0.01,-0.1 0,-0.38 0.01,-0.55 0.01,-0.17 0.03,-0.23 0.03,-0.27 0,-0.04 -0.02,-0.06 -0.08,-0.07 -0.15,-0.01 -0.31,-0.06 -0.5,-0.08 -0.23,-0.03 -0.42,-0.05 -0.73,-0.05 -0.75,0 -1.23,0.2 -1.59,0.53 -0.49,0.45 -0.59,1.04 -0.59,1.38 0,0.49 0.13,1.05 0.62,1.49 0.46,0.4 1.04,0.55 1.73,0.55zm2.12 -1.32c0,0.4 0,0.73 -0.02,0.91 -0.01,0.13 -0.04,0.21 -0.13,0.23 -0.04,0.01 -0.09,0.02 -0.15,0.02 -0.06,0 -0.07,0.02 -0.07,0.04 0,0.03 0.03,0.05 0.08,0.05 0.09,0 0.2,-0.01 0.31,-0.01 0.11,0 0.2,-0.01 0.25,-0.01 0.13,0 0.3,0.01 0.52,0.01 0.21,0.01 0.48,0.02 0.81,0.02 0.17,0 0.21,0 0.24,-0.11 0.02,-0.09 0.06,-0.38 0.06,-0.48 0,-0.04 -0.01,-0.1 -0.04,-0.1 -0.03,0 -0.04,0.02 -0.05,0.07 -0.03,0.17 -0.08,0.26 -0.19,0.31 -0.12,0.05 -0.31,0.06 -0.42,0.06 -0.46,0 -0.59,-0.07 -0.6,-0.36 -0.01,-0.12 0,-0.49 0,-0.63l0 -0.35c0,-0.02 0,-0.04 0.02,-0.04 0.12,0 0.62,0.01 0.7,0.02 0.17,0.01 0.22,0.08 0.25,0.17 0.01,0.05 0.01,0.11 0.01,0.15 0,0.02 0.01,0.04 0.04,0.04 0.04,0 0.05,-0.06 0.05,-0.1 0,-0.03 0.01,-0.2 0.02,-0.29 0.02,-0.21 0.03,-0.28 0.03,-0.31 0,-0.02 -0.01,-0.04 -0.03,-0.04 -0.02,0 -0.04,0.02 -0.07,0.05 -0.04,0.05 -0.11,0.06 -0.22,0.07 -0.1,0.01 -0.67,0.01 -0.77,0.01 -0.03,0 -0.03,-0.02 -0.03,-0.05l0 -1.05c0,-0.03 0.01,-0.05 0.03,-0.05 0.09,0 0.62,0.02 0.69,0.03 0.23,0.02 0.26,0.08 0.3,0.15 0.02,0.05 0.03,0.13 0.03,0.16 0,0.03 0,0.05 0.03,0.05 0.04,0 0.05,-0.05 0.05,-0.07 0.01,-0.05 0.02,-0.23 0.03,-0.28 0.01,-0.2 0.03,-0.25 0.03,-0.28 0,-0.02 0,-0.04 -0.03,-0.04 -0.02,0 -0.04,0.02 -0.07,0.02 -0.03,0.01 -0.1,0.02 -0.18,0.03 -0.09,0 -1.07,0 -1.21,0 -0.13,0 -0.41,-0.01 -0.64,-0.01 -0.07,0 -0.1,0.01 -0.1,0.04 0,0.03 0.03,0.04 0.07,0.04 0.07,0 0.14,0.01 0.18,0.02 0.14,0.04 0.18,0.08 0.19,0.23 0,0.14 0,0.26 0,0.91l0 0.75zm3.03 -1.09l0.02 0c0.08,0.08 0.55,0.6 1.03,1.06 0.47,0.45 1.02,0.98 1.3,1.24 0.04,0.04 0.1,0.09 0.18,0.09 0.03,0 0.07,-0.04 0.07,-0.14l0.05 -2.7c0,-0.24 0.04,-0.32 0.16,-0.35 0.06,-0.02 0.09,-0.02 0.14,-0.02 0.05,0 0.07,-0.02 0.07,-0.04 0,-0.04 -0.04,-0.04 -0.1,-0.04 -0.22,0 -0.38,0.01 -0.43,0.01 -0.1,0 -0.34,-0.01 -0.57,-0.01 -0.06,0 -0.11,0 -0.11,0.04 0,0.02 0.02,0.04 0.07,0.04 0.06,0 0.17,0 0.23,0.03 0.11,0.04 0.15,0.11 0.16,0.38l0.04 1.9 -0.02 0c-0.07,-0.06 -0.65,-0.66 -0.96,-0.96 -0.64,-0.63 -1.3,-1.31 -1.36,-1.37 -0.07,-0.07 -0.14,-0.14 -0.19,-0.14 -0.05,0 -0.08,0.06 -0.08,0.15l-0.04 2.54c0,0.37 -0.02,0.48 -0.13,0.52 -0.06,0.01 -0.14,0.02 -0.2,0.02 -0.04,0 -0.07,0.02 -0.07,0.04 0,0.04 0.04,0.05 0.1,0.05 0.22,0 0.43,-0.02 0.47,-0.02 0.09,0 0.29,0.02 0.58,0.02 0.06,0 0.1,-0.01 0.1,-0.05 0,-0.02 -0.03,-0.04 -0.08,-0.04 -0.07,0 -0.15,-0.01 -0.23,-0.03 -0.08,-0.03 -0.14,-0.14 -0.15,-0.47l-0.05 -1.75zm4.6 1.09c0,0.4 0,0.73 -0.02,0.91 -0.02,0.13 -0.04,0.21 -0.13,0.23 -0.04,0.01 -0.09,0.02 -0.16,0.02 -0.05,0 -0.07,0.02 -0.07,0.04 0,0.03 0.03,0.05 0.09,0.05 0.17,0 0.47,-0.02 0.58,-0.02 0.12,0 0.42,0.02 0.71,0.02 0.05,0 0.09,-0.02 0.09,-0.05 0,-0.02 -0.02,-0.04 -0.08,-0.04 -0.06,0 -0.16,-0.01 -0.22,-0.02 -0.13,-0.02 -0.16,-0.1 -0.17,-0.22 -0.02,-0.19 -0.03,-0.52 -0.03,-0.92l0 -1.73 0.56 0.01c0.4,0.01 0.51,0.14 0.52,0.25l0.01 0.04c0,0.07 0.01,0.09 0.05,0.09 0.02,0 0.03,-0.03 0.04,-0.07 0,-0.11 0.01,-0.43 0.01,-0.52 0,-0.07 0,-0.09 -0.04,-0.09 -0.01,0 -0.05,0.01 -0.12,0.02 -0.06,0.01 -0.16,0.02 -0.3,0.02l-1.8 0c-0.14,0 -0.31,-0.01 -0.44,-0.02 -0.11,-0.02 -0.15,-0.05 -0.19,-0.05 -0.02,0 -0.04,0.02 -0.05,0.08 -0.01,0.03 -0.1,0.45 -0.1,0.52 0,0.04 0.01,0.07 0.04,0.07 0.04,0 0.05,-0.02 0.06,-0.06 0.01,-0.03 0.03,-0.08 0.07,-0.14 0.07,-0.1 0.17,-0.13 0.43,-0.13l0.66 -0.02 0 1.73zm2.6 0c0,0.4 0,0.73 -0.02,0.91 -0.02,0.13 -0.04,0.21 -0.13,0.23 -0.04,0.01 -0.1,0.02 -0.16,0.02 -0.06,0 -0.07,0.02 -0.07,0.04 0,0.03 0.03,0.05 0.08,0.05 0.1,0 0.21,-0.01 0.31,-0.01 0.11,0 0.2,-0.01 0.25,-0.01 0.13,0 0.3,0.01 0.52,0.01 0.21,0.01 0.48,0.02 0.81,0.02 0.17,0 0.21,0 0.24,-0.11 0.02,-0.09 0.06,-0.38 0.06,-0.48 0,-0.04 0,-0.1 -0.04,-0.1 -0.03,0 -0.04,0.02 -0.05,0.07 -0.03,0.17 -0.08,0.26 -0.19,0.31 -0.12,0.05 -0.3,0.06 -0.42,0.06 -0.45,0 -0.59,-0.07 -0.6,-0.36 0,-0.12 0,-0.49 0,-0.63l0 -0.35c0,-0.02 0.01,-0.04 0.03,-0.04 0.11,0 0.61,0.01 0.69,0.02 0.17,0.01 0.22,0.08 0.25,0.17 0.01,0.05 0.01,0.11 0.01,0.15 0,0.02 0.01,0.04 0.04,0.04 0.04,0 0.05,-0.06 0.05,-0.1 0,-0.03 0.01,-0.2 0.02,-0.29 0.02,-0.21 0.03,-0.28 0.03,-0.31 0,-0.02 -0.01,-0.04 -0.03,-0.04 -0.02,0 -0.04,0.02 -0.07,0.05 -0.04,0.05 -0.11,0.06 -0.21,0.07 -0.1,0.01 -0.68,0.01 -0.78,0.01 -0.02,0 -0.03,-0.02 -0.03,-0.05l0 -1.05c0,-0.03 0.01,-0.05 0.03,-0.05 0.09,0 0.62,0.02 0.7,0.03 0.22,0.02 0.25,0.08 0.29,0.15 0.02,0.05 0.03,0.13 0.03,0.16 0,0.03 0,0.05 0.03,0.05 0.04,0 0.05,-0.05 0.05,-0.07 0.01,-0.05 0.02,-0.23 0.03,-0.28 0.01,-0.2 0.03,-0.25 0.03,-0.28 0,-0.02 0,-0.04 -0.03,-0.04 -0.02,0 -0.04,0.02 -0.07,0.02 -0.03,0.01 -0.1,0.02 -0.18,0.03 -0.09,0 -1.07,0 -1.21,0 -0.13,0 -0.41,-0.01 -0.64,-0.01 -0.07,0 -0.1,0.01 -0.1,0.04 0,0.03 0.03,0.04 0.07,0.04 0.07,0 0.15,0.01 0.18,0.02 0.14,0.04 0.18,0.08 0.19,0.23 0.01,0.14 0.01,0.26 0.01,0.91l0 0.75zm2.8 0c0,0.4 0,0.73 -0.02,0.91 -0.02,0.13 -0.04,0.21 -0.13,0.23 -0.05,0.01 -0.1,0.02 -0.16,0.02 -0.06,0 -0.07,0.02 -0.07,0.04 0,0.03 0.03,0.05 0.08,0.05 0.18,0 0.46,-0.02 0.55,-0.02 0.06,0 0.43,0.02 0.69,0.02 0.05,0 0.09,-0.02 0.09,-0.05 0,-0.02 -0.02,-0.04 -0.06,-0.04 -0.05,0 -0.15,-0.01 -0.21,-0.02 -0.14,-0.02 -0.16,-0.1 -0.17,-0.23 -0.02,-0.18 -0.03,-0.51 -0.03,-0.91l0 -0.06c0,-0.02 0.02,-0.03 0.04,-0.03l0.39 0.01c0.03,0 0.06,0 0.08,0.03 0.06,0.06 0.25,0.35 0.42,0.58 0.25,0.33 0.41,0.53 0.61,0.63 0.11,0.06 0.23,0.09 0.48,0.09l0.42 0c0.06,0 0.09,-0.01 0.09,-0.05 0,-0.02 -0.02,-0.04 -0.06,-0.04 -0.03,0 -0.06,0 -0.1,-0.01 -0.07,-0.02 -0.23,-0.04 -0.48,-0.29 -0.26,-0.26 -0.58,-0.65 -0.97,-1.13 0.43,-0.35 0.62,-0.63 0.62,-0.95 0,-0.29 -0.19,-0.5 -0.32,-0.59 -0.23,-0.16 -0.56,-0.18 -0.84,-0.18 -0.13,0 -0.54,0.01 -0.69,0.01 -0.09,0 -0.37,-0.01 -0.6,-0.01 -0.07,0 -0.1,0.01 -0.1,0.04 0,0.03 0.03,0.04 0.07,0.04 0.07,0 0.14,0.01 0.18,0.02 0.14,0.04 0.18,0.08 0.19,0.23 0.01,0.14 0.01,0.26 0.01,0.91l0 0.75zm0.56 -1.69c0,-0.04 0.01,-0.06 0.04,-0.06 0.05,-0.02 0.15,-0.02 0.26,-0.02 0.26,0 0.68,0.16 0.68,0.76 0,0.35 -0.15,0.54 -0.29,0.63 -0.08,0.06 -0.14,0.08 -0.31,0.08 -0.11,0 -0.24,-0.01 -0.34,-0.05 -0.03,-0.01 -0.04,-0.03 -0.04,-0.07l0 -1.27zm-26.2 4.18c0.19,0 0.35,0.16 0.35,0.36 0,0.19 -0.16,0.35 -0.35,0.35 -0.2,0 -0.35,-0.16 -0.35,-0.35 0,-0.2 0.15,-0.36 0.35,-0.36z"></path>  <path class="fil4" d="M37.43 16.3c0.46,0.01 1.19,0.16 1.7,0.24 0.5,0.07 1.2,0.21 1.73,0.26 0.27,0.02 0.07,0.03 0.59,-0.36l2.9 -2.09c2.37,-1.57 2.39,-1.98 3.99,-4.15 0.3,-0.41 0.56,-0.83 0.8,-1.28l-2.02 1.27c-0.17,0.13 -0.29,0.2 -0.47,0.32l-1.45 1.05c-0.32,0.23 -0.62,0.46 -0.93,0.71l-1.33 1.1c-0.19,0.18 -0.24,0.23 -0.45,0.4l-1.69 1.6c-1.27,1.29 -1.47,-0.22 -2.3,-1.66 -0.87,-1.49 -1.66,-2.54 -3.07,-3.52l-10 -1.43 4.93 2.38c0.27,0.13 0.52,0.26 0.81,0.4 1.48,0.74 2.44,1.43 3.75,2.39 0.51,0.38 1.85,1.57 2.21,2.08l0.3 0.29zm-8.57 -13.94c0,1.09 0.81,1.8 1.62,2.23 0.31,0.17 0.5,0.29 0.83,0.46 1.41,0.7 4.49,2.3 5.74,3.33 1.1,0.89 1.77,1.43 2.45,2.76 0.5,0.99 0.91,0.71 1.73,0.09 1.58,-1.18 3.74,-2.24 4.62,-3.38 0.28,-0.36 1.26,-1.47 1.36,-1.85 -1.75,0.92 -3.21,1.95 -4.75,3.17l-0.69 0.59c-1.15,1.12 -1.14,0.29 -1.82,-1.07 -0.35,-0.72 -0.74,-1.25 -1.28,-1.79l-0.44 -0.42c-0.55,-0.49 -1.7,-1.19 -2.35,-1.58 -1.65,-0.99 -3.67,-1.89 -5.06,-2.72 -0.3,-0.18 -0.52,-0.29 -0.8,-0.48 -0.29,-0.2 -0.52,-0.37 -0.8,-0.56 -0.16,0.31 -0.36,0.75 -0.36,1.22zm-3.43 6.4l10 1.43 -3.24 -1.96 -6.18 -2.95c-0.32,-0.16 -0.59,-0.28 -0.93,-0.43l-2.59 -1.34c-0.14,-0.09 -0.24,-0.15 -0.38,-0.26 -0.22,-0.16 -0.16,-0.18 -0.46,-0.25 -1.08,2.04 0.15,4.21 1.97,4.96 0.38,0.15 1.48,0.77 1.81,0.8zm9 -8.19c0,1.33 0.51,1.45 1.59,2.05 1.44,0.8 3.85,1.99 4.85,3.44 0.82,1.19 0.27,1.44 2.03,0.27 0.46,-0.31 0.79,-0.51 1.28,-0.79 0.69,-0.4 0.93,-0.64 1.38,-1.19 0.1,-0.13 0.15,-0.17 0.26,-0.31 0.19,-0.24 0.3,-0.37 0.46,-0.61 -0.34,0.08 -0.78,0.37 -1.09,0.55 -0.62,0.34 -1.99,1.3 -2.46,1.75 -0.83,0.81 -0.85,0.03 -1.21,-0.69 -0.19,-0.39 -0.39,-0.74 -0.68,-1.03 -0.16,-0.15 -0.27,-0.27 -0.43,-0.42 -0.48,-0.49 -1.96,-1.33 -2.55,-1.67 -0.34,-0.19 -0.72,-0.43 -1.1,-0.61 -1.1,-0.55 -1.24,-0.73 -2.12,-1.31l0 0c-0.08,0.16 -0.21,0.35 -0.21,0.57zm6.43 16.23c-0.53,-0.05 -1.23,-0.19 -1.73,-0.26 -0.51,-0.08 -1.24,-0.23 -1.7,-0.24 0.04,0.18 0.77,1.77 1.44,1.83 0.52,0.05 1.81,-0.94 1.99,-1.33z"></path>  <g id="_2180630927920">   <rect class="fil5" x="0.03" y="42.38" width="57.34" height="0.24"></rect>   <g>    <rect class="fil6" x="0.03" y="49.07" width="57.34" height="0.24"></rect>    <circle class="fil7" cx="28.7" cy="49.19" r="0.56"></circle>    <circle class="fil8" cx="28.7" cy="49.19" r="0.36"></circle>   </g>  </g> </g></svg>