<svg xmlns="http://www.w3.org/2000/svg" xmlns:xlink="http://www.w3.org/1999/xlink" xml:space="preserve" width="161px" height="100px" style="shape-rendering:geometricPrecision; text-rendering:geometricPrecision; image-rendering:optimizeQuality; fill-rule:evenodd; clip-rule:evenodd" viewBox="0 0 161 99.82"> <defs>  <style type="text/css">       .fil0 {fill:#21184E}    .fil1 {fill:#B9622C}     </style> </defs> <g id="Layer_x0020_1">  <metadata id="WealthSquareLogoDark"></metadata>  <g id="_2179876519824">   <path class="fil0" d="M0 73.9l36.71 0 0 -20.25c-2.32,0 -3.29,-0.32 -3.29,0.76l0 16.46 -13.42 0 0 -16.46c0,-1.08 -0.97,-0.76 -3.29,-0.76l0 17.22 -13.67 0 0 -17.22 -3.04 0 0 20.25zm39.49 -19.49l0 19.49 24.05 0 0 -3.03 -20.76 0 0 -5.32 20.76 0 0 -3.29 -20.76 0 0 -5.32 20.76 0 0 -3.29 -23.29 0c-0.58,0 -0.76,0.18 -0.76,0.76zm30.12 2.53l18.23 0 0 5.32 -18.23 0 0 -5.32zm-3.03 16.96l3.03 0 0 -8.35 18.23 0 0 8.35 3.29 0 0 -20.25 -24.55 0 0 20.25zm69.86 0l3.29 0 0 -8.35 18.23 0 0 8.35 3.04 0 0 -20.25 -3.04 0 0 8.61 -18.23 0 0 -7.85c0,-1.08 -0.97,-0.76 -3.29,-0.76l0 20.25zm-27.59 -16.96l10.89 0 0 16.96 3.04 0 0 -16.96 10.12 0c1.01,0 0.76,-0.71 0.76,-2.53 0,-0.58 -0.18,-0.76 -0.76,-0.76l-24.05 0 0 3.29zm-14.68 16.96l22.53 0 0 -3.03 -19.49 0 0 -17.22 -3.04 0 0 20.25zm-94.17 -55.41l0 27.87 46.49 0 0 -27.87c0,-0.3 -0.09,-0.39 -0.39,-0.39l-4.17 0 0 23.83 -16.41 0 0 -23.83 -4.55 0 0 23.83 -16.41 0 0 -23.83 -4.17 0c-0.3,0 -0.39,0.09 -0.39,0.39z"></path>   <path class="fil1" d="M136.95 99.02c0,0.58 0.18,0.76 0.76,0.76l23.29 0 0 -3.3 -20.76 0 0 -5.31 20.76 0 0 -3.29 -20.76 0 0 -5.32 20.76 0 0 -3.29 -24.05 0 0 19.75zm-110.62 0.76l16.2 0 0 -8.86 -3.04 0 0 5.56 -10.13 0 0 -13.92 18.48 0 0 13.92 -3.79 0 0 3.3 6.33 0c0.58,0 0.76,-0.18 0.76,-0.76l0 -18.99c0,-0.58 -0.18,-0.76 -0.76,-0.76l-24.05 0 0 20.51zm-26.33 -8.61l20.25 0 0 5.31 -20.25 0 0 3.3 23.29 0 0 -11.9 -20.25 0 0 -5.32 20.25 0 0 -3.29 -23.29 0 0 11.9zm84.8 -8.61l18.48 0 0 5.32 -18.48 0 0 -5.32zm-3.29 -2.53l0 18.99c0,1.08 0.97,0.76 3.29,0.76l0 -8.61 18.48 0 0 8.61 3.04 0 0 -20.51 -24.05 0c-0.58,0 -0.76,0.18 -0.76,0.76zm27.85 19.75c2.32,0 3.29,0.32 3.29,-0.76l0 -16.46 18.22 0 0 5.32 -17.21 0c0,2.32 -0.32,3.29 0.76,3.29l16.45 0 0 7.85c0,1 0.72,0.76 2.54,0.76 0.58,0 0.76,-0.18 0.76,-0.76l0 -7.6c0,-0.64 -0.86,-1.17 -1.27,-1.77 0.35,-1.31 1.27,-0.92 1.27,-2.53l0 -7.85 -24.81 0 0 20.51zm-55.44 -0.76c0,0.58 0.18,0.76 0.76,0.76l23.29 0c0.58,0 0.76,-0.18 0.76,-0.76l0 -19.75 -3.29 0 0 17.21 -18.23 0 0 -17.21 -3.29 0 0 19.75zm-53.92 -98.63l0 13.02c0,0.3 0.09,0.39 0.39,0.39l4.17 0 0 -9.24 37.37 0 0 9.24 4.17 0c0.3,0 0.39,-0.09 0.39,-0.39l0 -13.02c0,-0.3 -0.09,-0.39 -0.39,-0.39l-45.71 0c-0.3,0 -0.39,0.09 -0.39,0.39z"></path>  </g> </g></svg>